G75*
G70*
%OFA0B0*%
%FSLAX24Y24*%
%IPPOS*%
%LPD*%
%AMOC8*
5,1,8,0,0,1.08239X$1,22.5*
%
%ADD10C,0.0060*%
%ADD11C,0.0100*%
%ADD12C,0.0080*%
%ADD13C,0.0001*%
%ADD14C,0.0020*%
D10*
X000356Y005258D02*
X000358Y005331D01*
X000364Y005404D01*
X000374Y005476D01*
X000388Y005548D01*
X000405Y005619D01*
X000427Y005689D01*
X000452Y005758D01*
X000481Y005825D01*
X000513Y005890D01*
X000549Y005954D01*
X000589Y006016D01*
X000631Y006075D01*
X000677Y006132D01*
X000726Y006186D01*
X000778Y006238D01*
X000832Y006287D01*
X000889Y006333D01*
X000948Y006375D01*
X001010Y006415D01*
X001074Y006451D01*
X001139Y006483D01*
X001206Y006512D01*
X001275Y006537D01*
X001345Y006559D01*
X001416Y006576D01*
X001488Y006590D01*
X001560Y006600D01*
X001633Y006606D01*
X001706Y006608D01*
X001779Y006606D01*
X001852Y006600D01*
X001924Y006590D01*
X001996Y006576D01*
X002067Y006559D01*
X002137Y006537D01*
X002206Y006512D01*
X002273Y006483D01*
X002338Y006451D01*
X002402Y006415D01*
X002464Y006375D01*
X002523Y006333D01*
X002580Y006287D01*
X002634Y006238D01*
X002686Y006186D01*
X002735Y006132D01*
X002781Y006075D01*
X002823Y006016D01*
X002863Y005954D01*
X002899Y005890D01*
X002931Y005825D01*
X002960Y005758D01*
X002985Y005689D01*
X003007Y005619D01*
X003024Y005548D01*
X003038Y005476D01*
X003048Y005404D01*
X003054Y005331D01*
X003056Y005258D01*
X003054Y005185D01*
X003048Y005112D01*
X003038Y005040D01*
X003024Y004968D01*
X003007Y004897D01*
X002985Y004827D01*
X002960Y004758D01*
X002931Y004691D01*
X002899Y004626D01*
X002863Y004562D01*
X002823Y004500D01*
X002781Y004441D01*
X002735Y004384D01*
X002686Y004330D01*
X002634Y004278D01*
X002580Y004229D01*
X002523Y004183D01*
X002464Y004141D01*
X002402Y004101D01*
X002338Y004065D01*
X002273Y004033D01*
X002206Y004004D01*
X002137Y003979D01*
X002067Y003957D01*
X001996Y003940D01*
X001924Y003926D01*
X001852Y003916D01*
X001779Y003910D01*
X001706Y003908D01*
X001633Y003910D01*
X001560Y003916D01*
X001488Y003926D01*
X001416Y003940D01*
X001345Y003957D01*
X001275Y003979D01*
X001206Y004004D01*
X001139Y004033D01*
X001074Y004065D01*
X001010Y004101D01*
X000948Y004141D01*
X000889Y004183D01*
X000832Y004229D01*
X000778Y004278D01*
X000726Y004330D01*
X000677Y004384D01*
X000631Y004441D01*
X000589Y004500D01*
X000549Y004562D01*
X000513Y004626D01*
X000481Y004691D01*
X000452Y004758D01*
X000427Y004827D01*
X000405Y004897D01*
X000388Y004968D01*
X000374Y005040D01*
X000364Y005112D01*
X000358Y005185D01*
X000356Y005258D01*
X001473Y009408D02*
X001633Y009408D01*
X001553Y009408D02*
X001553Y009648D01*
X001473Y009568D01*
X001749Y009528D02*
X001829Y009568D01*
X001869Y009568D01*
X001909Y009528D01*
X001909Y009448D01*
X001869Y009408D01*
X001789Y009408D01*
X001749Y009448D01*
X001749Y009528D02*
X001749Y009648D01*
X001909Y009648D01*
X002025Y009648D02*
X002025Y009408D01*
X002025Y009488D02*
X002145Y009568D01*
X002025Y009488D02*
X002145Y009408D01*
X002084Y009771D02*
X001847Y009771D01*
X001847Y010244D02*
X002084Y010244D01*
X002112Y010403D02*
X002072Y010443D01*
X002112Y010403D02*
X002192Y010403D01*
X002232Y010443D01*
X002232Y010483D01*
X002192Y010523D01*
X002152Y010523D01*
X002192Y010523D02*
X002232Y010563D01*
X002232Y010603D01*
X002192Y010643D01*
X002112Y010643D01*
X002072Y010603D01*
X001956Y010603D02*
X001956Y010523D01*
X001916Y010483D01*
X001796Y010483D01*
X001876Y010483D02*
X001956Y010403D01*
X001796Y010403D02*
X001796Y010643D01*
X001916Y010643D01*
X001956Y010603D01*
X002873Y009628D02*
X002833Y009588D01*
X002873Y009628D02*
X002953Y009628D01*
X002993Y009588D01*
X002993Y009548D01*
X002833Y009388D01*
X002993Y009388D01*
X003109Y009388D02*
X003269Y009548D01*
X003269Y009588D01*
X003229Y009628D01*
X003149Y009628D01*
X003109Y009588D01*
X003109Y009388D02*
X003269Y009388D01*
X003385Y009388D02*
X003385Y009628D01*
X003505Y009548D02*
X003385Y009468D01*
X003505Y009388D01*
X003464Y009791D02*
X003227Y009791D01*
X003227Y010264D02*
X003464Y010264D01*
X003532Y010413D02*
X003532Y010653D01*
X003412Y010533D01*
X003572Y010533D01*
X003296Y010533D02*
X003256Y010493D01*
X003136Y010493D01*
X003216Y010493D02*
X003296Y010413D01*
X003296Y010533D02*
X003296Y010613D01*
X003256Y010653D01*
X003136Y010653D01*
X003136Y010413D01*
X003187Y012458D02*
X003227Y012498D01*
X003227Y012658D01*
X003187Y012698D01*
X003067Y012698D01*
X003067Y012458D01*
X003187Y012458D01*
X002951Y012458D02*
X002951Y012698D01*
X002870Y012618D01*
X002790Y012698D01*
X002790Y012458D01*
X002674Y012498D02*
X002634Y012458D01*
X002554Y012458D01*
X002514Y012498D01*
X002554Y012578D02*
X002514Y012618D01*
X002514Y012658D01*
X002554Y012698D01*
X002634Y012698D01*
X002674Y012658D01*
X002634Y012578D02*
X002674Y012538D01*
X002674Y012498D01*
X002634Y012578D02*
X002554Y012578D01*
X002398Y012618D02*
X002358Y012578D01*
X002238Y012578D01*
X002238Y012458D02*
X002238Y012698D01*
X002358Y012698D01*
X002398Y012658D01*
X002398Y012618D01*
X002358Y012578D02*
X002398Y012538D01*
X002398Y012498D01*
X002358Y012458D01*
X002238Y012458D01*
X002122Y012498D02*
X002082Y012458D01*
X002002Y012458D01*
X001962Y012498D01*
X002002Y012578D02*
X002082Y012578D01*
X002122Y012538D01*
X002122Y012498D01*
X002002Y012578D02*
X001962Y012618D01*
X001962Y012658D01*
X002002Y012698D01*
X002082Y012698D01*
X002122Y012658D01*
X001846Y012698D02*
X001846Y012498D01*
X001806Y012458D01*
X001726Y012458D01*
X001686Y012498D01*
X001686Y012698D01*
X001936Y013488D02*
X002096Y013728D01*
X002212Y013648D02*
X002292Y013728D01*
X002292Y013488D01*
X002212Y013488D02*
X002372Y013488D01*
X002096Y013488D02*
X001936Y013728D01*
X002236Y015338D02*
X002396Y015338D01*
X002316Y015338D02*
X002316Y015578D01*
X002236Y015498D01*
X002512Y015378D02*
X002552Y015378D01*
X002552Y015338D01*
X002512Y015338D01*
X002512Y015378D01*
X002650Y015378D02*
X002690Y015338D01*
X002770Y015338D01*
X002810Y015378D01*
X002810Y015458D01*
X002770Y015498D01*
X002730Y015498D01*
X002650Y015458D01*
X002650Y015578D01*
X002810Y015578D01*
X002926Y015578D02*
X002926Y015338D01*
X002926Y015418D02*
X003046Y015498D01*
X002926Y015418D02*
X003046Y015338D01*
X002724Y015671D02*
X002487Y015671D01*
X002487Y016144D02*
X002724Y016144D01*
X002612Y016263D02*
X002612Y016303D01*
X002772Y016463D01*
X002772Y016503D01*
X002612Y016503D01*
X002496Y016463D02*
X002496Y016383D01*
X002456Y016343D01*
X002336Y016343D01*
X002416Y016343D02*
X002496Y016263D01*
X002336Y016263D02*
X002336Y016503D01*
X002456Y016503D01*
X002496Y016463D01*
X003391Y017958D02*
X003351Y017998D01*
X003351Y018158D01*
X003391Y018198D01*
X003471Y018198D01*
X003511Y018158D01*
X003511Y017998D01*
X003471Y017958D01*
X003391Y017958D01*
X003431Y018038D02*
X003511Y017958D01*
X003627Y017958D02*
X003787Y017958D01*
X003707Y017958D02*
X003707Y018198D01*
X003627Y018118D01*
X004130Y018025D02*
X004130Y017945D01*
X004170Y017905D01*
X004170Y017789D02*
X004130Y017749D01*
X004130Y017669D01*
X004170Y017629D01*
X004170Y017513D02*
X004130Y017473D01*
X004130Y017393D01*
X004170Y017353D01*
X004130Y017236D02*
X004130Y017076D01*
X004130Y017156D02*
X004371Y017156D01*
X004371Y017353D02*
X004210Y017513D01*
X004170Y017513D01*
X004371Y017513D02*
X004371Y017353D01*
X004371Y017629D02*
X004210Y017789D01*
X004170Y017789D01*
X004371Y017789D02*
X004371Y017629D01*
X004371Y017905D02*
X004210Y018065D01*
X004170Y018065D01*
X004130Y018025D01*
X004170Y018181D02*
X004130Y018221D01*
X004130Y018301D01*
X004170Y018341D01*
X004210Y018341D01*
X004371Y018181D01*
X004371Y018341D01*
X004371Y018065D02*
X004371Y017905D01*
X004705Y017910D02*
X004705Y018070D01*
X004705Y017990D02*
X004946Y017990D01*
X004946Y017794D02*
X004785Y017794D01*
X004705Y017714D01*
X004785Y017634D01*
X004946Y017634D01*
X004825Y017634D02*
X004825Y017794D01*
X004785Y017518D02*
X004825Y017478D01*
X004825Y017358D01*
X004705Y017358D02*
X004705Y017478D01*
X004745Y017518D01*
X004785Y017518D01*
X004825Y017478D02*
X004865Y017518D01*
X004906Y017518D01*
X004946Y017478D01*
X004946Y017358D01*
X004705Y017358D01*
X004331Y016960D02*
X004371Y016920D01*
X004371Y016800D01*
X004130Y016800D01*
X004130Y016920D01*
X004170Y016960D01*
X004210Y016960D01*
X004250Y016920D01*
X004250Y016800D01*
X004250Y016920D02*
X004290Y016960D01*
X004331Y016960D01*
X004371Y016684D02*
X004130Y016684D01*
X004210Y016604D01*
X004130Y016524D01*
X004371Y016524D01*
X004371Y016408D02*
X004130Y016408D01*
X004210Y016328D01*
X004130Y016248D01*
X004371Y016248D01*
X005020Y014952D02*
X005020Y014791D01*
X005140Y014791D01*
X005100Y014871D01*
X005100Y014911D01*
X005140Y014952D01*
X005221Y014952D01*
X005261Y014911D01*
X005261Y014831D01*
X005221Y014791D01*
X005261Y014675D02*
X005180Y014595D01*
X005180Y014635D02*
X005180Y014515D01*
X005261Y014515D02*
X005020Y014515D01*
X005020Y014635D01*
X005060Y014675D01*
X005140Y014675D01*
X005180Y014635D01*
X005369Y014590D02*
X005369Y014826D01*
X005842Y014826D02*
X005842Y014590D01*
X005975Y014535D02*
X005975Y014455D01*
X006015Y014415D01*
X005975Y014535D02*
X006015Y014575D01*
X006055Y014575D01*
X006216Y014415D01*
X006216Y014575D01*
X006216Y014691D02*
X006176Y014691D01*
X006015Y014852D01*
X005975Y014852D01*
X005975Y014691D01*
X006105Y013321D02*
X006186Y013321D01*
X006226Y013281D01*
X006226Y013161D01*
X006306Y013161D02*
X006065Y013161D01*
X006065Y013281D01*
X006105Y013321D01*
X006065Y013045D02*
X006105Y013005D01*
X006145Y013045D01*
X006186Y013045D01*
X006226Y013005D01*
X006226Y012925D01*
X006186Y012885D01*
X006105Y012965D02*
X006105Y013005D01*
X006065Y013045D02*
X006025Y013045D01*
X005985Y013005D01*
X005985Y012925D01*
X006025Y012885D01*
X006025Y012769D02*
X006065Y012769D01*
X006105Y012729D01*
X006145Y012769D01*
X006186Y012769D01*
X006226Y012729D01*
X006226Y012649D01*
X006186Y012609D01*
X006105Y012689D02*
X006105Y012729D01*
X006025Y012769D02*
X005985Y012729D01*
X005985Y012649D01*
X006025Y012609D01*
X005842Y012890D02*
X005842Y013126D01*
X005369Y013126D02*
X005369Y012890D01*
X005251Y012858D02*
X005211Y012898D01*
X005251Y012858D02*
X005251Y012778D01*
X005211Y012738D01*
X005050Y012738D01*
X005010Y012778D01*
X005010Y012858D01*
X005050Y012898D01*
X005130Y013014D02*
X005010Y013134D01*
X005251Y013134D01*
X005130Y013174D02*
X005130Y013014D01*
X005696Y017398D02*
X006016Y017398D01*
X006016Y017618D01*
X006016Y018298D02*
X006016Y018518D01*
X005696Y018518D01*
X006196Y018638D02*
X006316Y018638D01*
X006356Y018598D01*
X006356Y018438D01*
X006316Y018398D01*
X006196Y018398D01*
X006196Y018638D01*
X006472Y018558D02*
X006552Y018638D01*
X006552Y018398D01*
X006472Y018398D02*
X006632Y018398D01*
X007065Y019333D02*
X006985Y019413D01*
X007226Y019413D01*
X007226Y019333D02*
X007226Y019493D01*
X007186Y019609D02*
X007025Y019769D01*
X007186Y019769D01*
X007226Y019729D01*
X007226Y019649D01*
X007186Y019609D01*
X007025Y019609D01*
X006985Y019649D01*
X006985Y019729D01*
X007025Y019769D01*
X007065Y019885D02*
X007065Y020005D01*
X007105Y020045D01*
X007186Y020045D01*
X007226Y020005D01*
X007226Y019885D01*
X007306Y019885D02*
X007065Y019885D01*
X007105Y020161D02*
X007105Y020241D01*
X006985Y020161D02*
X006985Y020321D01*
X006985Y020161D02*
X007226Y020161D01*
X006798Y020413D02*
X006638Y020253D01*
X006638Y020213D01*
X006522Y020213D02*
X006362Y020213D01*
X006522Y020373D01*
X006522Y020413D01*
X006482Y020453D01*
X006402Y020453D01*
X006362Y020413D01*
X006246Y020413D02*
X006206Y020453D01*
X006126Y020453D01*
X006086Y020413D01*
X006086Y020253D01*
X006126Y020213D01*
X006206Y020213D01*
X006246Y020253D01*
X006237Y020094D02*
X006474Y020094D01*
X006798Y020413D02*
X006798Y020453D01*
X006638Y020453D01*
X006806Y021308D02*
X006406Y021308D01*
X006806Y021308D02*
X006823Y021310D01*
X006840Y021314D01*
X006856Y021321D01*
X006870Y021331D01*
X006883Y021344D01*
X006893Y021358D01*
X006900Y021374D01*
X006904Y021391D01*
X006906Y021408D01*
X006906Y025708D01*
X006904Y025725D01*
X006900Y025742D01*
X006893Y025758D01*
X006883Y025772D01*
X006870Y025785D01*
X006856Y025795D01*
X006840Y025802D01*
X006823Y025806D01*
X006806Y025808D01*
X006406Y025808D01*
X006533Y026558D02*
X006533Y026798D01*
X006653Y026798D01*
X006693Y026758D01*
X006693Y026678D01*
X006653Y026638D01*
X006533Y026638D01*
X006417Y026678D02*
X006377Y026638D01*
X006297Y026638D01*
X006257Y026678D01*
X006417Y026838D01*
X006417Y026678D01*
X006417Y026838D02*
X006377Y026878D01*
X006297Y026878D01*
X006257Y026838D01*
X006257Y026678D01*
X006141Y026638D02*
X005981Y026638D01*
X006061Y026638D02*
X006061Y026878D01*
X005981Y026798D01*
X006237Y026971D02*
X006474Y026971D01*
X006809Y026878D02*
X006969Y026878D01*
X006889Y026758D02*
X006809Y026758D01*
X006809Y026638D02*
X006809Y026878D01*
X007320Y026590D02*
X007320Y026510D01*
X007360Y026470D01*
X007440Y026550D02*
X007440Y026590D01*
X007480Y026630D01*
X007521Y026630D01*
X007561Y026590D01*
X007561Y026510D01*
X007521Y026470D01*
X007561Y026354D02*
X007561Y026194D01*
X007561Y026274D02*
X007320Y026274D01*
X007400Y026194D01*
X007360Y026078D02*
X007320Y026038D01*
X007320Y025958D01*
X007360Y025918D01*
X007521Y025918D01*
X007561Y025958D01*
X007561Y026038D01*
X007521Y026078D01*
X007550Y025747D02*
X007390Y025747D01*
X007350Y025707D01*
X007350Y025627D01*
X007390Y025587D01*
X007430Y025587D01*
X007470Y025627D01*
X007470Y025747D01*
X007550Y025747D02*
X007590Y025707D01*
X007590Y025627D01*
X007550Y025587D01*
X007590Y025471D02*
X007590Y025311D01*
X007590Y025391D02*
X007350Y025391D01*
X007430Y025311D01*
X007470Y025195D02*
X007510Y025155D01*
X007510Y025035D01*
X007510Y025115D02*
X007590Y025195D01*
X007470Y025195D02*
X007390Y025195D01*
X007350Y025155D01*
X007350Y025035D01*
X007590Y025035D01*
X007531Y024760D02*
X007571Y024720D01*
X007571Y024640D01*
X007531Y024600D01*
X007450Y024600D02*
X007410Y024680D01*
X007410Y024720D01*
X007450Y024760D01*
X007531Y024760D01*
X007450Y024600D02*
X007330Y024600D01*
X007330Y024760D01*
X007330Y024404D02*
X007571Y024404D01*
X007571Y024324D02*
X007571Y024484D01*
X007410Y024324D02*
X007330Y024404D01*
X007370Y024208D02*
X007330Y024168D01*
X007330Y024088D01*
X007370Y024048D01*
X007531Y024048D01*
X007571Y024088D01*
X007571Y024168D01*
X007531Y024208D01*
X007741Y024068D02*
X007741Y023828D01*
X007661Y023828D02*
X007821Y023828D01*
X007937Y023868D02*
X008097Y024028D01*
X008097Y023868D01*
X008057Y023828D01*
X007977Y023828D01*
X007937Y023868D01*
X007937Y024028D01*
X007977Y024068D01*
X008057Y024068D01*
X008097Y024028D01*
X008213Y023988D02*
X008213Y023868D01*
X008253Y023828D01*
X008373Y023828D01*
X008373Y023988D01*
X008489Y023948D02*
X008569Y023948D01*
X008489Y024068D02*
X008649Y024068D01*
X008489Y024068D02*
X008489Y023828D01*
X008324Y024171D02*
X008087Y024171D01*
X007741Y024068D02*
X007661Y023988D01*
X007916Y023283D02*
X007876Y023243D01*
X007876Y023083D01*
X007916Y023043D01*
X007996Y023043D01*
X008036Y023083D01*
X008152Y023043D02*
X008312Y023043D01*
X008232Y023043D02*
X008232Y023283D01*
X008152Y023203D01*
X008036Y023243D02*
X007996Y023283D01*
X007916Y023283D01*
X008087Y022894D02*
X008324Y022894D01*
X008468Y023043D02*
X008548Y023043D01*
X008588Y023083D01*
X008588Y023123D01*
X008548Y023163D01*
X008428Y023163D01*
X008508Y023243D01*
X008588Y023283D01*
X008428Y023163D02*
X008428Y023083D01*
X008468Y023043D01*
X008795Y023111D02*
X008795Y022951D01*
X009036Y022951D01*
X009036Y022835D02*
X008875Y022835D01*
X008915Y022951D02*
X008915Y023031D01*
X009036Y022835D02*
X009036Y022715D01*
X008996Y022675D01*
X008875Y022675D01*
X008835Y022559D02*
X008996Y022399D01*
X009036Y022439D01*
X009036Y022519D01*
X008996Y022559D01*
X008835Y022559D01*
X008795Y022519D01*
X008795Y022439D01*
X008835Y022399D01*
X008996Y022399D01*
X009036Y022283D02*
X009036Y022123D01*
X009036Y022203D02*
X008795Y022203D01*
X008875Y022123D01*
X008578Y022143D02*
X008538Y022103D01*
X008458Y022103D01*
X008418Y022143D01*
X008418Y022183D01*
X008458Y022223D01*
X008538Y022223D01*
X008578Y022183D01*
X008578Y022143D01*
X008538Y022103D02*
X008578Y022063D01*
X008578Y022023D01*
X008538Y021983D01*
X008458Y021983D01*
X008418Y022023D01*
X008418Y022063D01*
X008458Y022103D01*
X008302Y021983D02*
X008142Y021983D01*
X008222Y021983D02*
X008222Y022223D01*
X008142Y022143D01*
X008026Y022183D02*
X007986Y022223D01*
X007906Y022223D01*
X007866Y022183D01*
X007866Y022023D01*
X007906Y021983D01*
X007986Y021983D01*
X008026Y022023D01*
X008097Y021854D02*
X008334Y021854D01*
X008324Y022421D02*
X008087Y022421D01*
X008097Y021381D02*
X008334Y021381D01*
X008333Y021168D02*
X008333Y021048D01*
X008373Y021008D01*
X008493Y021008D01*
X008493Y021168D01*
X008609Y021128D02*
X008689Y021128D01*
X008609Y021248D02*
X008769Y021248D01*
X008609Y021248D02*
X008609Y021008D01*
X008217Y021008D02*
X008057Y021008D01*
X008137Y021008D02*
X008137Y021248D01*
X008057Y021168D01*
X007959Y021048D02*
X007959Y021008D01*
X007919Y021008D01*
X007919Y021048D01*
X007959Y021048D01*
X007803Y021048D02*
X007803Y021208D01*
X007642Y021048D01*
X007682Y021008D01*
X007763Y021008D01*
X007803Y021048D01*
X007803Y021208D02*
X007763Y021248D01*
X007682Y021248D01*
X007642Y021208D01*
X007642Y021048D01*
X006474Y019621D02*
X006237Y019621D01*
X004946Y018859D02*
X004906Y018899D01*
X004946Y018859D02*
X004946Y018779D01*
X004906Y018739D01*
X004745Y018739D01*
X004705Y018779D01*
X004705Y018859D01*
X004745Y018899D01*
X004825Y018623D02*
X004825Y018463D01*
X004705Y018583D01*
X004946Y018583D01*
X004906Y018346D02*
X004825Y018346D01*
X004785Y018306D01*
X004785Y018266D01*
X004825Y018186D01*
X004705Y018186D01*
X004705Y018346D01*
X004906Y018346D02*
X004946Y018306D01*
X004946Y018226D01*
X004906Y018186D01*
X002566Y018785D02*
X002405Y018945D01*
X002365Y018945D01*
X002325Y018905D01*
X002325Y018825D01*
X002365Y018785D01*
X002566Y018785D02*
X002566Y018945D01*
X002566Y019061D02*
X002526Y019061D01*
X002365Y019222D01*
X002325Y019222D01*
X002325Y019061D01*
X002182Y019070D02*
X002182Y019306D01*
X001709Y019306D02*
X001709Y019070D01*
X001581Y019105D02*
X001500Y019025D01*
X001500Y019065D02*
X001500Y018945D01*
X001581Y018945D02*
X001340Y018945D01*
X001340Y019065D01*
X001380Y019105D01*
X001460Y019105D01*
X001500Y019065D01*
X001460Y019221D02*
X001460Y019341D01*
X001500Y019382D01*
X001541Y019382D01*
X001581Y019341D01*
X001581Y019261D01*
X001541Y019221D01*
X001460Y019221D01*
X001380Y019301D01*
X001340Y019382D01*
X001301Y021578D02*
X001474Y021751D01*
X001474Y021794D01*
X001431Y021838D01*
X001344Y021838D01*
X001301Y021794D01*
X001301Y021578D02*
X001474Y021578D01*
X001595Y021578D02*
X001769Y021751D01*
X001769Y021794D01*
X001725Y021838D01*
X001639Y021838D01*
X001595Y021794D01*
X001597Y021961D02*
X001834Y021961D01*
X001890Y021838D02*
X001890Y021578D01*
X001890Y021664D02*
X002020Y021751D01*
X001890Y021664D02*
X002020Y021578D01*
X001769Y021578D02*
X001595Y021578D01*
X001597Y022434D02*
X001834Y022434D01*
X001786Y022563D02*
X001700Y022563D01*
X001656Y022606D01*
X001743Y022693D02*
X001786Y022693D01*
X001830Y022649D01*
X001830Y022606D01*
X001786Y022563D01*
X001786Y022693D02*
X001830Y022736D01*
X001830Y022779D01*
X001786Y022823D01*
X001700Y022823D01*
X001656Y022779D01*
X001535Y022779D02*
X001535Y022693D01*
X001492Y022649D01*
X001362Y022649D01*
X001448Y022649D02*
X001535Y022563D01*
X001362Y022563D02*
X001362Y022823D01*
X001492Y022823D01*
X001535Y022779D01*
X001951Y022779D02*
X001994Y022823D01*
X002081Y022823D01*
X002124Y022779D01*
X001951Y022606D01*
X001994Y022563D01*
X002081Y022563D01*
X002124Y022606D01*
X002124Y022779D01*
X001951Y022779D02*
X001951Y022606D01*
X002390Y022688D02*
X002477Y022774D01*
X002390Y022861D01*
X002651Y022861D01*
X002651Y022982D02*
X002390Y022982D01*
X002477Y023069D01*
X002390Y023156D01*
X002651Y023156D01*
X002651Y023277D02*
X002390Y023277D01*
X002390Y023407D01*
X002434Y023450D01*
X002477Y023450D01*
X002520Y023407D01*
X002520Y023277D01*
X002520Y023407D02*
X002564Y023450D01*
X002607Y023450D01*
X002651Y023407D01*
X002651Y023277D01*
X002845Y023267D02*
X002845Y023397D01*
X002889Y023440D01*
X002932Y023440D01*
X002975Y023397D01*
X002975Y023267D01*
X002845Y023267D02*
X003106Y023267D01*
X003106Y023397D01*
X003062Y023440D01*
X003019Y023440D01*
X002975Y023397D01*
X002845Y023562D02*
X002845Y023735D01*
X002845Y023648D02*
X003106Y023648D01*
X002975Y023856D02*
X002975Y024030D01*
X002975Y024151D02*
X002975Y024324D01*
X002845Y024281D02*
X002975Y024151D01*
X002845Y024281D02*
X003106Y024281D01*
X003062Y024446D02*
X002889Y024619D01*
X003062Y024619D01*
X003106Y024576D01*
X003106Y024489D01*
X003062Y024446D01*
X002889Y024446D01*
X002845Y024489D01*
X002845Y024576D01*
X002889Y024619D01*
X002889Y024740D02*
X002845Y024784D01*
X002845Y024870D01*
X002889Y024914D01*
X002932Y024914D01*
X002975Y024870D01*
X003019Y024914D01*
X003062Y024914D01*
X003106Y024870D01*
X003106Y024784D01*
X003062Y024740D01*
X002975Y024827D02*
X002975Y024870D01*
X002651Y024924D02*
X002651Y024750D01*
X002477Y024924D01*
X002434Y024924D01*
X002390Y024880D01*
X002390Y024794D01*
X002434Y024750D01*
X002434Y024629D02*
X002390Y024586D01*
X002390Y024499D01*
X002434Y024456D01*
X002434Y024334D02*
X002390Y024291D01*
X002390Y024204D01*
X002434Y024161D01*
X002434Y024040D02*
X002390Y023996D01*
X002390Y023910D01*
X002434Y023866D01*
X002390Y023745D02*
X002390Y023572D01*
X002390Y023658D02*
X002651Y023658D01*
X002651Y023866D02*
X002477Y024040D01*
X002434Y024040D01*
X002651Y024040D02*
X002651Y023866D01*
X002845Y023986D02*
X002975Y023856D01*
X002845Y023986D02*
X003106Y023986D01*
X002651Y024161D02*
X002477Y024334D01*
X002434Y024334D01*
X002651Y024334D02*
X002651Y024161D01*
X002651Y024456D02*
X002477Y024629D01*
X002434Y024629D01*
X002651Y024629D02*
X002651Y024456D01*
X001909Y024481D02*
X001865Y024438D01*
X001779Y024438D01*
X001735Y024481D01*
X001735Y024568D02*
X001822Y024611D01*
X001865Y024611D01*
X001909Y024568D01*
X001909Y024481D01*
X001735Y024568D02*
X001735Y024698D01*
X001909Y024698D01*
X001894Y024901D02*
X001657Y024901D01*
X001571Y024698D02*
X001484Y024698D01*
X001441Y024654D01*
X001441Y024481D01*
X001484Y024438D01*
X001571Y024438D01*
X001614Y024481D01*
X001614Y024654D01*
X001571Y024698D01*
X001527Y024524D02*
X001614Y024438D01*
X001151Y024768D02*
X000890Y024768D01*
X000890Y024898D01*
X000934Y024941D01*
X001020Y024941D01*
X001064Y024898D01*
X001064Y024768D01*
X001064Y024854D02*
X001151Y024941D01*
X001151Y025062D02*
X000977Y025236D01*
X000934Y025236D01*
X000890Y025192D01*
X000890Y025106D01*
X000934Y025062D01*
X001151Y025062D02*
X001151Y025236D01*
X001107Y025357D02*
X001151Y025400D01*
X001151Y025487D01*
X001107Y025530D01*
X000934Y025530D01*
X000890Y025487D01*
X000890Y025400D01*
X000934Y025357D01*
X000977Y025357D01*
X001020Y025400D01*
X001020Y025530D01*
X001416Y025521D02*
X001459Y025478D01*
X001546Y025478D01*
X001589Y025521D01*
X001589Y025564D01*
X001546Y025608D01*
X001502Y025608D01*
X001546Y025608D02*
X001589Y025651D01*
X001589Y025694D01*
X001546Y025738D01*
X001459Y025738D01*
X001416Y025694D01*
X001710Y025521D02*
X001754Y025521D01*
X001754Y025478D01*
X001710Y025478D01*
X001710Y025521D01*
X001857Y025521D02*
X001901Y025478D01*
X001988Y025478D01*
X002031Y025521D01*
X002031Y025564D01*
X001988Y025608D01*
X001944Y025608D01*
X001988Y025608D02*
X002031Y025651D01*
X002031Y025694D01*
X001988Y025738D01*
X001901Y025738D01*
X001857Y025694D01*
X002152Y025738D02*
X002152Y025478D01*
X002152Y025564D02*
X002282Y025478D01*
X002152Y025564D02*
X002282Y025651D01*
X001894Y025374D02*
X001657Y025374D01*
X003266Y027448D02*
X003266Y027708D01*
X003352Y027621D01*
X003439Y027708D01*
X003439Y027448D01*
X003560Y027448D02*
X003560Y027708D01*
X003647Y027621D01*
X003734Y027708D01*
X003734Y027448D01*
X003855Y027448D02*
X003855Y027708D01*
X003985Y027708D01*
X004028Y027664D01*
X004028Y027621D01*
X003985Y027578D01*
X003855Y027578D01*
X003985Y027578D02*
X004028Y027534D01*
X004028Y027491D01*
X003985Y027448D01*
X003855Y027448D01*
X004236Y027448D02*
X004236Y027708D01*
X004149Y027708D02*
X004323Y027708D01*
X004444Y027578D02*
X004574Y027708D01*
X004574Y027448D01*
X004618Y027578D02*
X004444Y027578D01*
X004739Y027578D02*
X004912Y027578D01*
X004869Y027448D02*
X004869Y027708D01*
X004739Y027578D01*
X005033Y027664D02*
X005077Y027708D01*
X005163Y027708D01*
X005207Y027664D01*
X005033Y027491D01*
X005077Y027448D01*
X005163Y027448D01*
X005207Y027491D01*
X005207Y027664D01*
X005328Y027664D02*
X005371Y027708D01*
X005458Y027708D01*
X005501Y027664D01*
X005501Y027621D01*
X005458Y027578D01*
X005501Y027534D01*
X005501Y027491D01*
X005458Y027448D01*
X005371Y027448D01*
X005328Y027491D01*
X005415Y027578D02*
X005458Y027578D01*
X005033Y027491D02*
X005033Y027664D01*
X006036Y027603D02*
X006076Y027563D01*
X006156Y027563D01*
X006196Y027603D01*
X006312Y027563D02*
X006472Y027723D01*
X006472Y027763D01*
X006432Y027803D01*
X006352Y027803D01*
X006312Y027763D01*
X006196Y027763D02*
X006156Y027803D01*
X006076Y027803D01*
X006036Y027763D01*
X006036Y027603D01*
X006237Y027444D02*
X006474Y027444D01*
X006472Y027563D02*
X006312Y027563D01*
X006588Y027603D02*
X006628Y027563D01*
X006708Y027563D01*
X006748Y027603D01*
X006748Y027643D01*
X006708Y027683D01*
X006588Y027683D01*
X006588Y027603D01*
X006588Y027683D02*
X006668Y027763D01*
X006748Y027803D01*
X007360Y026630D02*
X007400Y026630D01*
X007440Y026590D01*
X007360Y026630D02*
X007320Y026590D01*
X007692Y026608D02*
X007732Y026568D01*
X007813Y026568D01*
X007853Y026608D01*
X007853Y026768D01*
X007692Y026608D01*
X007692Y026768D01*
X007732Y026808D01*
X007813Y026808D01*
X007853Y026768D01*
X007969Y026608D02*
X007969Y026568D01*
X008009Y026568D01*
X008009Y026608D01*
X007969Y026608D01*
X008107Y026568D02*
X008267Y026568D01*
X008187Y026568D02*
X008187Y026808D01*
X008107Y026728D01*
X008383Y026728D02*
X008383Y026608D01*
X008423Y026568D01*
X008543Y026568D01*
X008543Y026728D01*
X008659Y026688D02*
X008739Y026688D01*
X008659Y026808D02*
X008819Y026808D01*
X008659Y026808D02*
X008659Y026568D01*
X009093Y026558D02*
X009267Y026558D01*
X009180Y026558D02*
X009180Y026818D01*
X009093Y026731D01*
X009388Y026601D02*
X009388Y026558D01*
X009431Y026558D01*
X009431Y026601D01*
X009388Y026601D01*
X009535Y026601D02*
X009579Y026558D01*
X009665Y026558D01*
X009709Y026601D01*
X009709Y026688D01*
X009665Y026731D01*
X009622Y026731D01*
X009535Y026688D01*
X009535Y026818D01*
X009709Y026818D01*
X009830Y026818D02*
X009830Y026558D01*
X009830Y026644D02*
X009960Y026731D01*
X009830Y026644D02*
X009960Y026558D01*
X010130Y026558D02*
X010174Y026602D01*
X010217Y026602D01*
X010260Y026558D01*
X010304Y026602D01*
X010347Y026602D01*
X010391Y026558D01*
X010391Y026472D01*
X010347Y026428D01*
X010260Y026515D02*
X010260Y026558D01*
X010130Y026558D02*
X010130Y026472D01*
X010174Y026428D01*
X010174Y026307D02*
X010260Y026307D01*
X010304Y026264D01*
X010304Y026134D01*
X010304Y026220D02*
X010391Y026307D01*
X010391Y026134D02*
X010130Y026134D01*
X010130Y026264D01*
X010174Y026307D01*
X010174Y025986D02*
X010130Y025943D01*
X010130Y025856D01*
X010174Y025813D01*
X010217Y025813D01*
X010260Y025856D01*
X010260Y025986D01*
X010174Y025986D02*
X010347Y025986D01*
X010391Y025943D01*
X010391Y025856D01*
X010347Y025813D01*
X010391Y025692D02*
X010391Y025518D01*
X010217Y025692D01*
X010174Y025692D01*
X010130Y025648D01*
X010130Y025562D01*
X010174Y025518D01*
X010174Y025397D02*
X010130Y025354D01*
X010130Y025267D01*
X010174Y025224D01*
X010347Y025224D01*
X010391Y025267D01*
X010391Y025354D01*
X010347Y025397D01*
X010144Y025048D02*
X009971Y025048D01*
X009971Y024788D01*
X009850Y024788D02*
X009850Y024961D01*
X009971Y024918D02*
X010058Y024918D01*
X009850Y024788D02*
X009720Y024788D01*
X009676Y024831D01*
X009676Y024961D01*
X009555Y024961D02*
X009555Y025004D01*
X009512Y025048D01*
X009425Y025048D01*
X009382Y025004D01*
X009407Y025151D02*
X009644Y025151D01*
X009555Y024961D02*
X009382Y024788D01*
X009555Y024788D01*
X009278Y024788D02*
X009234Y024788D01*
X009234Y024831D01*
X009278Y024831D01*
X009278Y024788D01*
X009113Y024788D02*
X008940Y024788D01*
X009113Y024961D01*
X009113Y025004D01*
X009070Y025048D01*
X008983Y025048D01*
X008940Y025004D01*
X008565Y024968D02*
X008445Y024888D01*
X008565Y024808D01*
X008445Y024808D02*
X008445Y025049D01*
X008329Y025049D02*
X008249Y025009D01*
X008169Y024928D01*
X008289Y024928D01*
X008329Y024888D01*
X008329Y024848D01*
X008289Y024808D01*
X008209Y024808D01*
X008169Y024848D01*
X008169Y024928D01*
X008053Y024928D02*
X008053Y024848D01*
X008013Y024808D01*
X007932Y024808D01*
X007892Y024848D01*
X007892Y024928D02*
X007973Y024968D01*
X008013Y024968D01*
X008053Y024928D01*
X008053Y025049D02*
X007892Y025049D01*
X007892Y024928D01*
X008084Y025132D02*
X008321Y025132D01*
X008324Y024644D02*
X008087Y024644D01*
X008084Y025605D02*
X008321Y025605D01*
X008314Y025951D02*
X008077Y025951D01*
X008077Y026424D02*
X008314Y026424D01*
X008695Y027288D02*
X008615Y027368D01*
X008856Y027368D01*
X008856Y027288D02*
X008856Y027448D01*
X008816Y027564D02*
X008655Y027724D01*
X008816Y027724D01*
X008856Y027684D01*
X008856Y027604D01*
X008816Y027564D01*
X008655Y027564D01*
X008615Y027604D01*
X008615Y027684D01*
X008655Y027724D01*
X008695Y027840D02*
X008695Y027960D01*
X008735Y028000D01*
X008856Y028000D01*
X008856Y028116D02*
X008615Y028116D01*
X008615Y028276D01*
X008735Y028196D02*
X008735Y028116D01*
X008695Y027840D02*
X008856Y027840D01*
X009030Y027834D02*
X009271Y027834D01*
X009271Y027754D02*
X009271Y027914D01*
X009389Y027866D02*
X009389Y027630D01*
X009271Y027598D02*
X009231Y027638D01*
X009271Y027598D02*
X009271Y027518D01*
X009231Y027478D01*
X009070Y027478D01*
X009030Y027518D01*
X009030Y027598D01*
X009070Y027638D01*
X009110Y027754D02*
X009030Y027834D01*
X009150Y028030D02*
X009030Y028150D01*
X009271Y028150D01*
X009150Y028190D02*
X009150Y028030D01*
X008522Y027876D02*
X008522Y027640D01*
X008049Y027640D02*
X008049Y027876D01*
X007931Y027924D02*
X007931Y027764D01*
X007770Y027924D01*
X007730Y027924D01*
X007690Y027884D01*
X007690Y027804D01*
X007730Y027764D01*
X007730Y027648D02*
X007690Y027608D01*
X007690Y027528D01*
X007730Y027488D01*
X007891Y027488D01*
X007931Y027528D01*
X007931Y027608D01*
X007891Y027648D01*
X007891Y028040D02*
X007931Y028080D01*
X007931Y028160D01*
X007891Y028200D01*
X007810Y028200D01*
X007770Y028160D01*
X007770Y028120D01*
X007810Y028040D01*
X007690Y028040D01*
X007690Y028200D01*
X009397Y026434D02*
X009634Y026434D01*
X009634Y025961D02*
X009397Y025961D01*
X009407Y025624D02*
X009644Y025624D01*
X010217Y026723D02*
X010130Y026810D01*
X010391Y026810D01*
X010391Y026896D02*
X010391Y026723D01*
X010206Y027143D02*
X010206Y027303D01*
X010206Y027223D02*
X009965Y027223D01*
X010045Y027143D01*
X010005Y027419D02*
X009965Y027459D01*
X009965Y027539D01*
X010005Y027579D01*
X010166Y027419D01*
X010206Y027459D01*
X010206Y027539D01*
X010166Y027579D01*
X010005Y027579D01*
X010045Y027695D02*
X010166Y027695D01*
X010206Y027735D01*
X010206Y027855D01*
X010045Y027855D01*
X010085Y027971D02*
X010085Y028051D01*
X009965Y027971D02*
X009965Y028131D01*
X009965Y027971D02*
X010206Y027971D01*
X010240Y027924D02*
X010481Y027924D01*
X010481Y027844D02*
X010481Y028004D01*
X010569Y027866D02*
X010569Y027630D01*
X010481Y027568D02*
X010240Y027568D01*
X010240Y027688D01*
X010280Y027728D01*
X010360Y027728D01*
X010400Y027688D01*
X010400Y027568D01*
X010400Y027648D02*
X010481Y027728D01*
X010320Y027844D02*
X010240Y027924D01*
X010360Y028120D02*
X010360Y028280D01*
X010240Y028240D02*
X010360Y028120D01*
X010240Y028240D02*
X010481Y028240D01*
X011042Y027866D02*
X011042Y027630D01*
X011145Y027487D02*
X011386Y027487D01*
X011305Y027487D02*
X011225Y027608D01*
X011310Y027718D02*
X011350Y027678D01*
X011511Y027678D01*
X011551Y027718D01*
X011551Y027798D01*
X011511Y027838D01*
X011551Y027954D02*
X011390Y028114D01*
X011350Y028114D01*
X011310Y028074D01*
X011310Y027994D01*
X011350Y027954D01*
X011350Y027838D02*
X011310Y027798D01*
X011310Y027718D01*
X011386Y027608D02*
X011305Y027487D01*
X011265Y027371D02*
X011346Y027371D01*
X011386Y027331D01*
X011386Y027251D01*
X011346Y027211D01*
X011265Y027211D02*
X011225Y027291D01*
X011225Y027331D01*
X011265Y027371D01*
X011145Y027371D02*
X011145Y027211D01*
X011265Y027211D01*
X011346Y027113D02*
X011386Y027113D01*
X011386Y027073D01*
X011346Y027073D01*
X011346Y027113D01*
X011386Y026957D02*
X011386Y026797D01*
X011386Y026877D02*
X011145Y026877D01*
X011225Y026797D01*
X011587Y026878D02*
X011747Y026878D01*
X011667Y026878D02*
X011667Y027118D01*
X011587Y027038D01*
X011863Y027038D02*
X011863Y026878D01*
X011863Y027038D02*
X011983Y027038D01*
X012023Y026998D01*
X012023Y026878D01*
X012139Y026878D02*
X012139Y027118D01*
X012299Y027118D01*
X012290Y027168D02*
X012451Y027168D01*
X012491Y027208D01*
X012491Y027288D01*
X012451Y027328D01*
X012491Y027444D02*
X012330Y027604D01*
X012290Y027604D01*
X012250Y027564D01*
X012250Y027484D01*
X012290Y027444D01*
X012290Y027328D02*
X012250Y027288D01*
X012250Y027208D01*
X012290Y027168D01*
X012219Y026998D02*
X012139Y026998D01*
X012491Y027444D02*
X012491Y027604D01*
X012491Y027720D02*
X012491Y027880D01*
X012491Y027800D02*
X012250Y027800D01*
X012330Y027720D01*
X012112Y027630D02*
X012112Y027866D01*
X011639Y027866D02*
X011639Y027630D01*
X011551Y027954D02*
X011551Y028114D01*
X011430Y028230D02*
X011430Y028390D01*
X011310Y028350D02*
X011430Y028230D01*
X011310Y028350D02*
X011551Y028350D01*
X011616Y028658D02*
X011716Y028658D01*
X011616Y028658D02*
X011616Y028758D01*
X011616Y029158D02*
X011616Y029258D01*
X011716Y029258D01*
X012116Y029258D02*
X012216Y029258D01*
X012216Y029158D01*
X012385Y029167D02*
X012546Y029167D01*
X012546Y029047D01*
X012506Y029007D01*
X012385Y029007D01*
X012425Y028891D02*
X012385Y028851D01*
X012385Y028771D01*
X012425Y028731D01*
X012506Y028731D01*
X012546Y028771D01*
X012546Y028851D01*
X012506Y028891D01*
X012425Y028891D01*
X012216Y028758D02*
X012216Y028658D01*
X012116Y028658D01*
X012305Y028627D02*
X012305Y028547D01*
X012305Y028587D02*
X012546Y028587D01*
X012546Y028547D02*
X012546Y028627D01*
X012385Y029283D02*
X012385Y029364D01*
X012345Y029323D02*
X012506Y029323D01*
X012546Y029364D01*
X013400Y028200D02*
X013360Y028160D01*
X013360Y028080D01*
X013400Y028040D01*
X013400Y028200D02*
X013440Y028200D01*
X013601Y028040D01*
X013601Y028200D01*
X013601Y027924D02*
X013601Y027764D01*
X013601Y027844D02*
X013360Y027844D01*
X013440Y027764D01*
X013400Y027648D02*
X013360Y027608D01*
X013360Y027528D01*
X013400Y027488D01*
X013561Y027488D01*
X013601Y027528D01*
X013601Y027608D01*
X013561Y027648D01*
X013719Y027640D02*
X013719Y027876D01*
X014192Y027876D02*
X014192Y027640D01*
X014017Y027058D02*
X013937Y026978D01*
X014017Y027058D02*
X014017Y026818D01*
X013937Y026818D02*
X014097Y026818D01*
X014213Y026858D02*
X014253Y026818D01*
X014373Y026818D01*
X014373Y026978D01*
X014489Y026938D02*
X014569Y026938D01*
X014489Y027058D02*
X014649Y027058D01*
X014489Y027058D02*
X014489Y026818D01*
X014213Y026858D02*
X014213Y026978D01*
X013839Y026858D02*
X013839Y026818D01*
X013799Y026818D01*
X013799Y026858D01*
X013839Y026858D01*
X013683Y026858D02*
X013683Y027018D01*
X013522Y026858D01*
X013562Y026818D01*
X013643Y026818D01*
X013683Y026858D01*
X013683Y027018D02*
X013643Y027058D01*
X013562Y027058D01*
X013522Y027018D01*
X013522Y026858D01*
X013136Y026815D02*
X012975Y026815D01*
X013015Y026931D02*
X013015Y027011D01*
X012895Y026931D02*
X013136Y026931D01*
X013136Y026815D02*
X013136Y026695D01*
X013096Y026655D01*
X012975Y026655D01*
X013136Y026539D02*
X013136Y026379D01*
X013136Y026459D02*
X012895Y026459D01*
X012975Y026379D01*
X013096Y026281D02*
X013136Y026281D01*
X013136Y026241D01*
X013096Y026241D01*
X013096Y026281D01*
X013096Y026125D02*
X012935Y026125D01*
X013096Y025965D01*
X013136Y026005D01*
X013136Y026085D01*
X013096Y026125D01*
X013096Y025965D02*
X012935Y025965D01*
X012895Y026005D01*
X012895Y026085D01*
X012935Y026125D01*
X012895Y026931D02*
X012895Y027091D01*
X013092Y027640D02*
X013092Y027876D01*
X012619Y027876D02*
X012619Y027640D01*
X014819Y027640D02*
X014819Y027876D01*
X015292Y027876D02*
X015292Y027640D01*
X015395Y027609D02*
X015636Y027609D01*
X015636Y027529D02*
X015636Y027689D01*
X015596Y027805D02*
X015636Y027845D01*
X015636Y027965D01*
X015475Y027965D01*
X015515Y028081D02*
X015515Y028161D01*
X015395Y028081D02*
X015636Y028081D01*
X015395Y028081D02*
X015395Y028241D01*
X015448Y028383D02*
X015408Y028423D01*
X015448Y028383D02*
X015528Y028383D01*
X015568Y028423D01*
X015568Y028463D01*
X015528Y028503D01*
X015488Y028503D01*
X015528Y028503D02*
X015568Y028543D01*
X015568Y028583D01*
X015528Y028623D01*
X015448Y028623D01*
X015408Y028583D01*
X015292Y028583D02*
X015252Y028623D01*
X015172Y028623D01*
X015132Y028583D01*
X015016Y028583D02*
X014976Y028623D01*
X014896Y028623D01*
X014856Y028583D01*
X014856Y028423D01*
X014896Y028383D01*
X014976Y028383D01*
X015016Y028423D01*
X015132Y028383D02*
X015292Y028543D01*
X015292Y028583D01*
X015292Y028383D02*
X015132Y028383D01*
X015475Y027805D02*
X015596Y027805D01*
X015395Y027609D02*
X015475Y027529D01*
X015596Y027431D02*
X015636Y027431D01*
X015636Y027391D01*
X015596Y027391D01*
X015596Y027431D01*
X015596Y027275D02*
X015636Y027235D01*
X015636Y027155D01*
X015596Y027115D01*
X015435Y027275D01*
X015596Y027275D01*
X015596Y027115D02*
X015435Y027115D01*
X015395Y027155D01*
X015395Y027235D01*
X015435Y027275D01*
X015969Y027640D02*
X015969Y027876D01*
X016442Y027876D02*
X016442Y027640D01*
X016565Y027739D02*
X016565Y027819D01*
X016605Y027859D01*
X016645Y027859D01*
X016685Y027819D01*
X016725Y027859D01*
X016766Y027859D01*
X016806Y027819D01*
X016806Y027739D01*
X016766Y027699D01*
X016685Y027779D02*
X016685Y027819D01*
X016605Y027699D02*
X016565Y027739D01*
X016605Y027975D02*
X016565Y028015D01*
X016565Y028095D01*
X016605Y028135D01*
X016645Y028135D01*
X016685Y028095D01*
X016725Y028135D01*
X016766Y028135D01*
X016806Y028095D01*
X016806Y028015D01*
X016766Y027975D01*
X016685Y028055D02*
X016685Y028095D01*
X016605Y028251D02*
X016565Y028291D01*
X016565Y028371D01*
X016605Y028411D01*
X016766Y028251D01*
X016806Y028291D01*
X016806Y028371D01*
X016766Y028411D01*
X016605Y028411D01*
X016605Y028251D02*
X016766Y028251D01*
X016432Y028393D02*
X016272Y028393D01*
X016432Y028553D01*
X016432Y028593D01*
X016392Y028633D01*
X016312Y028633D01*
X016272Y028593D01*
X016156Y028593D02*
X016116Y028633D01*
X015996Y028633D01*
X015996Y028393D01*
X015996Y028473D02*
X016116Y028473D01*
X016156Y028513D01*
X016156Y028593D01*
X016076Y028473D02*
X016156Y028393D01*
X016355Y026513D02*
X016355Y026353D01*
X016355Y026433D02*
X016596Y026433D01*
X016596Y026236D02*
X016596Y026076D01*
X016355Y026076D01*
X016355Y026236D01*
X016475Y026156D02*
X016475Y026076D01*
X016515Y025960D02*
X016556Y025960D01*
X016596Y025920D01*
X016596Y025840D01*
X016556Y025800D01*
X016475Y025840D02*
X016475Y025920D01*
X016515Y025960D01*
X016395Y025960D02*
X016355Y025920D01*
X016355Y025840D01*
X016395Y025800D01*
X016435Y025800D01*
X016475Y025840D01*
X016355Y025684D02*
X016355Y025524D01*
X016596Y025524D01*
X016596Y025684D01*
X016475Y025604D02*
X016475Y025524D01*
X016475Y025408D02*
X016515Y025368D01*
X016515Y025248D01*
X016515Y025328D02*
X016596Y025408D01*
X016475Y025408D02*
X016395Y025408D01*
X016355Y025368D01*
X016355Y025248D01*
X016596Y025248D01*
X015061Y023480D02*
X015061Y023280D01*
X015021Y023240D01*
X014941Y023240D01*
X014901Y023280D01*
X014901Y023480D01*
X014784Y023400D02*
X014784Y023240D01*
X014784Y023360D02*
X014624Y023360D01*
X014624Y023400D02*
X014704Y023480D01*
X014784Y023400D01*
X014624Y023400D02*
X014624Y023240D01*
X014508Y023360D02*
X014348Y023360D01*
X014232Y023320D02*
X014192Y023360D01*
X014072Y023360D01*
X014072Y023280D01*
X014112Y023240D01*
X014192Y023240D01*
X014232Y023280D01*
X014232Y023320D01*
X014152Y023440D02*
X014072Y023360D01*
X014152Y023440D02*
X014232Y023480D01*
X013956Y023480D02*
X013796Y023480D01*
X013796Y023360D01*
X013876Y023400D01*
X013916Y023400D01*
X013956Y023360D01*
X013956Y023280D01*
X013916Y023240D01*
X013836Y023240D01*
X013796Y023280D01*
X013680Y023240D02*
X013519Y023240D01*
X013680Y023400D01*
X013680Y023440D01*
X013640Y023480D01*
X013559Y023480D01*
X013519Y023440D01*
X013403Y023480D02*
X013243Y023240D01*
X013403Y023240D02*
X013243Y023480D01*
X013127Y023480D02*
X013127Y023440D01*
X012967Y023280D01*
X012967Y023240D01*
X012851Y023240D02*
X012851Y023480D01*
X012771Y023400D01*
X012691Y023480D01*
X012691Y023240D01*
X012575Y023240D02*
X012575Y023400D01*
X012495Y023480D01*
X012415Y023400D01*
X012415Y023240D01*
X012415Y023360D02*
X012575Y023360D01*
X012299Y023320D02*
X012299Y023280D01*
X012258Y023240D01*
X012178Y023240D01*
X012138Y023280D01*
X012178Y023360D02*
X012258Y023360D01*
X012299Y023320D01*
X012299Y023440D02*
X012258Y023480D01*
X012178Y023480D01*
X012138Y023440D01*
X012138Y023400D01*
X012178Y023360D01*
X012022Y023240D02*
X011862Y023240D01*
X011942Y023240D02*
X011942Y023480D01*
X011862Y023400D01*
X011746Y023360D02*
X011626Y023360D01*
X011586Y023400D01*
X011586Y023440D01*
X011626Y023480D01*
X011706Y023480D01*
X011746Y023440D01*
X011746Y023280D01*
X011706Y023240D01*
X011626Y023240D01*
X011586Y023280D01*
X011390Y023240D02*
X011390Y023480D01*
X011310Y023480D02*
X011470Y023480D01*
X011194Y023400D02*
X011194Y023240D01*
X011194Y023360D02*
X011034Y023360D01*
X011034Y023400D02*
X011114Y023480D01*
X011194Y023400D01*
X011034Y023400D02*
X011034Y023240D01*
X012678Y023728D02*
X012758Y023728D01*
X012718Y023728D02*
X012718Y023968D01*
X012678Y023968D02*
X012758Y023968D01*
X012862Y023928D02*
X012862Y023768D01*
X012902Y023728D01*
X012982Y023728D01*
X013022Y023768D01*
X013138Y023728D02*
X013298Y023728D01*
X013218Y023728D02*
X013218Y023968D01*
X013138Y023888D01*
X013022Y023928D02*
X012982Y023968D01*
X012902Y023968D01*
X012862Y023928D01*
X012967Y023480D02*
X013127Y023480D01*
X010166Y027419D02*
X010005Y027419D01*
X009862Y027630D02*
X009862Y027866D01*
X006206Y023808D02*
X005956Y023808D01*
X005706Y023808D01*
X005706Y023658D02*
X005706Y023458D01*
X006206Y023458D01*
X006206Y023658D01*
X005706Y023658D01*
X005706Y023308D02*
X005956Y023308D01*
X006206Y023308D01*
X004686Y023373D02*
X004525Y023533D01*
X004485Y023533D01*
X004445Y023493D01*
X004445Y023413D01*
X004485Y023373D01*
X004485Y023257D02*
X004525Y023257D01*
X004565Y023216D01*
X004605Y023257D01*
X004646Y023257D01*
X004686Y023216D01*
X004686Y023136D01*
X004646Y023096D01*
X004565Y023176D02*
X004565Y023216D01*
X004485Y023257D02*
X004445Y023216D01*
X004445Y023136D01*
X004485Y023096D01*
X004565Y022980D02*
X004565Y022820D01*
X004445Y022940D01*
X004686Y022940D01*
X004686Y022722D02*
X004686Y022682D01*
X004646Y022682D01*
X004646Y022722D01*
X004686Y022722D01*
X004646Y022566D02*
X004686Y022526D01*
X004686Y022446D01*
X004646Y022406D01*
X004605Y022406D01*
X004565Y022446D01*
X004565Y022526D01*
X004605Y022566D01*
X004646Y022566D01*
X004565Y022526D02*
X004525Y022566D01*
X004485Y022566D01*
X004445Y022526D01*
X004445Y022446D01*
X004485Y022406D01*
X004525Y022406D01*
X004565Y022446D01*
X004686Y022290D02*
X004686Y022130D01*
X004686Y022210D02*
X004445Y022210D01*
X004525Y022130D01*
X004060Y021781D02*
X003930Y021694D01*
X004060Y021608D01*
X003930Y021608D02*
X003930Y021868D01*
X003809Y021868D02*
X003809Y021824D01*
X003635Y021651D01*
X003635Y021608D01*
X003471Y021608D02*
X003471Y021868D01*
X003341Y021738D01*
X003514Y021738D01*
X003635Y021868D02*
X003809Y021868D01*
X003914Y021991D02*
X003677Y021991D01*
X003677Y022464D02*
X003914Y022464D01*
X003900Y022583D02*
X003726Y022583D01*
X003900Y022756D01*
X003900Y022799D01*
X003856Y022843D01*
X003770Y022843D01*
X003726Y022799D01*
X003605Y022799D02*
X003605Y022713D01*
X003562Y022669D01*
X003432Y022669D01*
X003518Y022669D02*
X003605Y022583D01*
X003432Y022583D02*
X003432Y022843D01*
X003562Y022843D01*
X003605Y022799D01*
X004021Y022799D02*
X004064Y022843D01*
X004151Y022843D01*
X004194Y022799D01*
X004194Y022756D01*
X004151Y022713D01*
X004064Y022713D01*
X004021Y022756D01*
X004021Y022799D01*
X004064Y022713D02*
X004021Y022669D01*
X004021Y022626D01*
X004064Y022583D01*
X004151Y022583D01*
X004194Y022626D01*
X004194Y022669D01*
X004151Y022713D01*
X004686Y023373D02*
X004686Y023533D01*
X004686Y023649D02*
X004445Y023649D01*
X004525Y023729D01*
X004445Y023809D01*
X004686Y023809D01*
X004686Y023925D02*
X004445Y023925D01*
X004565Y023925D02*
X004565Y024085D01*
X004445Y024085D02*
X004686Y024085D01*
X004686Y024201D02*
X004525Y024361D01*
X004525Y024201D01*
X004686Y024201D02*
X004686Y024361D01*
X004010Y024888D02*
X004010Y025148D01*
X003880Y025018D01*
X004054Y025018D01*
X003759Y025104D02*
X003759Y024931D01*
X003716Y024888D01*
X003629Y024888D01*
X003586Y024931D01*
X003586Y025104D01*
X003629Y025148D01*
X003716Y025148D01*
X003759Y025104D01*
X003672Y024974D02*
X003759Y024888D01*
X003769Y025538D02*
X003682Y025624D01*
X003639Y025538D02*
X003596Y025581D01*
X003596Y025754D01*
X003639Y025798D01*
X003726Y025798D01*
X003769Y025754D01*
X003769Y025581D01*
X003726Y025538D01*
X003639Y025538D01*
X003890Y025581D02*
X003934Y025538D01*
X004020Y025538D01*
X004064Y025581D01*
X004064Y025624D01*
X004020Y025668D01*
X003890Y025668D01*
X003890Y025581D01*
X003890Y025668D02*
X003977Y025754D01*
X004064Y025798D01*
X005006Y025708D02*
X005006Y021408D01*
X005008Y021391D01*
X005012Y021374D01*
X005019Y021358D01*
X005029Y021344D01*
X005042Y021331D01*
X005056Y021321D01*
X005072Y021314D01*
X005089Y021310D01*
X005106Y021308D01*
X005506Y021308D01*
X003106Y022678D02*
X002845Y022678D01*
X002932Y022764D01*
X002845Y022851D01*
X003106Y022851D01*
X003106Y022972D02*
X002845Y022972D01*
X002932Y023059D01*
X002845Y023146D01*
X003106Y023146D01*
X002651Y022688D02*
X002390Y022688D01*
X005006Y025708D02*
X005008Y025725D01*
X005012Y025742D01*
X005019Y025758D01*
X005029Y025772D01*
X005042Y025785D01*
X005056Y025795D01*
X005072Y025802D01*
X005089Y025806D01*
X005106Y025808D01*
X005506Y025808D01*
X005356Y025958D02*
X005195Y025958D01*
X005155Y025998D01*
X005155Y026078D01*
X005195Y026118D01*
X005356Y026118D01*
X005396Y026078D01*
X005396Y025998D01*
X005356Y025958D01*
X005315Y026038D02*
X005396Y026118D01*
X005396Y026234D02*
X005235Y026394D01*
X005195Y026394D01*
X005155Y026354D01*
X005155Y026274D01*
X005195Y026234D01*
X005396Y026234D02*
X005396Y026394D01*
X000356Y028358D02*
X000358Y028431D01*
X000364Y028504D01*
X000374Y028576D01*
X000388Y028648D01*
X000405Y028719D01*
X000427Y028789D01*
X000452Y028858D01*
X000481Y028925D01*
X000513Y028990D01*
X000549Y029054D01*
X000589Y029116D01*
X000631Y029175D01*
X000677Y029232D01*
X000726Y029286D01*
X000778Y029338D01*
X000832Y029387D01*
X000889Y029433D01*
X000948Y029475D01*
X001010Y029515D01*
X001074Y029551D01*
X001139Y029583D01*
X001206Y029612D01*
X001275Y029637D01*
X001345Y029659D01*
X001416Y029676D01*
X001488Y029690D01*
X001560Y029700D01*
X001633Y029706D01*
X001706Y029708D01*
X001779Y029706D01*
X001852Y029700D01*
X001924Y029690D01*
X001996Y029676D01*
X002067Y029659D01*
X002137Y029637D01*
X002206Y029612D01*
X002273Y029583D01*
X002338Y029551D01*
X002402Y029515D01*
X002464Y029475D01*
X002523Y029433D01*
X002580Y029387D01*
X002634Y029338D01*
X002686Y029286D01*
X002735Y029232D01*
X002781Y029175D01*
X002823Y029116D01*
X002863Y029054D01*
X002899Y028990D01*
X002931Y028925D01*
X002960Y028858D01*
X002985Y028789D01*
X003007Y028719D01*
X003024Y028648D01*
X003038Y028576D01*
X003048Y028504D01*
X003054Y028431D01*
X003056Y028358D01*
X003054Y028285D01*
X003048Y028212D01*
X003038Y028140D01*
X003024Y028068D01*
X003007Y027997D01*
X002985Y027927D01*
X002960Y027858D01*
X002931Y027791D01*
X002899Y027726D01*
X002863Y027662D01*
X002823Y027600D01*
X002781Y027541D01*
X002735Y027484D01*
X002686Y027430D01*
X002634Y027378D01*
X002580Y027329D01*
X002523Y027283D01*
X002464Y027241D01*
X002402Y027201D01*
X002338Y027165D01*
X002273Y027133D01*
X002206Y027104D01*
X002137Y027079D01*
X002067Y027057D01*
X001996Y027040D01*
X001924Y027026D01*
X001852Y027016D01*
X001779Y027010D01*
X001706Y027008D01*
X001633Y027010D01*
X001560Y027016D01*
X001488Y027026D01*
X001416Y027040D01*
X001345Y027057D01*
X001275Y027079D01*
X001206Y027104D01*
X001139Y027133D01*
X001074Y027165D01*
X001010Y027201D01*
X000948Y027241D01*
X000889Y027283D01*
X000832Y027329D01*
X000778Y027378D01*
X000726Y027430D01*
X000677Y027484D01*
X000631Y027541D01*
X000589Y027600D01*
X000549Y027662D01*
X000513Y027726D01*
X000481Y027791D01*
X000452Y027858D01*
X000427Y027927D01*
X000405Y027997D01*
X000388Y028068D01*
X000374Y028140D01*
X000364Y028212D01*
X000358Y028285D01*
X000356Y028358D01*
X010872Y015618D02*
X010953Y015618D01*
X010993Y015578D01*
X010832Y015418D01*
X010872Y015378D01*
X010953Y015378D01*
X010993Y015418D01*
X010993Y015578D01*
X010872Y015618D02*
X010832Y015578D01*
X010832Y015418D01*
X011109Y015418D02*
X011149Y015418D01*
X011149Y015378D01*
X011109Y015378D01*
X011109Y015418D01*
X011247Y015378D02*
X011407Y015378D01*
X011327Y015378D02*
X011327Y015618D01*
X011247Y015538D01*
X011523Y015538D02*
X011523Y015418D01*
X011563Y015378D01*
X011683Y015378D01*
X011683Y015538D01*
X011799Y015498D02*
X011879Y015498D01*
X011799Y015618D02*
X011959Y015618D01*
X011799Y015618D02*
X011799Y015378D01*
X011311Y015888D02*
X011351Y015928D01*
X011351Y016008D01*
X011311Y016048D01*
X011351Y016164D02*
X011351Y016324D01*
X011351Y016244D02*
X011110Y016244D01*
X011190Y016164D01*
X011150Y016048D02*
X011110Y016008D01*
X011110Y015928D01*
X011150Y015888D01*
X011311Y015888D01*
X011469Y016140D02*
X011469Y016376D01*
X011351Y016480D02*
X011311Y016440D01*
X011150Y016600D01*
X011311Y016600D01*
X011351Y016560D01*
X011351Y016480D01*
X011311Y016440D02*
X011150Y016440D01*
X011110Y016480D01*
X011110Y016560D01*
X011150Y016600D01*
X011942Y016376D02*
X011942Y016140D01*
X012210Y016149D02*
X012250Y016109D01*
X012411Y016109D01*
X012451Y016149D01*
X012451Y016229D01*
X012411Y016269D01*
X012451Y016385D02*
X012451Y016545D01*
X012451Y016465D02*
X012210Y016465D01*
X012290Y016385D01*
X012250Y016269D02*
X012210Y016229D01*
X012210Y016149D01*
X012569Y016140D02*
X012569Y016376D01*
X012451Y016661D02*
X012411Y016661D01*
X012250Y016821D01*
X012210Y016821D01*
X012210Y016661D01*
X013042Y016376D02*
X013042Y016140D01*
X013175Y016179D02*
X013215Y016219D01*
X013376Y016059D01*
X013416Y016099D01*
X013416Y016179D01*
X013376Y016219D01*
X013215Y016219D01*
X013175Y016179D02*
X013175Y016099D01*
X013215Y016059D01*
X013376Y016059D01*
X013416Y015943D02*
X013416Y015783D01*
X013416Y015863D02*
X013175Y015863D01*
X013255Y015783D01*
X013432Y015628D02*
X013513Y015628D01*
X013553Y015588D01*
X013392Y015428D01*
X013432Y015388D01*
X013513Y015388D01*
X013553Y015428D01*
X013553Y015588D01*
X013432Y015628D02*
X013392Y015588D01*
X013392Y015428D01*
X013669Y015428D02*
X013709Y015428D01*
X013709Y015388D01*
X013669Y015388D01*
X013669Y015428D01*
X013807Y015388D02*
X013967Y015388D01*
X013887Y015388D02*
X013887Y015628D01*
X013807Y015548D01*
X014083Y015548D02*
X014083Y015428D01*
X014123Y015388D01*
X014243Y015388D01*
X014243Y015548D01*
X014359Y015508D02*
X014439Y015508D01*
X014359Y015628D02*
X014519Y015628D01*
X014359Y015628D02*
X014359Y015388D01*
X014142Y016140D02*
X014142Y016376D01*
X014072Y016863D02*
X013912Y016863D01*
X013992Y016863D02*
X013992Y017103D01*
X013912Y017023D01*
X013796Y017063D02*
X013756Y017103D01*
X013676Y017103D01*
X013636Y017063D01*
X013636Y016903D01*
X013676Y016863D01*
X013756Y016863D01*
X013796Y016903D01*
X014188Y016903D02*
X014228Y016863D01*
X014308Y016863D01*
X014348Y016903D01*
X014348Y017063D01*
X014308Y017103D01*
X014228Y017103D01*
X014188Y017063D01*
X014188Y017023D01*
X014228Y016983D01*
X014348Y016983D01*
X013669Y016376D02*
X013669Y016140D01*
X013416Y016375D02*
X013416Y016495D01*
X013255Y016495D01*
X013295Y016611D02*
X013295Y016691D01*
X013175Y016611D02*
X013175Y016771D01*
X013175Y016611D02*
X013416Y016611D01*
X013416Y016375D02*
X013376Y016335D01*
X013255Y016335D01*
X013058Y014103D02*
X013098Y014063D01*
X013098Y014023D01*
X013058Y013983D01*
X013098Y013943D01*
X013098Y013903D01*
X013058Y013863D01*
X012978Y013863D01*
X012938Y013903D01*
X013018Y013983D02*
X013058Y013983D01*
X013058Y014103D02*
X012978Y014103D01*
X012938Y014063D01*
X012822Y014063D02*
X012782Y014103D01*
X012702Y014103D01*
X012662Y014063D01*
X012546Y014063D02*
X012546Y013983D01*
X012506Y013943D01*
X012386Y013943D01*
X012466Y013943D02*
X012546Y013863D01*
X012662Y013863D02*
X012822Y014023D01*
X012822Y014063D01*
X012822Y013863D02*
X012662Y013863D01*
X012774Y013744D02*
X012537Y013744D01*
X012386Y013863D02*
X012386Y014103D01*
X012506Y014103D01*
X012546Y014063D01*
X012537Y013271D02*
X012774Y013271D01*
X012849Y013128D02*
X012929Y013128D01*
X012969Y013088D01*
X012809Y012928D01*
X012849Y012888D01*
X012929Y012888D01*
X012969Y012928D01*
X012969Y013088D01*
X012849Y013128D02*
X012809Y013088D01*
X012809Y012928D01*
X012693Y012928D02*
X012693Y012968D01*
X012653Y013008D01*
X012613Y013008D01*
X012653Y013008D02*
X012693Y013048D01*
X012693Y013088D01*
X012653Y013128D01*
X012573Y013128D01*
X012533Y013088D01*
X012417Y013088D02*
X012417Y013048D01*
X012377Y013008D01*
X012417Y012968D01*
X012417Y012928D01*
X012377Y012888D01*
X012297Y012888D01*
X012257Y012928D01*
X012337Y013008D02*
X012377Y013008D01*
X012417Y013088D02*
X012377Y013128D01*
X012297Y013128D01*
X012257Y013088D01*
X012533Y012928D02*
X012573Y012888D01*
X012653Y012888D01*
X012693Y012928D01*
X013753Y012888D02*
X013913Y012888D01*
X013833Y012888D02*
X013833Y013128D01*
X013753Y013048D01*
X014029Y013088D02*
X014029Y012928D01*
X014189Y013088D01*
X014189Y012928D01*
X014149Y012888D01*
X014069Y012888D01*
X014029Y012928D01*
X014029Y013088D02*
X014069Y013128D01*
X014149Y013128D01*
X014189Y013088D01*
X014305Y013128D02*
X014305Y012888D01*
X014305Y012968D02*
X014425Y012888D01*
X014305Y012968D02*
X014425Y013048D01*
X014174Y013271D02*
X013937Y013271D01*
X013937Y013744D02*
X014174Y013744D01*
X014222Y013863D02*
X014062Y013863D01*
X014222Y014023D01*
X014222Y014063D01*
X014182Y014103D01*
X014102Y014103D01*
X014062Y014063D01*
X013946Y014063D02*
X013946Y013983D01*
X013906Y013943D01*
X013786Y013943D01*
X013866Y013943D02*
X013946Y013863D01*
X013786Y013863D02*
X013786Y014103D01*
X013906Y014103D01*
X013946Y014063D01*
X014338Y014063D02*
X014378Y014103D01*
X014458Y014103D01*
X014498Y014063D01*
X014498Y014023D01*
X014338Y013863D01*
X014498Y013863D01*
X015236Y013863D02*
X015236Y014103D01*
X015356Y014103D01*
X015396Y014063D01*
X015396Y013983D01*
X015356Y013943D01*
X015236Y013943D01*
X015316Y013943D02*
X015396Y013863D01*
X015512Y013863D02*
X015672Y014023D01*
X015672Y014063D01*
X015632Y014103D01*
X015552Y014103D01*
X015512Y014063D01*
X015512Y013863D02*
X015672Y013863D01*
X015788Y013903D02*
X015948Y014063D01*
X015948Y013903D01*
X015908Y013863D01*
X015828Y013863D01*
X015788Y013903D01*
X015788Y014063D01*
X015828Y014103D01*
X015908Y014103D01*
X015948Y014063D01*
X015624Y013744D02*
X015387Y013744D01*
X015387Y013271D02*
X015624Y013271D01*
X015549Y013128D02*
X015589Y013088D01*
X015429Y012928D01*
X015469Y012888D01*
X015549Y012888D01*
X015589Y012928D01*
X015589Y013088D01*
X015549Y013128D02*
X015469Y013128D01*
X015429Y013088D01*
X015429Y012928D01*
X015313Y012888D02*
X015153Y012888D01*
X015233Y012888D02*
X015233Y013128D01*
X015153Y013048D01*
X015705Y013128D02*
X015705Y012888D01*
X015705Y012968D02*
X015825Y013048D01*
X015705Y012968D02*
X015825Y012888D01*
X016243Y013448D02*
X016363Y013448D01*
X016403Y013488D01*
X016403Y013648D01*
X016363Y013688D01*
X016243Y013688D01*
X016243Y013448D01*
X016519Y013488D02*
X016559Y013448D01*
X016639Y013448D01*
X016679Y013488D01*
X016679Y013568D01*
X016639Y013608D01*
X016599Y013608D01*
X016519Y013568D01*
X016519Y013688D01*
X016679Y013688D01*
X016646Y013818D02*
X016426Y013818D01*
X016426Y014138D01*
X016426Y014918D02*
X016306Y014918D01*
X016306Y015158D01*
X016426Y015158D01*
X016466Y015118D01*
X016466Y015078D01*
X016426Y015038D01*
X016306Y015038D01*
X016426Y015038D02*
X016466Y014998D01*
X016466Y014958D01*
X016426Y014918D01*
X016582Y014918D02*
X016582Y015078D01*
X016662Y015158D01*
X016742Y015078D01*
X016742Y014918D01*
X016742Y015038D02*
X016582Y015038D01*
X016858Y015158D02*
X017018Y015158D01*
X016938Y015158D02*
X016938Y014918D01*
X017134Y014958D02*
X017174Y014918D01*
X017254Y014918D01*
X017294Y014958D01*
X017294Y015038D01*
X017254Y015078D01*
X017214Y015078D01*
X017134Y015038D01*
X017134Y015158D01*
X017294Y015158D01*
X017410Y015038D02*
X017571Y015038D01*
X017530Y014918D02*
X017530Y015158D01*
X017410Y015038D01*
X017687Y015118D02*
X017687Y014958D01*
X017727Y014918D01*
X017807Y014918D01*
X017847Y014958D01*
X017847Y015118D02*
X017807Y015158D01*
X017727Y015158D01*
X017687Y015118D01*
X017546Y014138D02*
X017546Y013818D01*
X017326Y013818D01*
X018696Y013018D02*
X018696Y012698D01*
X018916Y012698D01*
X018891Y012108D02*
X019051Y012108D01*
X018971Y012108D02*
X018971Y011868D01*
X018774Y011868D02*
X018774Y012028D01*
X018694Y012108D01*
X018614Y012028D01*
X018614Y011868D01*
X018614Y011988D02*
X018774Y011988D01*
X018498Y012028D02*
X018458Y011988D01*
X018338Y011988D01*
X018338Y012108D02*
X018458Y012108D01*
X018498Y012068D01*
X018498Y012028D01*
X018458Y011988D02*
X018498Y011948D01*
X018498Y011908D01*
X018458Y011868D01*
X018338Y011868D01*
X018338Y012108D01*
X019167Y012108D02*
X019167Y011988D01*
X019247Y012028D01*
X019287Y012028D01*
X019327Y011988D01*
X019327Y011908D01*
X019287Y011868D01*
X019207Y011868D01*
X019167Y011908D01*
X019167Y012108D02*
X019327Y012108D01*
X019443Y011988D02*
X019603Y011988D01*
X019719Y011988D02*
X019879Y011988D01*
X019879Y012028D02*
X019879Y011868D01*
X019880Y011830D02*
X019920Y011830D01*
X020081Y011670D01*
X020121Y011670D01*
X020121Y011554D02*
X020121Y011394D01*
X019960Y011554D01*
X019920Y011554D01*
X019880Y011514D01*
X019880Y011434D01*
X019920Y011394D01*
X019920Y011278D02*
X020000Y011278D01*
X020040Y011238D01*
X020040Y011118D01*
X020040Y011198D02*
X020121Y011278D01*
X020121Y011118D02*
X019880Y011118D01*
X019880Y011238D01*
X019920Y011278D01*
X019880Y011670D02*
X019880Y011830D01*
X019719Y011868D02*
X019719Y012028D01*
X019799Y012108D01*
X019879Y012028D01*
X019563Y012108D02*
X019563Y011868D01*
X019443Y011988D02*
X019563Y012108D01*
X019596Y012698D02*
X019816Y012698D01*
X019816Y013018D01*
X019582Y013788D02*
X019582Y014028D01*
X019462Y013908D01*
X019622Y013908D01*
X019346Y013988D02*
X019306Y014028D01*
X019186Y014028D01*
X019186Y013788D01*
X019306Y013788D01*
X019346Y013828D01*
X019346Y013988D01*
X020376Y013233D02*
X020496Y013233D01*
X020536Y013193D01*
X020536Y013113D01*
X020496Y013073D01*
X020376Y013073D01*
X020456Y013073D02*
X020536Y012993D01*
X020652Y012993D02*
X020812Y013153D01*
X020812Y013193D01*
X020772Y013233D01*
X020692Y013233D01*
X020652Y013193D01*
X020652Y012993D02*
X020812Y012993D01*
X020928Y012993D02*
X021088Y012993D01*
X021008Y012993D02*
X021008Y013233D01*
X020928Y013153D01*
X020824Y012844D02*
X020587Y012844D01*
X020376Y012993D02*
X020376Y013233D01*
X020587Y012371D02*
X020824Y012371D01*
X020737Y012258D02*
X020777Y012218D01*
X020777Y012178D01*
X020737Y012138D01*
X020777Y012098D01*
X020777Y012058D01*
X020737Y012018D01*
X020657Y012018D01*
X020617Y012058D01*
X020697Y012138D02*
X020737Y012138D01*
X020737Y012258D02*
X020657Y012258D01*
X020617Y012218D01*
X020893Y012218D02*
X020933Y012258D01*
X021013Y012258D01*
X021053Y012218D01*
X021053Y012178D01*
X021013Y012138D01*
X021053Y012098D01*
X021053Y012058D01*
X021013Y012018D01*
X020933Y012018D01*
X020893Y012058D01*
X020973Y012138D02*
X021013Y012138D01*
X021169Y012218D02*
X021209Y012258D01*
X021289Y012258D01*
X021329Y012218D01*
X021169Y012058D01*
X021209Y012018D01*
X021289Y012018D01*
X021329Y012058D01*
X021329Y012218D01*
X021169Y012218D02*
X021169Y012058D01*
X021425Y011877D02*
X021505Y011757D01*
X021586Y011877D01*
X021586Y011757D02*
X021345Y011757D01*
X021385Y011641D02*
X021345Y011601D01*
X021345Y011521D01*
X021385Y011481D01*
X021546Y011481D01*
X021385Y011641D01*
X021546Y011641D01*
X021586Y011601D01*
X021586Y011521D01*
X021546Y011481D01*
X021546Y011365D02*
X021586Y011325D01*
X021586Y011245D01*
X021546Y011205D01*
X021385Y011365D01*
X021546Y011365D01*
X021546Y011205D02*
X021385Y011205D01*
X021345Y011245D01*
X021345Y011325D01*
X021385Y011365D01*
X021586Y011089D02*
X021586Y010929D01*
X021586Y011009D02*
X021345Y011009D01*
X021425Y010929D01*
X021757Y010878D02*
X021917Y010878D01*
X021837Y010878D02*
X021837Y011118D01*
X021757Y011038D01*
X022033Y011038D02*
X022033Y011078D01*
X022073Y011118D01*
X022153Y011118D01*
X022193Y011078D01*
X022193Y011038D01*
X022153Y010998D01*
X022073Y010998D01*
X022033Y011038D01*
X022073Y010998D02*
X022033Y010958D01*
X022033Y010918D01*
X022073Y010878D01*
X022153Y010878D01*
X022193Y010918D01*
X022193Y010958D01*
X022153Y010998D01*
X022309Y011078D02*
X022349Y011118D01*
X022429Y011118D01*
X022469Y011078D01*
X022309Y010918D01*
X022349Y010878D01*
X022429Y010878D01*
X022469Y010918D01*
X022469Y011078D01*
X022309Y011078D02*
X022309Y010918D01*
X022196Y010728D02*
X022236Y010688D01*
X022236Y010608D01*
X022196Y010568D01*
X022115Y010648D02*
X022115Y010688D01*
X022155Y010728D01*
X022196Y010728D01*
X022115Y010688D02*
X022075Y010728D01*
X022035Y010728D01*
X021995Y010688D01*
X021995Y010608D01*
X022035Y010568D01*
X022035Y010452D02*
X021995Y010412D01*
X021995Y010332D01*
X022035Y010292D01*
X022196Y010292D01*
X022236Y010332D01*
X022236Y010412D01*
X022196Y010452D01*
X022236Y010188D02*
X022236Y010108D01*
X022236Y010148D02*
X021995Y010148D01*
X021995Y010108D02*
X021995Y010188D01*
X022038Y010033D02*
X022038Y009793D01*
X021958Y009793D02*
X022118Y009793D01*
X022125Y009598D02*
X022205Y009478D01*
X022286Y009598D01*
X022286Y009478D02*
X022045Y009478D01*
X022085Y009362D02*
X022125Y009362D01*
X022165Y009322D01*
X022205Y009362D01*
X022246Y009362D01*
X022286Y009322D01*
X022286Y009242D01*
X022246Y009202D01*
X022246Y009104D02*
X022286Y009104D01*
X022286Y009064D01*
X022246Y009064D01*
X022246Y009104D01*
X022246Y008948D02*
X022286Y008908D01*
X022286Y008828D01*
X022246Y008788D01*
X022165Y008868D02*
X022165Y008908D01*
X022205Y008948D01*
X022246Y008948D01*
X022165Y008908D02*
X022125Y008948D01*
X022085Y008948D01*
X022045Y008908D01*
X022045Y008828D01*
X022085Y008788D01*
X021942Y009040D02*
X021942Y009276D01*
X022045Y009242D02*
X022045Y009322D01*
X022085Y009362D01*
X022165Y009322D02*
X022165Y009282D01*
X022085Y009202D02*
X022045Y009242D01*
X021842Y009793D02*
X021682Y009793D01*
X021762Y009793D02*
X021762Y010033D01*
X021682Y009953D01*
X021566Y009993D02*
X021566Y009913D01*
X021526Y009873D01*
X021406Y009873D01*
X021486Y009873D02*
X021566Y009793D01*
X021406Y009793D02*
X021406Y010033D01*
X021526Y010033D01*
X021566Y009993D01*
X021138Y009943D02*
X021138Y009783D01*
X021098Y009743D01*
X021018Y009743D01*
X020978Y009783D01*
X021138Y009943D01*
X021098Y009983D01*
X021018Y009983D01*
X020978Y009943D01*
X020978Y009783D01*
X020862Y009743D02*
X020702Y009743D01*
X020782Y009743D02*
X020782Y009983D01*
X020702Y009903D01*
X020586Y009943D02*
X020586Y009863D01*
X020546Y009823D01*
X020426Y009823D01*
X020506Y009823D02*
X020586Y009743D01*
X020426Y009743D02*
X020426Y009983D01*
X020546Y009983D01*
X020586Y009943D01*
X020536Y009400D02*
X020455Y009280D01*
X020375Y009400D01*
X020295Y009280D02*
X020536Y009280D01*
X020496Y009164D02*
X020536Y009124D01*
X020536Y009044D01*
X020496Y009004D01*
X020415Y009004D02*
X020375Y009084D01*
X020375Y009124D01*
X020415Y009164D01*
X020496Y009164D01*
X020415Y009004D02*
X020295Y009004D01*
X020295Y009164D01*
X020295Y008808D02*
X020536Y008808D01*
X020536Y008728D02*
X020536Y008888D01*
X020669Y009040D02*
X020669Y009276D01*
X021142Y009276D02*
X021142Y009040D01*
X021469Y009040D02*
X021469Y009276D01*
X021958Y009953D02*
X022038Y010033D01*
X022087Y011221D02*
X022324Y011221D01*
X022324Y011694D02*
X022087Y011694D01*
X022096Y011813D02*
X022016Y011893D01*
X022056Y011893D02*
X021936Y011893D01*
X021936Y011813D02*
X021936Y012053D01*
X022056Y012053D01*
X022096Y012013D01*
X022096Y011933D01*
X022056Y011893D01*
X022212Y011973D02*
X022292Y012053D01*
X022292Y011813D01*
X022212Y011813D02*
X022372Y011813D01*
X022488Y011813D02*
X022648Y011973D01*
X022648Y012013D01*
X022608Y012053D01*
X022528Y012053D01*
X022488Y012013D01*
X022488Y011813D02*
X022648Y011813D01*
X022945Y012169D02*
X022865Y012249D01*
X023106Y012249D01*
X023106Y012169D02*
X023106Y012329D01*
X023066Y012445D02*
X022905Y012605D01*
X023066Y012605D01*
X023106Y012565D01*
X023106Y012485D01*
X023066Y012445D01*
X022905Y012445D01*
X022865Y012485D01*
X022865Y012565D01*
X022905Y012605D01*
X022905Y012721D02*
X022865Y012761D01*
X022865Y012841D01*
X022905Y012881D01*
X023066Y012721D01*
X023106Y012761D01*
X023106Y012841D01*
X023066Y012881D01*
X022905Y012881D01*
X022865Y012997D02*
X023106Y012997D01*
X023025Y012997D02*
X022945Y013117D01*
X023025Y012997D02*
X023106Y013117D01*
X023197Y013118D02*
X023237Y013078D01*
X023277Y013078D01*
X023317Y013118D01*
X023317Y013318D01*
X023277Y013318D02*
X023357Y013318D01*
X023473Y013318D02*
X023473Y013078D01*
X023473Y013158D02*
X023593Y013158D01*
X023633Y013198D01*
X023633Y013278D01*
X023593Y013318D01*
X023473Y013318D01*
X023749Y013238D02*
X023829Y013318D01*
X023829Y013078D01*
X023749Y013078D02*
X023909Y013078D01*
X023868Y012083D02*
X023948Y012083D01*
X023988Y012043D01*
X023988Y012003D01*
X023948Y011963D01*
X023988Y011923D01*
X023988Y011883D01*
X023948Y011843D01*
X023868Y011843D01*
X023828Y011883D01*
X023908Y011963D02*
X023948Y011963D01*
X023828Y012043D02*
X023868Y012083D01*
X023632Y012083D02*
X023632Y011843D01*
X023552Y011843D02*
X023712Y011843D01*
X023724Y011694D02*
X023487Y011694D01*
X023436Y011843D02*
X023356Y011923D01*
X023396Y011923D02*
X023276Y011923D01*
X023276Y011843D02*
X023276Y012083D01*
X023396Y012083D01*
X023436Y012043D01*
X023436Y011963D01*
X023396Y011923D01*
X023552Y012003D02*
X023632Y012083D01*
X023066Y012721D02*
X022905Y012721D01*
X022588Y013003D02*
X022548Y012963D01*
X022468Y012963D01*
X022428Y013003D01*
X022428Y013043D01*
X022468Y013083D01*
X022548Y013083D01*
X022588Y013043D01*
X022588Y013003D01*
X022548Y013083D02*
X022588Y013123D01*
X022588Y013163D01*
X022548Y013203D01*
X022468Y013203D01*
X022428Y013163D01*
X022428Y013123D01*
X022468Y013083D01*
X022312Y012963D02*
X022152Y012963D01*
X022232Y012963D02*
X022232Y013203D01*
X022152Y013123D01*
X022036Y013163D02*
X022036Y013083D01*
X021996Y013043D01*
X021876Y013043D01*
X021956Y013043D02*
X022036Y012963D01*
X022067Y012824D02*
X022304Y012824D01*
X022036Y013163D02*
X021996Y013203D01*
X021876Y013203D01*
X021876Y012963D01*
X022067Y012351D02*
X022304Y012351D01*
X020874Y011694D02*
X020637Y011694D01*
X020637Y011221D02*
X020874Y011221D01*
X019632Y010768D02*
X019632Y010728D01*
X019592Y010688D01*
X019632Y010648D01*
X019632Y010608D01*
X019592Y010568D01*
X019512Y010568D01*
X019472Y010608D01*
X019552Y010688D02*
X019592Y010688D01*
X019632Y010768D02*
X019592Y010808D01*
X019512Y010808D01*
X019472Y010768D01*
X019356Y010768D02*
X019356Y010608D01*
X019316Y010568D01*
X019236Y010568D01*
X019196Y010608D01*
X019196Y010768D01*
X019236Y010808D01*
X019316Y010808D01*
X019356Y010768D01*
X019276Y010648D02*
X019356Y010568D01*
X019016Y010581D02*
X019016Y010501D01*
X018976Y010461D01*
X018895Y010541D02*
X018895Y010581D01*
X018935Y010621D01*
X018976Y010621D01*
X019016Y010581D01*
X018895Y010581D02*
X018855Y010621D01*
X018815Y010621D01*
X018775Y010581D01*
X018775Y010501D01*
X018815Y010461D01*
X018815Y010345D02*
X018976Y010185D01*
X019016Y010225D01*
X019016Y010305D01*
X018976Y010345D01*
X018815Y010345D01*
X018775Y010305D01*
X018775Y010225D01*
X018815Y010185D01*
X018976Y010185D01*
X018895Y010069D02*
X018895Y009909D01*
X018775Y010029D01*
X019016Y010029D01*
X018895Y009793D02*
X018895Y009633D01*
X018775Y009753D01*
X019016Y009753D01*
X019016Y009436D02*
X018775Y009436D01*
X018775Y009356D02*
X018775Y009516D01*
X018815Y009240D02*
X018775Y009200D01*
X018775Y009080D01*
X019016Y009080D01*
X019016Y009200D01*
X018976Y009240D01*
X018935Y009240D01*
X018895Y009200D01*
X018895Y009080D01*
X018895Y009200D02*
X018855Y009240D01*
X018815Y009240D01*
X018775Y008964D02*
X019016Y008964D01*
X019016Y008804D02*
X018775Y008804D01*
X018855Y008884D01*
X018775Y008964D01*
X018775Y008688D02*
X019016Y008688D01*
X019016Y008528D02*
X018775Y008528D01*
X018855Y008608D01*
X018775Y008688D01*
X018426Y008034D02*
X018466Y007994D01*
X018466Y007914D01*
X018426Y007874D01*
X018345Y007954D02*
X018345Y007994D01*
X018385Y008034D01*
X018426Y008034D01*
X018345Y007994D02*
X018305Y008034D01*
X018265Y008034D01*
X018225Y007994D01*
X018225Y007914D01*
X018265Y007874D01*
X018265Y007758D02*
X018225Y007718D01*
X018225Y007598D01*
X018466Y007598D01*
X018466Y007718D01*
X018426Y007758D01*
X018265Y007758D01*
X017932Y007423D02*
X017932Y007383D01*
X017772Y007223D01*
X017772Y007183D01*
X017656Y007223D02*
X017616Y007183D01*
X017536Y007183D01*
X017496Y007223D01*
X017496Y007383D01*
X017536Y007423D01*
X017616Y007423D01*
X017656Y007383D01*
X017772Y007423D02*
X017932Y007423D01*
X017674Y007541D02*
X017437Y007541D01*
X017437Y008014D02*
X017674Y008014D01*
X017629Y008118D02*
X017629Y008358D01*
X017789Y008358D01*
X017709Y008238D02*
X017629Y008238D01*
X017513Y008278D02*
X017513Y008118D01*
X017393Y008118D01*
X017353Y008158D01*
X017353Y008278D01*
X017237Y008118D02*
X017077Y008118D01*
X017157Y008118D02*
X017157Y008358D01*
X017077Y008278D01*
X016979Y008158D02*
X016979Y008118D01*
X016939Y008118D01*
X016939Y008158D01*
X016979Y008158D01*
X016823Y008158D02*
X016783Y008118D01*
X016702Y008118D01*
X016662Y008158D01*
X016823Y008318D01*
X016823Y008158D01*
X016823Y008318D02*
X016783Y008358D01*
X016702Y008358D01*
X016662Y008318D01*
X016662Y008158D01*
X016516Y008216D02*
X016476Y008176D01*
X016435Y008176D01*
X016395Y008216D01*
X016395Y008296D01*
X016435Y008336D01*
X016476Y008336D01*
X016516Y008296D01*
X016516Y008216D01*
X016395Y008216D02*
X016355Y008176D01*
X016315Y008176D01*
X016275Y008216D01*
X016275Y008296D01*
X016315Y008336D01*
X016355Y008336D01*
X016395Y008296D01*
X016355Y008453D02*
X016476Y008453D01*
X016516Y008493D01*
X016516Y008613D01*
X016355Y008613D01*
X016395Y008729D02*
X016395Y008889D01*
X016275Y008889D02*
X016516Y008889D01*
X016516Y008729D02*
X016275Y008729D01*
X016476Y008078D02*
X016516Y008078D01*
X016516Y008038D01*
X016476Y008038D01*
X016476Y008078D01*
X016476Y007922D02*
X016435Y007922D01*
X016395Y007882D01*
X016395Y007762D01*
X016476Y007762D01*
X016516Y007802D01*
X016516Y007882D01*
X016476Y007922D01*
X016315Y007842D02*
X016395Y007762D01*
X016315Y007842D02*
X016275Y007922D01*
X016316Y006958D02*
X016276Y006918D01*
X016276Y006758D01*
X016316Y006718D01*
X016396Y006718D01*
X016436Y006758D01*
X016552Y006758D02*
X016552Y006838D01*
X016672Y006838D01*
X016712Y006798D01*
X016712Y006758D01*
X016672Y006718D01*
X016592Y006718D01*
X016552Y006758D01*
X016552Y006838D02*
X016632Y006918D01*
X016712Y006958D01*
X016436Y006918D02*
X016396Y006958D01*
X016316Y006958D01*
X016269Y005008D02*
X016429Y005008D01*
X016349Y004888D02*
X016269Y004888D01*
X016269Y004768D02*
X016269Y005008D01*
X016153Y004928D02*
X016153Y004768D01*
X016033Y004768D01*
X015993Y004808D01*
X015993Y004928D01*
X015877Y004968D02*
X015717Y004808D01*
X015757Y004768D01*
X015837Y004768D01*
X015877Y004808D01*
X015877Y004968D01*
X015837Y005008D01*
X015757Y005008D01*
X015717Y004968D01*
X015717Y004808D01*
X015601Y004808D02*
X015561Y004768D01*
X015481Y004768D01*
X015441Y004808D01*
X015601Y004968D01*
X015601Y004808D01*
X015601Y004968D02*
X015561Y005008D01*
X015481Y005008D01*
X015441Y004968D01*
X015441Y004808D01*
X015324Y004768D02*
X015164Y004768D01*
X015244Y004768D02*
X015244Y005008D01*
X015164Y004928D01*
X015286Y004388D02*
X015206Y004308D01*
X015286Y004388D02*
X015286Y004148D01*
X015206Y004148D02*
X015366Y004148D01*
X015482Y004188D02*
X015642Y004348D01*
X015642Y004188D01*
X015602Y004148D01*
X015522Y004148D01*
X015482Y004188D01*
X015482Y004348D01*
X015522Y004388D01*
X015602Y004388D01*
X015642Y004348D01*
X015758Y004348D02*
X015798Y004388D01*
X015878Y004388D01*
X015918Y004348D01*
X015758Y004188D01*
X015798Y004148D01*
X015878Y004148D01*
X015918Y004188D01*
X015918Y004348D01*
X016034Y004308D02*
X016034Y004188D01*
X016074Y004148D01*
X016194Y004148D01*
X016194Y004308D01*
X016310Y004268D02*
X016390Y004268D01*
X016310Y004388D02*
X016471Y004388D01*
X016310Y004388D02*
X016310Y004148D01*
X015758Y004188D02*
X015758Y004348D01*
X013746Y004325D02*
X013706Y004365D01*
X013545Y004365D01*
X013505Y004325D01*
X013505Y004205D01*
X013746Y004205D01*
X013746Y004325D01*
X013746Y004481D02*
X013585Y004642D01*
X013545Y004642D01*
X013505Y004601D01*
X013505Y004521D01*
X013545Y004481D01*
X013746Y004481D02*
X013746Y004642D01*
X013289Y004328D02*
X013129Y004168D01*
X013169Y004128D01*
X013249Y004128D01*
X013289Y004168D01*
X013289Y004328D01*
X013249Y004368D01*
X013169Y004368D01*
X013129Y004328D01*
X013129Y004168D01*
X013013Y004248D02*
X012853Y004248D01*
X012973Y004368D01*
X012973Y004128D01*
X012737Y004128D02*
X012577Y004128D01*
X012657Y004128D02*
X012657Y004368D01*
X012577Y004288D01*
X012461Y004288D02*
X012461Y004128D01*
X012461Y004248D02*
X012301Y004248D01*
X012301Y004288D02*
X012381Y004368D01*
X012461Y004288D01*
X012301Y004288D02*
X012301Y004128D01*
X012184Y004128D02*
X012104Y004208D01*
X012144Y004208D02*
X012024Y004208D01*
X012024Y004128D02*
X012024Y004368D01*
X012144Y004368D01*
X012184Y004328D01*
X012184Y004248D01*
X012144Y004208D01*
X011908Y004208D02*
X011908Y004168D01*
X011868Y004128D01*
X011748Y004128D01*
X011748Y004368D01*
X011868Y004368D01*
X011908Y004328D01*
X011908Y004288D01*
X011868Y004248D01*
X011748Y004248D01*
X011868Y004248D02*
X011908Y004208D01*
X012006Y003958D02*
X011806Y003958D01*
X011806Y003758D01*
X011632Y004128D02*
X011632Y004368D01*
X011552Y004288D01*
X011472Y004368D01*
X011472Y004128D01*
X011336Y004153D02*
X011336Y003993D01*
X011336Y004073D02*
X011095Y004073D01*
X011175Y003993D01*
X011006Y003958D02*
X010806Y003958D01*
X011006Y003958D02*
X011006Y003758D01*
X011135Y004269D02*
X011095Y004309D01*
X011095Y004389D01*
X011135Y004429D01*
X011296Y004269D01*
X011336Y004309D01*
X011336Y004389D01*
X011296Y004429D01*
X011135Y004429D01*
X011175Y004545D02*
X011296Y004545D01*
X011336Y004585D01*
X011336Y004705D01*
X011175Y004705D01*
X011215Y004821D02*
X011215Y004901D01*
X011095Y004821D02*
X011336Y004821D01*
X011095Y004821D02*
X011095Y004981D01*
X010624Y004684D02*
X010387Y004684D01*
X010387Y004211D02*
X010624Y004211D01*
X010206Y003958D02*
X010006Y003958D01*
X010006Y003758D01*
X009882Y003748D02*
X009722Y003668D01*
X009762Y003552D02*
X009762Y003392D01*
X009642Y003512D01*
X009882Y003512D01*
X009882Y003294D02*
X009882Y003254D01*
X009842Y003254D01*
X009842Y003294D01*
X009882Y003294D01*
X009882Y003138D02*
X009882Y002978D01*
X009722Y003138D01*
X009682Y003138D01*
X009642Y003098D01*
X009642Y003018D01*
X009682Y002978D01*
X010006Y002958D02*
X010006Y003158D01*
X010006Y002958D02*
X010206Y002958D01*
X010316Y002768D02*
X010436Y002768D01*
X010476Y002728D01*
X010476Y002688D01*
X010436Y002648D01*
X010316Y002648D01*
X010436Y002648D02*
X010476Y002608D01*
X010476Y002568D01*
X010436Y002528D01*
X010316Y002528D01*
X010316Y002768D01*
X010592Y002648D02*
X010752Y002648D01*
X010672Y002728D02*
X010672Y002568D01*
X010806Y002958D02*
X011006Y002958D01*
X011006Y003158D01*
X011806Y003158D02*
X011806Y002958D01*
X012006Y002958D01*
X012056Y002788D02*
X012176Y002788D01*
X012216Y002748D01*
X012216Y002708D01*
X012176Y002668D01*
X012056Y002668D01*
X012176Y002668D02*
X012216Y002628D01*
X012216Y002588D01*
X012176Y002548D01*
X012056Y002548D01*
X012056Y002788D01*
X012332Y002668D02*
X012492Y002668D01*
X012606Y002958D02*
X012806Y002958D01*
X012806Y003158D01*
X012969Y003139D02*
X012969Y003059D01*
X013009Y003019D01*
X013169Y003019D01*
X013209Y003059D01*
X013209Y003139D01*
X013169Y003179D01*
X013089Y003179D01*
X013089Y003099D01*
X013009Y003179D02*
X012969Y003139D01*
X012969Y003295D02*
X013209Y003455D01*
X012969Y003455D01*
X012969Y003571D02*
X012969Y003691D01*
X013009Y003731D01*
X013169Y003731D01*
X013209Y003691D01*
X013209Y003571D01*
X012969Y003571D01*
X012806Y003758D02*
X012806Y003958D01*
X012606Y003958D01*
X012969Y003295D02*
X013209Y003295D01*
X013336Y002768D02*
X013296Y002728D01*
X013296Y002568D01*
X013336Y002528D01*
X013416Y002528D01*
X013456Y002568D01*
X013572Y002568D02*
X013612Y002528D01*
X013692Y002528D01*
X013732Y002568D01*
X013732Y002728D01*
X013692Y002768D01*
X013612Y002768D01*
X013572Y002728D01*
X013572Y002688D01*
X013612Y002648D01*
X013732Y002648D01*
X013456Y002728D02*
X013416Y002768D01*
X013336Y002768D01*
X011296Y004269D02*
X011135Y004269D01*
X009881Y004294D02*
X009841Y004254D01*
X009881Y004294D02*
X009881Y004374D01*
X009841Y004414D01*
X009760Y004414D01*
X009720Y004374D01*
X009720Y004334D01*
X009760Y004254D01*
X009640Y004254D01*
X009640Y004414D01*
X009567Y004672D02*
X009567Y004832D01*
X009567Y004752D02*
X009808Y004752D01*
X009808Y004948D02*
X009567Y004948D01*
X009567Y005068D01*
X009607Y005108D01*
X009687Y005108D01*
X009728Y005068D01*
X009728Y004948D01*
X009768Y005224D02*
X009808Y005264D01*
X009808Y005345D01*
X009768Y005385D01*
X009728Y005385D01*
X009687Y005345D01*
X009687Y005264D01*
X009647Y005224D01*
X009607Y005224D01*
X009567Y005264D01*
X009567Y005345D01*
X009607Y005385D01*
X009687Y005501D02*
X009607Y005581D01*
X009567Y005661D01*
X009687Y005621D02*
X009687Y005501D01*
X009768Y005501D01*
X009808Y005541D01*
X009808Y005621D01*
X009768Y005661D01*
X009728Y005661D01*
X009687Y005621D01*
X009647Y005777D02*
X009567Y005857D01*
X009808Y005857D01*
X009808Y005777D02*
X009808Y005937D01*
X009768Y006053D02*
X009607Y006213D01*
X009768Y006213D01*
X009808Y006173D01*
X009808Y006093D01*
X009768Y006053D01*
X009607Y006053D01*
X009567Y006093D01*
X009567Y006173D01*
X009607Y006213D01*
X009607Y006329D02*
X009567Y006369D01*
X009567Y006449D01*
X009607Y006489D01*
X009647Y006489D01*
X009808Y006329D01*
X009808Y006489D01*
X009808Y006606D02*
X009567Y006766D01*
X009567Y006606D02*
X009808Y006766D01*
X009826Y007038D02*
X009665Y007198D01*
X009625Y007198D01*
X009585Y007158D01*
X009585Y007078D01*
X009625Y007038D01*
X009826Y007038D02*
X009826Y007198D01*
X009826Y007314D02*
X009826Y007354D01*
X009786Y007354D01*
X009786Y007314D01*
X009826Y007314D01*
X009826Y007452D02*
X009665Y007612D01*
X009625Y007612D01*
X009585Y007572D01*
X009585Y007492D01*
X009625Y007452D01*
X009826Y007452D02*
X009826Y007612D01*
X009786Y007728D02*
X009826Y007768D01*
X009826Y007888D01*
X009665Y007888D01*
X009705Y008004D02*
X009705Y008084D01*
X009585Y008004D02*
X009826Y008004D01*
X009986Y007863D02*
X009986Y007703D01*
X010026Y007663D01*
X010106Y007663D01*
X010146Y007703D01*
X010262Y007663D02*
X010422Y007823D01*
X010422Y007863D01*
X010382Y007903D01*
X010302Y007903D01*
X010262Y007863D01*
X010146Y007863D02*
X010106Y007903D01*
X010026Y007903D01*
X009986Y007863D01*
X009786Y007728D02*
X009665Y007728D01*
X009585Y008004D02*
X009585Y008165D01*
X010337Y008181D02*
X010574Y008181D01*
X010666Y008088D02*
X010666Y007848D01*
X010586Y007848D02*
X010746Y007848D01*
X010862Y007888D02*
X010902Y007848D01*
X010982Y007848D01*
X011022Y007888D01*
X011022Y007968D01*
X010982Y008008D01*
X010942Y008008D01*
X010862Y007968D01*
X010862Y008088D01*
X011022Y008088D01*
X011138Y008088D02*
X011138Y007848D01*
X011138Y007928D02*
X011258Y008008D01*
X011138Y007928D02*
X011258Y007848D01*
X011894Y007998D02*
X012054Y007998D01*
X011974Y007998D02*
X011974Y008238D01*
X011894Y008158D01*
X012171Y008198D02*
X012211Y008238D01*
X012291Y008238D01*
X012331Y008198D01*
X012171Y008038D01*
X012211Y007998D01*
X012291Y007998D01*
X012331Y008038D01*
X012331Y008198D01*
X012447Y008198D02*
X012487Y008238D01*
X012567Y008238D01*
X012607Y008198D01*
X012447Y008038D01*
X012487Y007998D01*
X012567Y007998D01*
X012607Y008038D01*
X012607Y008198D01*
X012723Y008158D02*
X012723Y008038D01*
X012763Y007998D01*
X012883Y007998D01*
X012883Y008158D01*
X012999Y008118D02*
X013079Y008118D01*
X012999Y007998D02*
X012999Y008238D01*
X013159Y008238D01*
X013585Y008241D02*
X013585Y008161D01*
X013625Y008121D01*
X013705Y008201D02*
X013705Y008241D01*
X013745Y008282D01*
X013786Y008282D01*
X013826Y008241D01*
X013826Y008161D01*
X013786Y008121D01*
X013786Y008005D02*
X013826Y007965D01*
X013826Y007885D01*
X013786Y007845D01*
X013625Y007845D01*
X013585Y007885D01*
X013585Y007965D01*
X013625Y008005D01*
X013585Y008241D02*
X013625Y008282D01*
X013665Y008282D01*
X013705Y008241D01*
X012447Y008198D02*
X012447Y008038D01*
X012171Y008038D02*
X012171Y008198D01*
X010898Y008813D02*
X010898Y008853D01*
X010858Y008893D01*
X010738Y008893D01*
X010738Y008813D01*
X010778Y008773D01*
X010858Y008773D01*
X010898Y008813D01*
X010818Y008973D02*
X010738Y008893D01*
X010818Y008973D02*
X010898Y009013D01*
X010622Y008973D02*
X010582Y009013D01*
X010502Y009013D01*
X010462Y008973D01*
X010346Y008973D02*
X010346Y008893D01*
X010306Y008853D01*
X010186Y008853D01*
X010266Y008853D02*
X010346Y008773D01*
X010462Y008773D02*
X010622Y008933D01*
X010622Y008973D01*
X010622Y008773D02*
X010462Y008773D01*
X010574Y008654D02*
X010337Y008654D01*
X010186Y008773D02*
X010186Y009013D01*
X010306Y009013D01*
X010346Y008973D01*
X010666Y008088D02*
X010586Y008008D01*
X010422Y007663D02*
X010262Y007663D01*
X010337Y007544D02*
X010574Y007544D01*
X010574Y007071D02*
X010337Y007071D01*
X011403Y006466D02*
X011403Y006386D01*
X011443Y006346D01*
X011443Y006230D02*
X011403Y006189D01*
X011403Y006109D01*
X011443Y006069D01*
X011603Y006069D01*
X011643Y006109D01*
X011643Y006189D01*
X011603Y006230D01*
X011643Y006346D02*
X011483Y006506D01*
X011443Y006506D01*
X011403Y006466D01*
X011643Y006506D02*
X011643Y006346D01*
X011643Y005965D02*
X011643Y005885D01*
X011643Y005925D02*
X011403Y005925D01*
X011403Y005885D02*
X011403Y005965D01*
X009841Y004138D02*
X009881Y004098D01*
X009881Y004018D01*
X009841Y003978D01*
X009680Y003978D01*
X009640Y004018D01*
X009640Y004098D01*
X009680Y004138D01*
X009722Y003828D02*
X009882Y003748D01*
X008970Y004208D02*
X008970Y004368D01*
X008930Y004408D01*
X008810Y004408D01*
X008810Y004168D01*
X008930Y004168D01*
X008970Y004208D01*
X008694Y004208D02*
X008654Y004168D01*
X008574Y004168D01*
X008534Y004208D01*
X008574Y004288D02*
X008654Y004288D01*
X008694Y004248D01*
X008694Y004208D01*
X008574Y004288D02*
X008534Y004328D01*
X008534Y004368D01*
X008574Y004408D01*
X008654Y004408D01*
X008694Y004368D01*
X008418Y004408D02*
X008418Y004208D01*
X008378Y004168D01*
X008298Y004168D01*
X008258Y004208D01*
X008258Y004408D01*
X008142Y004408D02*
X007981Y004408D01*
X008062Y004408D02*
X008062Y004168D01*
X007865Y004168D02*
X007705Y004168D01*
X007705Y004408D01*
X007865Y004408D01*
X007785Y004288D02*
X007705Y004288D01*
X007589Y004408D02*
X007429Y004248D01*
X007469Y004288D02*
X007589Y004168D01*
X007429Y004168D02*
X007429Y004408D01*
X007313Y004368D02*
X007273Y004408D01*
X007193Y004408D01*
X007153Y004368D01*
X007153Y004208D01*
X007193Y004168D01*
X007273Y004168D01*
X007313Y004208D01*
X007037Y004208D02*
X007037Y004368D01*
X006997Y004408D01*
X006917Y004408D01*
X006877Y004368D01*
X006877Y004208D01*
X006917Y004168D01*
X006997Y004168D01*
X007037Y004208D01*
X006761Y004208D02*
X006720Y004168D01*
X006640Y004168D01*
X006600Y004208D01*
X006640Y004288D02*
X006600Y004328D01*
X006600Y004368D01*
X006640Y004408D01*
X006720Y004408D01*
X006761Y004368D01*
X006720Y004288D02*
X006761Y004248D01*
X006761Y004208D01*
X006720Y004288D02*
X006640Y004288D01*
X006484Y004288D02*
X006324Y004288D01*
X006208Y004368D02*
X006168Y004408D01*
X006048Y004408D01*
X006048Y004168D01*
X006168Y004168D01*
X006208Y004208D01*
X006208Y004368D01*
X005932Y004368D02*
X005892Y004408D01*
X005812Y004408D01*
X005772Y004368D01*
X005772Y004328D01*
X005812Y004288D01*
X005892Y004288D01*
X005932Y004248D01*
X005932Y004208D01*
X005892Y004168D01*
X005812Y004168D01*
X005772Y004208D01*
X005656Y004208D02*
X005656Y004408D01*
X005496Y004408D02*
X005496Y004208D01*
X005536Y004168D01*
X005616Y004168D01*
X005656Y004208D01*
X006356Y004888D02*
X006396Y004848D01*
X006476Y004848D01*
X006516Y004888D01*
X006516Y005088D01*
X006632Y005008D02*
X006712Y005088D01*
X006712Y004848D01*
X006632Y004848D02*
X006792Y004848D01*
X006356Y004888D02*
X006356Y005088D01*
X009347Y012888D02*
X009307Y012928D01*
X009347Y012888D02*
X009427Y012888D01*
X009467Y012928D01*
X009467Y012968D01*
X009427Y013008D01*
X009387Y013008D01*
X009427Y013008D02*
X009467Y013048D01*
X009467Y013088D01*
X009427Y013128D01*
X009347Y013128D01*
X009307Y013088D01*
X009583Y013088D02*
X009623Y013128D01*
X009703Y013128D01*
X009743Y013088D01*
X009743Y013048D01*
X009703Y013008D01*
X009743Y012968D01*
X009743Y012928D01*
X009703Y012888D01*
X009623Y012888D01*
X009583Y012928D01*
X009663Y013008D02*
X009703Y013008D01*
X009859Y013088D02*
X009899Y013128D01*
X009979Y013128D01*
X010019Y013088D01*
X009859Y012928D01*
X009899Y012888D01*
X009979Y012888D01*
X010019Y012928D01*
X010019Y013088D01*
X009859Y013088D02*
X009859Y012928D01*
X009874Y013271D02*
X009637Y013271D01*
X009637Y013744D02*
X009874Y013744D01*
X009858Y013863D02*
X009778Y013863D01*
X009738Y013903D01*
X009738Y013983D02*
X009818Y014023D01*
X009858Y014023D01*
X009898Y013983D01*
X009898Y013903D01*
X009858Y013863D01*
X009738Y013983D02*
X009738Y014103D01*
X009898Y014103D01*
X009622Y014063D02*
X009582Y014103D01*
X009502Y014103D01*
X009462Y014063D01*
X009346Y014063D02*
X009346Y013983D01*
X009306Y013943D01*
X009186Y013943D01*
X009266Y013943D02*
X009346Y013863D01*
X009462Y013863D02*
X009622Y014023D01*
X009622Y014063D01*
X009622Y013863D02*
X009462Y013863D01*
X009346Y014063D02*
X009306Y014103D01*
X009186Y014103D01*
X009186Y013863D01*
X010236Y013863D02*
X010236Y014103D01*
X010356Y014103D01*
X010396Y014063D01*
X010396Y013983D01*
X010356Y013943D01*
X010236Y013943D01*
X010316Y013943D02*
X010396Y013863D01*
X010512Y013863D02*
X010672Y014023D01*
X010672Y014063D01*
X010632Y014103D01*
X010552Y014103D01*
X010512Y014063D01*
X010512Y013863D02*
X010672Y013863D01*
X010788Y013983D02*
X010948Y013983D01*
X010908Y013863D02*
X010908Y014103D01*
X010788Y013983D01*
X010837Y013744D02*
X011074Y013744D01*
X011074Y013271D02*
X010837Y013271D01*
X010819Y013128D02*
X010899Y013128D01*
X010939Y013088D01*
X010779Y012928D01*
X010819Y012888D01*
X010899Y012888D01*
X010939Y012928D01*
X010939Y013088D01*
X011055Y013128D02*
X011055Y012888D01*
X011055Y012968D02*
X011175Y012888D01*
X011055Y012968D02*
X011175Y013048D01*
X010819Y013128D02*
X010779Y013088D01*
X010779Y012928D01*
X010663Y012888D02*
X010503Y012888D01*
X010583Y012888D02*
X010583Y013128D01*
X010503Y013048D01*
X015372Y009878D02*
X015372Y009638D01*
X015532Y009638D01*
X015648Y009638D02*
X015808Y009638D01*
X015728Y009638D02*
X015728Y009878D01*
X015648Y009798D01*
X018852Y007028D02*
X018852Y006788D01*
X019012Y006788D02*
X019012Y007028D01*
X018932Y006948D01*
X018852Y007028D01*
X019128Y007028D02*
X019128Y006788D01*
X019248Y006788D01*
X019288Y006828D01*
X019288Y006868D01*
X019248Y006908D01*
X019128Y006908D01*
X019128Y007028D02*
X019248Y007028D01*
X019288Y006988D01*
X019288Y006948D01*
X019248Y006908D01*
X019404Y006868D02*
X019524Y006868D01*
X019564Y006908D01*
X019564Y006988D01*
X019524Y007028D01*
X019404Y007028D01*
X019404Y006788D01*
X019484Y006868D02*
X019564Y006788D01*
X019681Y006788D02*
X019681Y006948D01*
X019761Y007028D01*
X019841Y006948D01*
X019841Y006788D01*
X019957Y006788D02*
X020117Y006788D01*
X020037Y006788D02*
X020037Y007028D01*
X019957Y006948D01*
X019841Y006908D02*
X019681Y006908D01*
X019562Y006611D02*
X019482Y006611D01*
X019442Y006571D01*
X019562Y006611D02*
X019602Y006571D01*
X019602Y006531D01*
X019442Y006371D01*
X019602Y006371D01*
X019326Y006371D02*
X019166Y006371D01*
X019166Y006611D01*
X020097Y006558D02*
X020137Y006598D01*
X020217Y006598D01*
X020258Y006558D01*
X020258Y006518D01*
X020097Y006358D01*
X020258Y006358D01*
X020374Y006358D02*
X020534Y006518D01*
X020534Y006558D01*
X020494Y006598D01*
X020414Y006598D01*
X020374Y006558D01*
X020374Y006358D02*
X020534Y006358D01*
X020650Y006398D02*
X020810Y006558D01*
X020810Y006398D01*
X020770Y006358D01*
X020690Y006358D01*
X020650Y006398D01*
X020650Y006558D01*
X020690Y006598D01*
X020770Y006598D01*
X020810Y006558D01*
X020926Y006518D02*
X020926Y006398D01*
X020966Y006358D01*
X021086Y006358D01*
X021086Y006518D01*
X021202Y006478D02*
X021362Y006478D01*
X021362Y006598D02*
X021362Y006358D01*
X021202Y006358D02*
X021202Y006598D01*
X020669Y006828D02*
X020629Y006788D01*
X020549Y006788D01*
X020509Y006828D01*
X020669Y006988D01*
X020669Y006828D01*
X020669Y006988D02*
X020629Y007028D01*
X020549Y007028D01*
X020509Y006988D01*
X020509Y006828D01*
X020393Y006908D02*
X020233Y006908D01*
X020353Y007028D01*
X020353Y006788D01*
X021048Y007298D02*
X021208Y007298D01*
X021128Y007298D02*
X021128Y007538D01*
X021048Y007458D01*
X021324Y007418D02*
X021324Y007538D01*
X021484Y007538D01*
X021444Y007458D02*
X021484Y007418D01*
X021484Y007338D01*
X021444Y007298D01*
X021364Y007298D01*
X021324Y007338D01*
X021324Y007418D02*
X021404Y007458D01*
X021444Y007458D01*
X021601Y007498D02*
X021601Y007338D01*
X021761Y007498D01*
X021761Y007338D01*
X021721Y007298D01*
X021641Y007298D01*
X021601Y007338D01*
X021601Y007498D02*
X021641Y007538D01*
X021721Y007538D01*
X021761Y007498D01*
X021877Y007498D02*
X021877Y007338D01*
X022037Y007498D01*
X022037Y007338D01*
X021997Y007298D01*
X021917Y007298D01*
X021877Y007338D01*
X021877Y007498D02*
X021917Y007538D01*
X021997Y007538D01*
X022037Y007498D01*
X022153Y007458D02*
X022273Y007458D01*
X022313Y007418D01*
X022313Y007338D01*
X022273Y007298D01*
X022153Y007298D01*
X022153Y007218D02*
X022153Y007458D01*
X022429Y007418D02*
X022509Y007418D01*
X022429Y007298D02*
X022429Y007538D01*
X022589Y007538D01*
X023087Y007494D02*
X023324Y007494D01*
X023324Y007021D02*
X023087Y007021D01*
X023836Y007253D02*
X023876Y007213D01*
X023956Y007213D01*
X023996Y007253D01*
X024112Y007253D02*
X024112Y007293D01*
X024152Y007333D01*
X024232Y007333D01*
X024272Y007293D01*
X024272Y007253D01*
X024232Y007213D01*
X024152Y007213D01*
X024112Y007253D01*
X024152Y007333D02*
X024112Y007373D01*
X024112Y007413D01*
X024152Y007453D01*
X024232Y007453D01*
X024272Y007413D01*
X024272Y007373D01*
X024232Y007333D01*
X023996Y007413D02*
X023956Y007453D01*
X023876Y007453D01*
X023836Y007413D01*
X023836Y007253D01*
X024235Y008304D02*
X024315Y008384D01*
X024235Y008464D01*
X024476Y008464D01*
X024436Y008580D02*
X024275Y008580D01*
X024235Y008620D01*
X024235Y008700D01*
X024275Y008740D01*
X024275Y008856D02*
X024235Y008896D01*
X024235Y008977D01*
X024275Y009017D01*
X024315Y009017D01*
X024355Y008977D01*
X024395Y009017D01*
X024436Y009017D01*
X024476Y008977D01*
X024476Y008896D01*
X024436Y008856D01*
X024355Y008936D02*
X024355Y008977D01*
X024355Y009133D02*
X024355Y009293D01*
X024235Y009253D02*
X024355Y009133D01*
X024235Y009253D02*
X024476Y009253D01*
X024436Y009409D02*
X024275Y009569D01*
X024436Y009569D01*
X024476Y009529D01*
X024476Y009449D01*
X024436Y009409D01*
X024275Y009409D01*
X024235Y009449D01*
X024235Y009529D01*
X024275Y009569D01*
X024355Y009685D02*
X024355Y009805D01*
X024395Y009845D01*
X024436Y009845D01*
X024476Y009805D01*
X024476Y009725D01*
X024436Y009685D01*
X024355Y009685D01*
X024275Y009765D01*
X024235Y009845D01*
X024275Y009961D02*
X024235Y010001D01*
X024235Y010081D01*
X024275Y010121D01*
X024315Y010121D01*
X024355Y010081D01*
X024395Y010121D01*
X024436Y010121D01*
X024476Y010081D01*
X024476Y010001D01*
X024436Y009961D01*
X024355Y010041D02*
X024355Y010081D01*
X023899Y010828D02*
X023819Y010828D01*
X023779Y010868D01*
X023779Y010948D02*
X023859Y010988D01*
X023899Y010988D01*
X023939Y010948D01*
X023939Y010868D01*
X023899Y010828D01*
X023779Y010948D02*
X023779Y011068D01*
X023939Y011068D01*
X023724Y011221D02*
X023487Y011221D01*
X023543Y011068D02*
X023503Y011028D01*
X023543Y011068D02*
X023623Y011068D01*
X023663Y011028D01*
X023663Y010988D01*
X023503Y010828D01*
X023663Y010828D01*
X023405Y010828D02*
X023365Y010828D01*
X023365Y010868D01*
X023405Y010868D01*
X023405Y010828D01*
X024436Y008740D02*
X024476Y008700D01*
X024476Y008620D01*
X024436Y008580D01*
X024476Y008304D02*
X024235Y008304D01*
X022356Y005258D02*
X022358Y005331D01*
X022364Y005404D01*
X022374Y005476D01*
X022388Y005548D01*
X022405Y005619D01*
X022427Y005689D01*
X022452Y005758D01*
X022481Y005825D01*
X022513Y005890D01*
X022549Y005954D01*
X022589Y006016D01*
X022631Y006075D01*
X022677Y006132D01*
X022726Y006186D01*
X022778Y006238D01*
X022832Y006287D01*
X022889Y006333D01*
X022948Y006375D01*
X023010Y006415D01*
X023074Y006451D01*
X023139Y006483D01*
X023206Y006512D01*
X023275Y006537D01*
X023345Y006559D01*
X023416Y006576D01*
X023488Y006590D01*
X023560Y006600D01*
X023633Y006606D01*
X023706Y006608D01*
X023779Y006606D01*
X023852Y006600D01*
X023924Y006590D01*
X023996Y006576D01*
X024067Y006559D01*
X024137Y006537D01*
X024206Y006512D01*
X024273Y006483D01*
X024338Y006451D01*
X024402Y006415D01*
X024464Y006375D01*
X024523Y006333D01*
X024580Y006287D01*
X024634Y006238D01*
X024686Y006186D01*
X024735Y006132D01*
X024781Y006075D01*
X024823Y006016D01*
X024863Y005954D01*
X024899Y005890D01*
X024931Y005825D01*
X024960Y005758D01*
X024985Y005689D01*
X025007Y005619D01*
X025024Y005548D01*
X025038Y005476D01*
X025048Y005404D01*
X025054Y005331D01*
X025056Y005258D01*
X025054Y005185D01*
X025048Y005112D01*
X025038Y005040D01*
X025024Y004968D01*
X025007Y004897D01*
X024985Y004827D01*
X024960Y004758D01*
X024931Y004691D01*
X024899Y004626D01*
X024863Y004562D01*
X024823Y004500D01*
X024781Y004441D01*
X024735Y004384D01*
X024686Y004330D01*
X024634Y004278D01*
X024580Y004229D01*
X024523Y004183D01*
X024464Y004141D01*
X024402Y004101D01*
X024338Y004065D01*
X024273Y004033D01*
X024206Y004004D01*
X024137Y003979D01*
X024067Y003957D01*
X023996Y003940D01*
X023924Y003926D01*
X023852Y003916D01*
X023779Y003910D01*
X023706Y003908D01*
X023633Y003910D01*
X023560Y003916D01*
X023488Y003926D01*
X023416Y003940D01*
X023345Y003957D01*
X023275Y003979D01*
X023206Y004004D01*
X023139Y004033D01*
X023074Y004065D01*
X023010Y004101D01*
X022948Y004141D01*
X022889Y004183D01*
X022832Y004229D01*
X022778Y004278D01*
X022726Y004330D01*
X022677Y004384D01*
X022631Y004441D01*
X022589Y004500D01*
X022549Y004562D01*
X022513Y004626D01*
X022481Y004691D01*
X022452Y004758D01*
X022427Y004827D01*
X022405Y004897D01*
X022388Y004968D01*
X022374Y005040D01*
X022364Y005112D01*
X022358Y005185D01*
X022356Y005258D01*
X020375Y008728D02*
X020295Y008808D01*
X019605Y016978D02*
X019485Y017058D01*
X019605Y017138D01*
X019485Y017218D02*
X019485Y016978D01*
X019369Y017018D02*
X019329Y016978D01*
X019249Y016978D01*
X019209Y017018D01*
X019369Y017178D01*
X019369Y017018D01*
X019369Y017178D02*
X019329Y017218D01*
X019249Y017218D01*
X019209Y017178D01*
X019209Y017018D01*
X019093Y017018D02*
X019053Y016978D01*
X018973Y016978D01*
X018933Y017018D01*
X019093Y017178D01*
X019093Y017018D01*
X019093Y017178D02*
X019053Y017218D01*
X018973Y017218D01*
X018933Y017178D01*
X018933Y017018D01*
X018817Y016978D02*
X018657Y016978D01*
X018737Y016978D02*
X018737Y017218D01*
X018657Y017138D01*
X019087Y017371D02*
X019324Y017371D01*
X019324Y017844D02*
X019087Y017844D01*
X019018Y017953D02*
X019058Y017993D01*
X019058Y018033D01*
X019018Y018073D01*
X018898Y018073D01*
X018898Y017993D01*
X018938Y017953D01*
X019018Y017953D01*
X018898Y018073D02*
X018978Y018153D01*
X019058Y018193D01*
X019127Y018128D02*
X019287Y018128D01*
X019207Y018128D02*
X019207Y018368D01*
X019127Y018288D01*
X019087Y018471D02*
X019324Y018471D01*
X019443Y018368D02*
X019523Y018368D01*
X019563Y018328D01*
X019403Y018168D01*
X019443Y018128D01*
X019523Y018128D01*
X019563Y018168D01*
X019563Y018328D01*
X019679Y018328D02*
X019719Y018368D01*
X019799Y018368D01*
X019839Y018328D01*
X019679Y018168D01*
X019719Y018128D01*
X019799Y018128D01*
X019839Y018168D01*
X019839Y018328D01*
X019955Y018368D02*
X019955Y018128D01*
X019955Y018208D02*
X020075Y018288D01*
X019955Y018208D02*
X020075Y018128D01*
X019679Y018168D02*
X019679Y018328D01*
X019443Y018368D02*
X019403Y018328D01*
X019403Y018168D01*
X019324Y018944D02*
X019087Y018944D01*
X018888Y019043D02*
X018888Y019083D01*
X019048Y019243D01*
X019048Y019283D01*
X018888Y019283D01*
X018692Y019283D02*
X018692Y019043D01*
X018612Y019043D02*
X018772Y019043D01*
X018612Y019203D02*
X018692Y019283D01*
X018496Y019243D02*
X018496Y019163D01*
X018456Y019123D01*
X018336Y019123D01*
X018416Y019123D02*
X018496Y019043D01*
X018336Y019043D02*
X018336Y019283D01*
X018456Y019283D01*
X018496Y019243D01*
X019157Y019248D02*
X019317Y019248D01*
X019237Y019248D02*
X019237Y019488D01*
X019157Y019408D01*
X019087Y019571D02*
X019324Y019571D01*
X019433Y019448D02*
X019473Y019488D01*
X019553Y019488D01*
X019593Y019448D01*
X019433Y019288D01*
X019473Y019248D01*
X019553Y019248D01*
X019593Y019288D01*
X019593Y019448D01*
X019709Y019448D02*
X019749Y019488D01*
X019829Y019488D01*
X019869Y019448D01*
X019709Y019288D01*
X019749Y019248D01*
X019829Y019248D01*
X019869Y019288D01*
X019869Y019448D01*
X019985Y019488D02*
X019985Y019248D01*
X019985Y019328D02*
X020105Y019408D01*
X019985Y019328D02*
X020105Y019248D01*
X019709Y019288D02*
X019709Y019448D01*
X019433Y019448D02*
X019433Y019288D01*
X019324Y020044D02*
X019087Y020044D01*
X019038Y020143D02*
X018958Y020143D01*
X018918Y020183D01*
X018918Y020263D02*
X018998Y020303D01*
X019038Y020303D01*
X019078Y020263D01*
X019078Y020183D01*
X019038Y020143D01*
X018918Y020263D02*
X018918Y020383D01*
X019078Y020383D01*
X019103Y020418D02*
X019263Y020418D01*
X019223Y020538D02*
X019103Y020418D01*
X019223Y020298D02*
X019223Y020538D01*
X019324Y020621D02*
X019087Y020621D01*
X019379Y020538D02*
X019539Y020538D01*
X019539Y020498D01*
X019379Y020338D01*
X019379Y020298D01*
X019655Y020298D02*
X019655Y020538D01*
X019775Y020458D02*
X019655Y020378D01*
X019775Y020298D01*
X019324Y021094D02*
X019087Y021094D01*
X019046Y021193D02*
X018966Y021273D01*
X019006Y021273D02*
X018886Y021273D01*
X018886Y021193D02*
X018886Y021433D01*
X019006Y021433D01*
X019046Y021393D01*
X019046Y021313D01*
X019006Y021273D01*
X019162Y021233D02*
X019202Y021193D01*
X019282Y021193D01*
X019322Y021233D01*
X019322Y021393D01*
X019282Y021433D01*
X019202Y021433D01*
X019162Y021393D01*
X019162Y021353D01*
X019202Y021313D01*
X019322Y021313D01*
X019192Y021428D02*
X019192Y021668D01*
X019352Y021668D01*
X019324Y021771D02*
X019087Y021771D01*
X019076Y021588D02*
X019076Y021428D01*
X018956Y021428D01*
X018916Y021468D01*
X018916Y021588D01*
X018800Y021428D02*
X018640Y021428D01*
X018720Y021428D02*
X018720Y021668D01*
X018640Y021588D01*
X018542Y021468D02*
X018542Y021428D01*
X018502Y021428D01*
X018502Y021468D01*
X018542Y021468D01*
X018386Y021468D02*
X018346Y021428D01*
X018266Y021428D01*
X018226Y021468D01*
X018386Y021628D01*
X018386Y021468D01*
X018386Y021628D02*
X018346Y021668D01*
X018266Y021668D01*
X018226Y021628D01*
X018226Y021468D01*
X018217Y021239D02*
X018137Y021239D01*
X018097Y021199D01*
X017980Y021159D02*
X017980Y020999D01*
X018097Y020999D02*
X018257Y021159D01*
X018257Y021199D01*
X018217Y021239D01*
X018373Y021119D02*
X018533Y021119D01*
X018493Y020999D02*
X018493Y021239D01*
X018373Y021119D01*
X018257Y020999D02*
X018097Y020999D01*
X017980Y021119D02*
X017820Y021119D01*
X017820Y021159D02*
X017820Y020999D01*
X017820Y021159D02*
X017900Y021239D01*
X017980Y021159D01*
X017704Y021119D02*
X017664Y021079D01*
X017544Y021079D01*
X017544Y020999D02*
X017544Y021239D01*
X017664Y021239D01*
X017704Y021199D01*
X017704Y021119D01*
X017684Y020578D02*
X017724Y020538D01*
X017724Y020498D01*
X017684Y020458D01*
X017724Y020418D01*
X017724Y020378D01*
X017684Y020338D01*
X017604Y020338D01*
X017564Y020378D01*
X017644Y020458D02*
X017684Y020458D01*
X017684Y020578D02*
X017604Y020578D01*
X017564Y020538D01*
X017448Y020538D02*
X017408Y020578D01*
X017328Y020578D01*
X017288Y020538D01*
X017172Y020498D02*
X017172Y020338D01*
X017288Y020338D02*
X017448Y020498D01*
X017448Y020538D01*
X017448Y020338D02*
X017288Y020338D01*
X017172Y020458D02*
X017012Y020458D01*
X017012Y020498D02*
X017092Y020578D01*
X017172Y020498D01*
X017012Y020498D02*
X017012Y020338D01*
X016896Y020458D02*
X016856Y020418D01*
X016736Y020418D01*
X016736Y020338D02*
X016736Y020578D01*
X016856Y020578D01*
X016896Y020538D01*
X016896Y020458D01*
X016755Y019465D02*
X016755Y019304D01*
X016996Y019304D01*
X016996Y019188D02*
X016835Y019188D01*
X016875Y019304D02*
X016875Y019384D01*
X016996Y019188D02*
X016996Y019068D01*
X016956Y019028D01*
X016835Y019028D01*
X016662Y018976D02*
X016662Y018740D01*
X016755Y018832D02*
X016996Y018832D01*
X016996Y018752D02*
X016996Y018912D01*
X016835Y018752D02*
X016755Y018832D01*
X016956Y018654D02*
X016996Y018654D01*
X016996Y018614D01*
X016956Y018614D01*
X016956Y018654D01*
X016956Y018498D02*
X016996Y018458D01*
X016996Y018378D01*
X016956Y018338D01*
X016795Y018498D01*
X016956Y018498D01*
X016956Y018338D02*
X016795Y018338D01*
X016755Y018378D01*
X016755Y018458D01*
X016795Y018498D01*
X016189Y018740D02*
X016189Y018976D01*
X016071Y019024D02*
X016071Y018864D01*
X015910Y019024D01*
X015870Y019024D01*
X015830Y018984D01*
X015830Y018904D01*
X015870Y018864D01*
X015870Y018748D02*
X015830Y018708D01*
X015830Y018628D01*
X015870Y018588D01*
X016031Y018588D01*
X016071Y018628D01*
X016071Y018708D01*
X016031Y018748D01*
X016031Y019140D02*
X015870Y019300D01*
X016031Y019300D01*
X016071Y019260D01*
X016071Y019180D01*
X016031Y019140D01*
X015870Y019140D01*
X015830Y019180D01*
X015830Y019260D01*
X015870Y019300D01*
X018366Y020143D02*
X018366Y020383D01*
X018486Y020383D01*
X018526Y020343D01*
X018526Y020263D01*
X018486Y020223D01*
X018366Y020223D01*
X018446Y020223D02*
X018526Y020143D01*
X018642Y020143D02*
X018802Y020143D01*
X018722Y020143D02*
X018722Y020383D01*
X018642Y020303D01*
X019192Y021548D02*
X019272Y021548D01*
X019324Y022244D02*
X019087Y022244D01*
X019056Y022363D02*
X019096Y022403D01*
X019056Y022363D02*
X018976Y022363D01*
X018936Y022403D01*
X018936Y022563D01*
X018976Y022603D01*
X019056Y022603D01*
X019096Y022563D01*
X019212Y022523D02*
X019292Y022603D01*
X019292Y022363D01*
X019212Y022363D02*
X019372Y022363D01*
X019488Y022363D02*
X019648Y022363D01*
X019568Y022363D02*
X019568Y022603D01*
X019488Y022523D01*
X019502Y022688D02*
X019502Y022928D01*
X019662Y022928D01*
X019582Y022808D02*
X019502Y022808D01*
X019386Y022848D02*
X019386Y022688D01*
X019266Y022688D01*
X019226Y022728D01*
X019226Y022848D01*
X019110Y022688D02*
X018950Y022688D01*
X019030Y022688D02*
X019030Y022928D01*
X018950Y022848D01*
X018852Y022728D02*
X018852Y022688D01*
X018812Y022688D01*
X018812Y022728D01*
X018852Y022728D01*
X018696Y022728D02*
X018696Y022888D01*
X018536Y022728D01*
X018576Y022688D01*
X018656Y022688D01*
X018696Y022728D01*
X018696Y022888D02*
X018656Y022928D01*
X018576Y022928D01*
X018536Y022888D01*
X018536Y022728D01*
X019087Y023021D02*
X019324Y023021D01*
X019324Y023494D02*
X019087Y023494D01*
X019012Y023613D02*
X019172Y023773D01*
X019172Y023813D01*
X019132Y023853D01*
X019052Y023853D01*
X019012Y023813D01*
X018896Y023813D02*
X018856Y023853D01*
X018776Y023853D01*
X018736Y023813D01*
X018736Y023653D01*
X018776Y023613D01*
X018856Y023613D01*
X018896Y023653D01*
X019012Y023613D02*
X019172Y023613D01*
X019288Y023613D02*
X019448Y023773D01*
X019448Y023813D01*
X019408Y023853D01*
X019328Y023853D01*
X019288Y023813D01*
X019288Y023613D02*
X019448Y023613D01*
X019105Y023948D02*
X018985Y024028D01*
X019105Y024108D01*
X018985Y024188D02*
X018985Y023948D01*
X018869Y024148D02*
X018709Y023988D01*
X018709Y023948D01*
X018553Y023948D02*
X018553Y024188D01*
X018433Y024068D01*
X018593Y024068D01*
X018709Y024188D02*
X018869Y024188D01*
X018869Y024148D01*
X019087Y024271D02*
X019324Y024271D01*
X019324Y024744D02*
X019087Y024744D01*
X019146Y024893D02*
X019066Y024973D01*
X019106Y024973D02*
X018986Y024973D01*
X018986Y024893D02*
X018986Y025133D01*
X019106Y025133D01*
X019146Y025093D01*
X019146Y025013D01*
X019106Y024973D01*
X019262Y024973D02*
X019302Y025013D01*
X019382Y025013D01*
X019422Y024973D01*
X019422Y024933D01*
X019382Y024893D01*
X019302Y024893D01*
X019262Y024933D01*
X019262Y024973D01*
X019302Y025013D02*
X019262Y025053D01*
X019262Y025093D01*
X019302Y025133D01*
X019382Y025133D01*
X019422Y025093D01*
X019422Y025053D01*
X019382Y025013D01*
X018636Y026085D02*
X018676Y026125D01*
X018676Y026205D01*
X018636Y026245D01*
X018595Y026245D01*
X018555Y026205D01*
X018555Y026125D01*
X018515Y026085D01*
X018475Y026085D01*
X018435Y026125D01*
X018435Y026205D01*
X018475Y026245D01*
X018515Y026361D02*
X018435Y026441D01*
X018676Y026441D01*
X018676Y026361D02*
X018676Y026522D01*
X019660Y027078D02*
X019700Y027038D01*
X019861Y027038D01*
X019901Y027078D01*
X019901Y027158D01*
X019861Y027198D01*
X019901Y027314D02*
X019901Y027474D01*
X019901Y027394D02*
X019660Y027394D01*
X019740Y027314D01*
X019700Y027198D02*
X019660Y027158D01*
X019660Y027078D01*
X020019Y027540D02*
X020019Y027776D01*
X020492Y027776D02*
X020492Y027540D01*
X020558Y028278D02*
X020518Y028318D01*
X020678Y028478D01*
X020678Y028318D01*
X020638Y028278D01*
X020558Y028278D01*
X020518Y028318D02*
X020518Y028478D01*
X020558Y028518D01*
X020638Y028518D01*
X020678Y028478D01*
X020794Y028438D02*
X020914Y028438D01*
X020954Y028398D01*
X020954Y028278D01*
X020794Y028278D02*
X020794Y028438D01*
X021061Y028488D02*
X021141Y028488D01*
X021101Y028488D02*
X021101Y028728D01*
X021061Y028728D02*
X021141Y028728D01*
X021245Y028688D02*
X021245Y028528D01*
X021285Y028488D01*
X021365Y028488D01*
X021405Y028528D01*
X021521Y028608D02*
X021681Y028608D01*
X021641Y028488D02*
X021641Y028728D01*
X021521Y028608D01*
X021405Y028688D02*
X021365Y028728D01*
X021285Y028728D01*
X021245Y028688D01*
X021156Y028858D02*
X021056Y028858D01*
X021056Y028958D01*
X021056Y029358D02*
X021056Y029458D01*
X021156Y029458D01*
X021556Y029458D02*
X021656Y029458D01*
X021656Y029358D01*
X021775Y029351D02*
X021775Y029471D01*
X021815Y029511D01*
X021976Y029511D01*
X022016Y029471D01*
X022016Y029351D01*
X021775Y029351D01*
X021775Y029235D02*
X022016Y029235D01*
X021775Y029075D01*
X022016Y029075D01*
X021976Y028959D02*
X021895Y028959D01*
X021895Y028879D01*
X021815Y028799D02*
X021976Y028799D01*
X022016Y028839D01*
X022016Y028919D01*
X021976Y028959D01*
X021815Y028959D02*
X021775Y028919D01*
X021775Y028839D01*
X021815Y028799D01*
X021656Y028858D02*
X021656Y028958D01*
X021656Y028858D02*
X021556Y028858D01*
X022040Y028511D02*
X022080Y028551D01*
X022241Y028391D01*
X022281Y028431D01*
X022281Y028511D01*
X022241Y028551D01*
X022080Y028551D01*
X022040Y028511D02*
X022040Y028431D01*
X022080Y028391D01*
X022241Y028391D01*
X022241Y028275D02*
X022281Y028235D01*
X022281Y028155D01*
X022241Y028115D01*
X022160Y028195D02*
X022160Y028235D01*
X022200Y028275D01*
X022241Y028275D01*
X022160Y028235D02*
X022120Y028275D01*
X022080Y028275D01*
X022040Y028235D01*
X022040Y028155D01*
X022080Y028115D01*
X022040Y027919D02*
X022281Y027919D01*
X022281Y027839D02*
X022281Y027999D01*
X022120Y027839D02*
X022040Y027919D01*
X022080Y027723D02*
X022160Y027723D01*
X022200Y027683D01*
X022200Y027563D01*
X022281Y027563D02*
X022040Y027563D01*
X022040Y027683D01*
X022080Y027723D01*
X022080Y027447D02*
X022040Y027407D01*
X022040Y027326D01*
X022080Y027286D01*
X022241Y027286D01*
X022281Y027326D01*
X022281Y027407D01*
X022241Y027447D01*
X022281Y027170D02*
X022040Y027170D01*
X022120Y027090D01*
X022040Y027010D01*
X022281Y027010D01*
X022222Y026828D02*
X022062Y026828D01*
X022142Y026828D02*
X022142Y026588D01*
X022338Y026588D02*
X022338Y026748D01*
X022418Y026828D01*
X022498Y026748D01*
X022498Y026588D01*
X022498Y026708D02*
X022338Y026708D01*
X022614Y026788D02*
X022614Y026628D01*
X022654Y026588D01*
X022734Y026588D01*
X022774Y026628D01*
X022774Y026708D01*
X022694Y026708D01*
X022614Y026788D02*
X022654Y026828D01*
X022734Y026828D01*
X022774Y026788D01*
X021946Y026828D02*
X021866Y026828D01*
X021906Y026828D02*
X021906Y026628D01*
X021866Y026588D01*
X021826Y026588D01*
X021786Y026628D01*
X020362Y028278D02*
X020282Y028278D01*
X020242Y028318D01*
X020402Y028478D01*
X020402Y028318D01*
X020362Y028278D01*
X020242Y028318D02*
X020242Y028478D01*
X020282Y028518D01*
X020362Y028518D01*
X020402Y028478D01*
X020336Y028781D02*
X020376Y028821D01*
X020376Y028901D01*
X020336Y028941D01*
X020295Y028941D01*
X020255Y028901D01*
X020255Y028861D01*
X020255Y028901D02*
X020215Y028941D01*
X020175Y028941D01*
X020135Y028901D01*
X020135Y028821D01*
X020175Y028781D01*
X020006Y028858D02*
X020006Y028958D01*
X020006Y028858D02*
X019906Y028858D01*
X020046Y028518D02*
X020046Y028278D01*
X019966Y028278D02*
X020126Y028278D01*
X019966Y028438D02*
X020046Y028518D01*
X020336Y029057D02*
X020336Y029097D01*
X020376Y029097D01*
X020376Y029057D01*
X020336Y029057D01*
X020336Y029195D02*
X020376Y029235D01*
X020376Y029315D01*
X020336Y029355D01*
X020295Y029355D01*
X020255Y029315D01*
X020255Y029275D01*
X020255Y029315D02*
X020215Y029355D01*
X020175Y029355D01*
X020135Y029315D01*
X020135Y029235D01*
X020175Y029195D01*
X020006Y029358D02*
X020006Y029458D01*
X019906Y029458D01*
X020135Y029471D02*
X020295Y029471D01*
X020376Y029551D01*
X020295Y029631D01*
X020135Y029631D01*
X020176Y029828D02*
X020256Y029828D01*
X020216Y029828D02*
X020216Y030068D01*
X020176Y030068D02*
X020256Y030068D01*
X020360Y029948D02*
X020360Y029868D01*
X020400Y029828D01*
X020480Y029828D01*
X020520Y029868D01*
X020520Y029948D01*
X020480Y029988D01*
X020400Y029988D01*
X020360Y029948D01*
X020636Y029988D02*
X020636Y029868D01*
X020676Y029828D01*
X020796Y029828D01*
X020796Y029988D01*
X020912Y029988D02*
X020992Y029988D01*
X020952Y030028D02*
X020952Y029868D01*
X020992Y029828D01*
X021056Y030634D02*
X021156Y030634D01*
X021056Y030634D02*
X021056Y030734D01*
X020836Y030734D02*
X020836Y030634D01*
X020736Y030634D01*
X020336Y030634D02*
X020236Y030634D01*
X020236Y030734D01*
X020006Y030734D02*
X020006Y030634D01*
X019906Y030634D01*
X019506Y030634D02*
X019406Y030634D01*
X019406Y030734D01*
X019276Y030704D02*
X019276Y030664D01*
X019236Y030664D01*
X019236Y030704D01*
X019276Y030704D01*
X019236Y030802D02*
X019276Y030842D01*
X019276Y030922D01*
X019236Y030962D01*
X019195Y030962D01*
X019155Y030922D01*
X019155Y030882D01*
X019155Y030922D02*
X019115Y030962D01*
X019075Y030962D01*
X019035Y030922D01*
X019035Y030842D01*
X019075Y030802D01*
X019075Y030548D02*
X019035Y030508D01*
X019035Y030428D01*
X019075Y030388D01*
X019155Y030468D02*
X019155Y030508D01*
X019195Y030548D01*
X019236Y030548D01*
X019276Y030508D01*
X019276Y030428D01*
X019236Y030388D01*
X019155Y030508D02*
X019115Y030548D01*
X019075Y030548D01*
X019035Y031078D02*
X019195Y031078D01*
X019276Y031158D01*
X019195Y031238D01*
X019035Y031238D01*
X019406Y031234D02*
X019406Y031134D01*
X019406Y031234D02*
X019506Y031234D01*
X019906Y031234D02*
X020006Y031234D01*
X020006Y031134D01*
X020236Y031134D02*
X020236Y031234D01*
X020336Y031234D01*
X020135Y031462D02*
X019975Y031462D01*
X019895Y031542D01*
X019975Y031622D01*
X020135Y031622D01*
X020135Y031738D02*
X019895Y031738D01*
X019895Y031858D01*
X019935Y031898D01*
X020015Y031898D01*
X020055Y031858D01*
X020055Y031738D01*
X020015Y031622D02*
X020015Y031462D01*
X019895Y032014D02*
X019895Y032135D01*
X019935Y032175D01*
X020095Y032175D01*
X020135Y032135D01*
X020135Y032014D01*
X019895Y032014D01*
X019692Y032140D02*
X019692Y032376D01*
X019895Y032411D02*
X019895Y032331D01*
X019935Y032291D01*
X019975Y032291D01*
X020015Y032331D01*
X020015Y032411D01*
X020055Y032451D01*
X020095Y032451D01*
X020135Y032411D01*
X020135Y032331D01*
X020095Y032291D01*
X019935Y032451D02*
X019895Y032411D01*
X019935Y032567D02*
X019975Y032567D01*
X020015Y032607D01*
X020015Y032727D01*
X019935Y032727D02*
X019895Y032687D01*
X019895Y032607D01*
X019935Y032567D01*
X019935Y032727D02*
X020095Y032727D01*
X020135Y032687D01*
X020135Y032607D01*
X020095Y032567D01*
X020055Y032843D02*
X019975Y032963D01*
X019848Y032943D02*
X019848Y032903D01*
X019808Y032863D01*
X019728Y032863D01*
X019688Y032903D01*
X019688Y032943D01*
X019728Y032983D01*
X019808Y032983D01*
X019848Y032943D01*
X019808Y032983D02*
X019848Y033023D01*
X019848Y033063D01*
X019808Y033103D01*
X019728Y033103D01*
X019688Y033063D01*
X019688Y033023D01*
X019728Y032983D01*
X019572Y033023D02*
X019572Y033063D01*
X019532Y033103D01*
X019452Y033103D01*
X019412Y033063D01*
X019296Y033063D02*
X019256Y033103D01*
X019176Y033103D01*
X019136Y033063D01*
X019136Y032903D01*
X019176Y032863D01*
X019256Y032863D01*
X019296Y032903D01*
X019412Y032863D02*
X019572Y033023D01*
X019572Y032863D02*
X019412Y032863D01*
X019116Y032764D02*
X018875Y032764D01*
X018875Y032925D01*
X018995Y032844D02*
X018995Y032764D01*
X018955Y032648D02*
X019116Y032648D01*
X019116Y032528D01*
X019076Y032488D01*
X018955Y032488D01*
X019116Y032372D02*
X019116Y032212D01*
X019116Y032292D02*
X018875Y032292D01*
X018955Y032212D01*
X019076Y032114D02*
X019116Y032114D01*
X019116Y032074D01*
X019076Y032074D01*
X019076Y032114D01*
X019219Y032140D02*
X019219Y032376D01*
X019076Y031958D02*
X018915Y031958D01*
X019076Y031798D01*
X019116Y031838D01*
X019116Y031918D01*
X019076Y031958D01*
X019076Y031798D02*
X018915Y031798D01*
X018875Y031838D01*
X018875Y031918D01*
X018915Y031958D01*
X019895Y032843D02*
X020135Y032843D01*
X020055Y032843D02*
X020135Y032963D01*
X020135Y033073D02*
X020095Y033073D01*
X019935Y033233D01*
X019895Y033233D01*
X019895Y033073D01*
X021196Y032718D02*
X021196Y032558D01*
X021317Y032558D01*
X021277Y032638D01*
X021277Y032678D01*
X021317Y032718D01*
X021397Y032718D01*
X021437Y032678D01*
X021437Y032598D01*
X021397Y032558D01*
X021397Y032442D02*
X021437Y032402D01*
X021437Y032322D01*
X021397Y032282D01*
X021237Y032282D01*
X021196Y032322D01*
X021196Y032402D01*
X021237Y032442D01*
X021196Y032178D02*
X021196Y032098D01*
X021196Y032138D02*
X021437Y032138D01*
X021437Y032098D02*
X021437Y032178D01*
X021556Y031234D02*
X021656Y031234D01*
X021656Y031134D01*
X021775Y031171D02*
X021775Y031051D01*
X022016Y031051D01*
X022016Y031171D01*
X021976Y031211D01*
X021815Y031211D01*
X021775Y031171D01*
X021775Y030935D02*
X022016Y030935D01*
X021775Y030775D01*
X022016Y030775D01*
X021976Y030659D02*
X021895Y030659D01*
X021895Y030579D01*
X021815Y030499D02*
X021976Y030499D01*
X022016Y030539D01*
X022016Y030619D01*
X021976Y030659D01*
X021815Y030659D02*
X021775Y030619D01*
X021775Y030539D01*
X021815Y030499D01*
X021656Y030634D02*
X021656Y030734D01*
X021656Y030634D02*
X021556Y030634D01*
X021056Y031134D02*
X021056Y031234D01*
X021156Y031234D01*
X020836Y031234D02*
X020736Y031234D01*
X020836Y031234D02*
X020836Y031134D01*
X019506Y029458D02*
X019406Y029458D01*
X019406Y029358D01*
X019406Y028958D02*
X019406Y028858D01*
X019506Y028858D01*
X019224Y028494D02*
X018987Y028494D01*
X018992Y028613D02*
X018992Y028853D01*
X018912Y028773D01*
X018796Y028813D02*
X018796Y028733D01*
X018756Y028693D01*
X018636Y028693D01*
X018716Y028693D02*
X018796Y028613D01*
X018912Y028613D02*
X019072Y028613D01*
X018796Y028813D02*
X018756Y028853D01*
X018636Y028853D01*
X018636Y028613D01*
X018987Y028021D02*
X019224Y028021D01*
X018925Y027848D02*
X018805Y027768D01*
X018925Y027688D01*
X018805Y027688D02*
X018805Y027928D01*
X018689Y027888D02*
X018529Y027728D01*
X018569Y027688D01*
X018649Y027688D01*
X018689Y027728D01*
X018689Y027888D01*
X018649Y027928D01*
X018569Y027928D01*
X018529Y027888D01*
X018529Y027728D01*
X018413Y027688D02*
X018253Y027688D01*
X018333Y027688D02*
X018333Y027928D01*
X018253Y027848D01*
X015756Y032358D02*
X015758Y032431D01*
X015764Y032504D01*
X015774Y032576D01*
X015788Y032648D01*
X015805Y032719D01*
X015827Y032789D01*
X015852Y032858D01*
X015881Y032925D01*
X015913Y032990D01*
X015949Y033054D01*
X015989Y033116D01*
X016031Y033175D01*
X016077Y033232D01*
X016126Y033286D01*
X016178Y033338D01*
X016232Y033387D01*
X016289Y033433D01*
X016348Y033475D01*
X016410Y033515D01*
X016474Y033551D01*
X016539Y033583D01*
X016606Y033612D01*
X016675Y033637D01*
X016745Y033659D01*
X016816Y033676D01*
X016888Y033690D01*
X016960Y033700D01*
X017033Y033706D01*
X017106Y033708D01*
X017179Y033706D01*
X017252Y033700D01*
X017324Y033690D01*
X017396Y033676D01*
X017467Y033659D01*
X017537Y033637D01*
X017606Y033612D01*
X017673Y033583D01*
X017738Y033551D01*
X017802Y033515D01*
X017864Y033475D01*
X017923Y033433D01*
X017980Y033387D01*
X018034Y033338D01*
X018086Y033286D01*
X018135Y033232D01*
X018181Y033175D01*
X018223Y033116D01*
X018263Y033054D01*
X018299Y032990D01*
X018331Y032925D01*
X018360Y032858D01*
X018385Y032789D01*
X018407Y032719D01*
X018424Y032648D01*
X018438Y032576D01*
X018448Y032504D01*
X018454Y032431D01*
X018456Y032358D01*
X018454Y032285D01*
X018448Y032212D01*
X018438Y032140D01*
X018424Y032068D01*
X018407Y031997D01*
X018385Y031927D01*
X018360Y031858D01*
X018331Y031791D01*
X018299Y031726D01*
X018263Y031662D01*
X018223Y031600D01*
X018181Y031541D01*
X018135Y031484D01*
X018086Y031430D01*
X018034Y031378D01*
X017980Y031329D01*
X017923Y031283D01*
X017864Y031241D01*
X017802Y031201D01*
X017738Y031165D01*
X017673Y031133D01*
X017606Y031104D01*
X017537Y031079D01*
X017467Y031057D01*
X017396Y031040D01*
X017324Y031026D01*
X017252Y031016D01*
X017179Y031010D01*
X017106Y031008D01*
X017033Y031010D01*
X016960Y031016D01*
X016888Y031026D01*
X016816Y031040D01*
X016745Y031057D01*
X016675Y031079D01*
X016606Y031104D01*
X016539Y031133D01*
X016474Y031165D01*
X016410Y031201D01*
X016348Y031241D01*
X016289Y031283D01*
X016232Y031329D01*
X016178Y031378D01*
X016126Y031430D01*
X016077Y031484D01*
X016031Y031541D01*
X015989Y031600D01*
X015949Y031662D01*
X015913Y031726D01*
X015881Y031791D01*
X015852Y031858D01*
X015827Y031927D01*
X015805Y031997D01*
X015788Y032068D01*
X015774Y032140D01*
X015764Y032212D01*
X015758Y032285D01*
X015756Y032358D01*
X021856Y032358D02*
X021858Y032431D01*
X021864Y032504D01*
X021874Y032576D01*
X021888Y032648D01*
X021905Y032719D01*
X021927Y032789D01*
X021952Y032858D01*
X021981Y032925D01*
X022013Y032990D01*
X022049Y033054D01*
X022089Y033116D01*
X022131Y033175D01*
X022177Y033232D01*
X022226Y033286D01*
X022278Y033338D01*
X022332Y033387D01*
X022389Y033433D01*
X022448Y033475D01*
X022510Y033515D01*
X022574Y033551D01*
X022639Y033583D01*
X022706Y033612D01*
X022775Y033637D01*
X022845Y033659D01*
X022916Y033676D01*
X022988Y033690D01*
X023060Y033700D01*
X023133Y033706D01*
X023206Y033708D01*
X023279Y033706D01*
X023352Y033700D01*
X023424Y033690D01*
X023496Y033676D01*
X023567Y033659D01*
X023637Y033637D01*
X023706Y033612D01*
X023773Y033583D01*
X023838Y033551D01*
X023902Y033515D01*
X023964Y033475D01*
X024023Y033433D01*
X024080Y033387D01*
X024134Y033338D01*
X024186Y033286D01*
X024235Y033232D01*
X024281Y033175D01*
X024323Y033116D01*
X024363Y033054D01*
X024399Y032990D01*
X024431Y032925D01*
X024460Y032858D01*
X024485Y032789D01*
X024507Y032719D01*
X024524Y032648D01*
X024538Y032576D01*
X024548Y032504D01*
X024554Y032431D01*
X024556Y032358D01*
X024554Y032285D01*
X024548Y032212D01*
X024538Y032140D01*
X024524Y032068D01*
X024507Y031997D01*
X024485Y031927D01*
X024460Y031858D01*
X024431Y031791D01*
X024399Y031726D01*
X024363Y031662D01*
X024323Y031600D01*
X024281Y031541D01*
X024235Y031484D01*
X024186Y031430D01*
X024134Y031378D01*
X024080Y031329D01*
X024023Y031283D01*
X023964Y031241D01*
X023902Y031201D01*
X023838Y031165D01*
X023773Y031133D01*
X023706Y031104D01*
X023637Y031079D01*
X023567Y031057D01*
X023496Y031040D01*
X023424Y031026D01*
X023352Y031016D01*
X023279Y031010D01*
X023206Y031008D01*
X023133Y031010D01*
X023060Y031016D01*
X022988Y031026D01*
X022916Y031040D01*
X022845Y031057D01*
X022775Y031079D01*
X022706Y031104D01*
X022639Y031133D01*
X022574Y031165D01*
X022510Y031201D01*
X022448Y031241D01*
X022389Y031283D01*
X022332Y031329D01*
X022278Y031378D01*
X022226Y031430D01*
X022177Y031484D01*
X022131Y031541D01*
X022089Y031600D01*
X022049Y031662D01*
X022013Y031726D01*
X021981Y031791D01*
X021952Y031858D01*
X021927Y031927D01*
X021905Y031997D01*
X021888Y032068D01*
X021874Y032140D01*
X021864Y032212D01*
X021858Y032285D01*
X021856Y032358D01*
X022356Y028358D02*
X022358Y028431D01*
X022364Y028504D01*
X022374Y028576D01*
X022388Y028648D01*
X022405Y028719D01*
X022427Y028789D01*
X022452Y028858D01*
X022481Y028925D01*
X022513Y028990D01*
X022549Y029054D01*
X022589Y029116D01*
X022631Y029175D01*
X022677Y029232D01*
X022726Y029286D01*
X022778Y029338D01*
X022832Y029387D01*
X022889Y029433D01*
X022948Y029475D01*
X023010Y029515D01*
X023074Y029551D01*
X023139Y029583D01*
X023206Y029612D01*
X023275Y029637D01*
X023345Y029659D01*
X023416Y029676D01*
X023488Y029690D01*
X023560Y029700D01*
X023633Y029706D01*
X023706Y029708D01*
X023779Y029706D01*
X023852Y029700D01*
X023924Y029690D01*
X023996Y029676D01*
X024067Y029659D01*
X024137Y029637D01*
X024206Y029612D01*
X024273Y029583D01*
X024338Y029551D01*
X024402Y029515D01*
X024464Y029475D01*
X024523Y029433D01*
X024580Y029387D01*
X024634Y029338D01*
X024686Y029286D01*
X024735Y029232D01*
X024781Y029175D01*
X024823Y029116D01*
X024863Y029054D01*
X024899Y028990D01*
X024931Y028925D01*
X024960Y028858D01*
X024985Y028789D01*
X025007Y028719D01*
X025024Y028648D01*
X025038Y028576D01*
X025048Y028504D01*
X025054Y028431D01*
X025056Y028358D01*
X025054Y028285D01*
X025048Y028212D01*
X025038Y028140D01*
X025024Y028068D01*
X025007Y027997D01*
X024985Y027927D01*
X024960Y027858D01*
X024931Y027791D01*
X024899Y027726D01*
X024863Y027662D01*
X024823Y027600D01*
X024781Y027541D01*
X024735Y027484D01*
X024686Y027430D01*
X024634Y027378D01*
X024580Y027329D01*
X024523Y027283D01*
X024464Y027241D01*
X024402Y027201D01*
X024338Y027165D01*
X024273Y027133D01*
X024206Y027104D01*
X024137Y027079D01*
X024067Y027057D01*
X023996Y027040D01*
X023924Y027026D01*
X023852Y027016D01*
X023779Y027010D01*
X023706Y027008D01*
X023633Y027010D01*
X023560Y027016D01*
X023488Y027026D01*
X023416Y027040D01*
X023345Y027057D01*
X023275Y027079D01*
X023206Y027104D01*
X023139Y027133D01*
X023074Y027165D01*
X023010Y027201D01*
X022948Y027241D01*
X022889Y027283D01*
X022832Y027329D01*
X022778Y027378D01*
X022726Y027430D01*
X022677Y027484D01*
X022631Y027541D01*
X022589Y027600D01*
X022549Y027662D01*
X022513Y027726D01*
X022481Y027791D01*
X022452Y027858D01*
X022427Y027927D01*
X022405Y027997D01*
X022388Y028068D01*
X022374Y028140D01*
X022364Y028212D01*
X022358Y028285D01*
X022356Y028358D01*
X018702Y018193D02*
X018702Y017953D01*
X018622Y017953D02*
X018782Y017953D01*
X018622Y018113D02*
X018702Y018193D01*
X018506Y018153D02*
X018506Y018073D01*
X018466Y018033D01*
X018346Y018033D01*
X018426Y018033D02*
X018506Y017953D01*
X018346Y017953D02*
X018346Y018193D01*
X018466Y018193D01*
X018506Y018153D01*
D11*
X015902Y019649D02*
X015804Y019551D01*
X010597Y019551D01*
X010499Y019649D01*
X010499Y024718D01*
X010745Y024964D01*
X015814Y024964D01*
X015912Y024866D01*
X015902Y019649D01*
X010745Y024620D02*
X010747Y024639D01*
X010752Y024658D01*
X010762Y024674D01*
X010774Y024689D01*
X010789Y024701D01*
X010805Y024711D01*
X010824Y024716D01*
X010843Y024718D01*
X010862Y024716D01*
X010881Y024711D01*
X010897Y024701D01*
X010912Y024689D01*
X010924Y024674D01*
X010934Y024658D01*
X010939Y024639D01*
X010941Y024620D01*
X010939Y024601D01*
X010934Y024582D01*
X010924Y024566D01*
X010912Y024551D01*
X010897Y024539D01*
X010881Y024529D01*
X010862Y024524D01*
X010843Y024522D01*
X010824Y024524D01*
X010805Y024529D01*
X010789Y024539D01*
X010774Y024551D01*
X010762Y024566D01*
X010752Y024582D01*
X010747Y024601D01*
X010745Y024620D01*
X010792Y030258D02*
X010792Y030458D01*
X010726Y030525D01*
X010526Y030525D01*
X010526Y030258D01*
X010352Y030258D02*
X010285Y030324D01*
X010285Y030591D01*
X010219Y030525D02*
X010352Y030525D01*
X010025Y030458D02*
X010025Y030391D01*
X009758Y030391D01*
X009758Y030324D02*
X009758Y030458D01*
X009825Y030525D01*
X009959Y030525D01*
X010025Y030458D01*
X009959Y030258D02*
X009825Y030258D01*
X009758Y030324D01*
X009565Y030258D02*
X009565Y030458D01*
X009498Y030525D01*
X009365Y030525D01*
X009298Y030458D01*
X009105Y030458D02*
X009105Y030391D01*
X008838Y030391D01*
X008838Y030324D02*
X008838Y030458D01*
X008904Y030525D01*
X009038Y030525D01*
X009105Y030458D01*
X009038Y030258D02*
X008904Y030258D01*
X008838Y030324D01*
X008644Y030258D02*
X008377Y030258D01*
X008377Y030324D01*
X008644Y030591D01*
X008644Y030658D01*
X008377Y030658D01*
X008521Y031208D02*
X008521Y031608D01*
X008654Y031475D01*
X008788Y031608D01*
X008788Y031208D01*
X008981Y031274D02*
X008981Y031408D01*
X009048Y031475D01*
X009181Y031475D01*
X009248Y031408D01*
X009248Y031341D01*
X008981Y031341D01*
X008981Y031274D02*
X009048Y031208D01*
X009181Y031208D01*
X009508Y031274D02*
X009508Y031541D01*
X009441Y031475D02*
X009575Y031475D01*
X009748Y031408D02*
X009748Y031274D01*
X009815Y031208D01*
X009948Y031208D01*
X010015Y031341D02*
X009748Y031341D01*
X009748Y031408D02*
X009815Y031475D01*
X009948Y031475D01*
X010015Y031408D01*
X010015Y031341D01*
X010209Y031341D02*
X010342Y031475D01*
X010409Y031475D01*
X010209Y031475D02*
X010209Y031208D01*
X009575Y031208D02*
X009508Y031274D01*
X009298Y030658D02*
X009298Y030258D01*
X007887Y031208D02*
X007820Y031274D01*
X007820Y031541D01*
X007753Y031475D02*
X007887Y031475D01*
X007560Y031408D02*
X007560Y031208D01*
X007560Y031408D02*
X007493Y031475D01*
X007360Y031475D01*
X007293Y031408D01*
X007293Y031608D02*
X007293Y031208D01*
X007100Y031208D02*
X006899Y031208D01*
X006833Y031274D01*
X006833Y031408D01*
X006899Y031475D01*
X007100Y031475D01*
X007100Y031141D01*
X007033Y031074D01*
X006966Y031074D01*
X006659Y031208D02*
X006526Y031208D01*
X006593Y031208D02*
X006593Y031475D01*
X006526Y031475D01*
X006593Y031608D02*
X006593Y031675D01*
X006332Y031208D02*
X006066Y031208D01*
X006066Y031608D01*
X006209Y030658D02*
X006342Y030658D01*
X006276Y030658D02*
X006276Y030324D01*
X006209Y030258D01*
X006142Y030258D01*
X006076Y030324D01*
X006536Y030324D02*
X006603Y030258D01*
X006736Y030258D01*
X006803Y030324D01*
X006803Y030458D01*
X006736Y030525D01*
X006603Y030525D01*
X006536Y030458D01*
X006536Y030324D01*
X006996Y030258D02*
X006996Y030658D01*
X007063Y030525D02*
X007196Y030525D01*
X007263Y030458D01*
X007263Y030258D01*
X007457Y030258D02*
X007457Y030525D01*
X007657Y030525D01*
X007723Y030458D01*
X007723Y030258D01*
X007063Y030525D02*
X006996Y030458D01*
X010986Y030458D02*
X011053Y030525D01*
X011186Y030525D01*
X011253Y030458D01*
X011253Y030391D01*
X010986Y030391D01*
X010986Y030324D02*
X010986Y030458D01*
X010986Y030324D02*
X011053Y030258D01*
X011186Y030258D01*
X011446Y030258D02*
X011446Y030525D01*
X011580Y030525D02*
X011646Y030525D01*
X011580Y030525D02*
X011446Y030391D01*
X011973Y031208D02*
X011973Y031475D01*
X012107Y031475D02*
X012174Y031475D01*
X012107Y031475D02*
X011973Y031341D01*
X012357Y031341D02*
X012624Y031341D01*
X012624Y031408D01*
X012557Y031475D01*
X012424Y031475D01*
X012357Y031408D01*
X012357Y031274D01*
X012424Y031208D01*
X012557Y031208D01*
X012817Y031475D02*
X012951Y031208D01*
X013084Y031475D01*
X013738Y031408D02*
X013938Y031408D01*
X014005Y031341D01*
X014005Y031274D01*
X013938Y031208D01*
X013738Y031208D01*
X013738Y031608D01*
X013938Y031608D01*
X014005Y031541D01*
X014005Y031475D01*
X013938Y031408D01*
D12*
X003858Y003675D02*
X003858Y003281D01*
X004537Y002651D02*
X004931Y002651D01*
X004931Y002907D01*
X003858Y004423D02*
X003858Y008951D01*
X003720Y011462D02*
X002894Y011462D01*
X004705Y011737D02*
X004705Y012091D01*
X004705Y013824D02*
X004705Y014178D01*
X003720Y014454D02*
X002894Y014454D01*
X002854Y016982D02*
X002854Y017297D01*
X002854Y016982D02*
X003091Y016982D01*
X003720Y016982D02*
X003957Y016982D01*
X003957Y017297D01*
X002287Y023668D02*
X002287Y023983D01*
X002050Y023983D01*
X001421Y023983D02*
X001184Y023983D01*
X001184Y023668D01*
X001076Y028358D02*
X001078Y028408D01*
X001084Y028458D01*
X001094Y028507D01*
X001108Y028555D01*
X001125Y028602D01*
X001146Y028647D01*
X001171Y028691D01*
X001199Y028732D01*
X001231Y028771D01*
X001265Y028808D01*
X001302Y028842D01*
X001342Y028872D01*
X001384Y028899D01*
X001428Y028923D01*
X001474Y028944D01*
X001521Y028960D01*
X001569Y028973D01*
X001619Y028982D01*
X001668Y028987D01*
X001719Y028988D01*
X001769Y028985D01*
X001818Y028978D01*
X001867Y028967D01*
X001915Y028952D01*
X001961Y028934D01*
X002006Y028912D01*
X002049Y028886D01*
X002090Y028857D01*
X002129Y028825D01*
X002165Y028790D01*
X002197Y028752D01*
X002227Y028712D01*
X002254Y028669D01*
X002277Y028625D01*
X002296Y028579D01*
X002312Y028531D01*
X002324Y028482D01*
X002332Y028433D01*
X002336Y028383D01*
X002336Y028333D01*
X002332Y028283D01*
X002324Y028234D01*
X002312Y028185D01*
X002296Y028137D01*
X002277Y028091D01*
X002254Y028047D01*
X002227Y028004D01*
X002197Y027964D01*
X002165Y027926D01*
X002129Y027891D01*
X002090Y027859D01*
X002049Y027830D01*
X002006Y027804D01*
X001961Y027782D01*
X001915Y027764D01*
X001867Y027749D01*
X001818Y027738D01*
X001769Y027731D01*
X001719Y027728D01*
X001668Y027729D01*
X001619Y027734D01*
X001569Y027743D01*
X001521Y027756D01*
X001474Y027772D01*
X001428Y027793D01*
X001384Y027817D01*
X001342Y027844D01*
X001302Y027874D01*
X001265Y027908D01*
X001231Y027945D01*
X001199Y027984D01*
X001171Y028025D01*
X001146Y028069D01*
X001125Y028114D01*
X001108Y028161D01*
X001094Y028209D01*
X001084Y028258D01*
X001078Y028308D01*
X001076Y028358D01*
X011935Y009746D02*
X013116Y009746D01*
X013510Y009352D01*
X013510Y008565D01*
X013510Y006990D02*
X013510Y005809D01*
X011541Y005809D01*
X011541Y006990D01*
X011186Y006538D02*
X011186Y006252D01*
X011106Y006298D02*
X011108Y006315D01*
X011113Y006332D01*
X011122Y006346D01*
X011134Y006359D01*
X011149Y006369D01*
X011165Y006375D01*
X011182Y006378D01*
X011199Y006377D01*
X011216Y006372D01*
X011231Y006364D01*
X011244Y006353D01*
X011255Y006339D01*
X011262Y006324D01*
X011266Y006307D01*
X011266Y006289D01*
X011262Y006272D01*
X011255Y006257D01*
X011244Y006243D01*
X011231Y006232D01*
X011216Y006224D01*
X011199Y006219D01*
X011182Y006218D01*
X011165Y006221D01*
X011149Y006227D01*
X011134Y006237D01*
X011122Y006250D01*
X011113Y006264D01*
X011108Y006281D01*
X011106Y006298D01*
X011186Y005663D02*
X011186Y005377D01*
X011600Y005451D02*
X011600Y005629D01*
X013411Y005629D01*
X013411Y005451D01*
X013411Y004664D02*
X013411Y004487D01*
X011600Y004487D01*
X011600Y004664D01*
X012112Y004664D02*
X012112Y005451D01*
X013837Y004623D02*
X015018Y004623D01*
X015028Y004482D02*
X013847Y004482D01*
X013847Y002513D01*
X015028Y002513D01*
X016603Y002513D02*
X017390Y002513D01*
X017784Y002907D01*
X017784Y004088D01*
X017390Y004482D01*
X016603Y004482D01*
X016593Y004623D02*
X017380Y004623D01*
X017774Y005017D01*
X017774Y006198D01*
X017380Y006592D01*
X016593Y006592D01*
X015018Y006592D02*
X013837Y006592D01*
X013837Y004623D01*
X011541Y008565D02*
X011541Y009352D01*
X011935Y009746D01*
X009586Y008951D02*
X009586Y002927D01*
X008868Y002258D02*
X008080Y002258D01*
X008080Y002907D01*
X008081Y002908D02*
X007969Y002981D01*
X007854Y003050D01*
X007735Y003112D01*
X007613Y003169D01*
X007489Y003219D01*
X007363Y003264D01*
X007235Y003302D01*
X007104Y003334D01*
X006973Y003360D01*
X006840Y003380D01*
X006707Y003393D01*
X006573Y003399D01*
X006439Y003399D01*
X006305Y003393D01*
X006172Y003380D01*
X006039Y003360D01*
X005908Y003334D01*
X005777Y003302D01*
X005649Y003264D01*
X005523Y003219D01*
X005399Y003169D01*
X005277Y003112D01*
X005158Y003050D01*
X005043Y002981D01*
X004931Y002908D01*
X001076Y005258D02*
X001078Y005308D01*
X001084Y005358D01*
X001094Y005407D01*
X001108Y005455D01*
X001125Y005502D01*
X001146Y005547D01*
X001171Y005591D01*
X001199Y005632D01*
X001231Y005671D01*
X001265Y005708D01*
X001302Y005742D01*
X001342Y005772D01*
X001384Y005799D01*
X001428Y005823D01*
X001474Y005844D01*
X001521Y005860D01*
X001569Y005873D01*
X001619Y005882D01*
X001668Y005887D01*
X001719Y005888D01*
X001769Y005885D01*
X001818Y005878D01*
X001867Y005867D01*
X001915Y005852D01*
X001961Y005834D01*
X002006Y005812D01*
X002049Y005786D01*
X002090Y005757D01*
X002129Y005725D01*
X002165Y005690D01*
X002197Y005652D01*
X002227Y005612D01*
X002254Y005569D01*
X002277Y005525D01*
X002296Y005479D01*
X002312Y005431D01*
X002324Y005382D01*
X002332Y005333D01*
X002336Y005283D01*
X002336Y005233D01*
X002332Y005183D01*
X002324Y005134D01*
X002312Y005085D01*
X002296Y005037D01*
X002277Y004991D01*
X002254Y004947D01*
X002227Y004904D01*
X002197Y004864D01*
X002165Y004826D01*
X002129Y004791D01*
X002090Y004759D01*
X002049Y004730D01*
X002006Y004704D01*
X001961Y004682D01*
X001915Y004664D01*
X001867Y004649D01*
X001818Y004638D01*
X001769Y004631D01*
X001719Y004628D01*
X001668Y004629D01*
X001619Y004634D01*
X001569Y004643D01*
X001521Y004656D01*
X001474Y004672D01*
X001428Y004693D01*
X001384Y004717D01*
X001342Y004744D01*
X001302Y004774D01*
X001265Y004808D01*
X001231Y004845D01*
X001199Y004884D01*
X001171Y004925D01*
X001146Y004969D01*
X001125Y005014D01*
X001108Y005061D01*
X001094Y005109D01*
X001084Y005158D01*
X001078Y005208D01*
X001076Y005258D01*
X008080Y008951D02*
X009586Y008951D01*
X010025Y006538D02*
X010025Y006252D01*
X010025Y005663D02*
X010025Y005377D01*
X018800Y007187D02*
X018800Y007364D01*
X018800Y007187D02*
X020611Y007187D01*
X020611Y007364D01*
X020611Y008151D02*
X020611Y008329D01*
X018800Y008329D01*
X018800Y008151D01*
X019312Y008151D02*
X019312Y007364D01*
X022306Y008758D02*
X022308Y008778D01*
X022314Y008796D01*
X022323Y008814D01*
X022335Y008829D01*
X022350Y008841D01*
X022368Y008850D01*
X022386Y008856D01*
X022406Y008858D01*
X022426Y008856D01*
X022444Y008850D01*
X022462Y008841D01*
X022477Y008829D01*
X022489Y008814D01*
X022498Y008796D01*
X022504Y008778D01*
X022506Y008758D01*
X022504Y008738D01*
X022498Y008720D01*
X022489Y008702D01*
X022477Y008687D01*
X022462Y008675D01*
X022444Y008666D01*
X022426Y008660D01*
X022406Y008658D01*
X022386Y008660D01*
X022368Y008666D01*
X022350Y008675D01*
X022335Y008687D01*
X022323Y008702D01*
X022314Y008720D01*
X022308Y008738D01*
X022306Y008758D01*
X023076Y005258D02*
X023078Y005308D01*
X023084Y005358D01*
X023094Y005407D01*
X023108Y005455D01*
X023125Y005502D01*
X023146Y005547D01*
X023171Y005591D01*
X023199Y005632D01*
X023231Y005671D01*
X023265Y005708D01*
X023302Y005742D01*
X023342Y005772D01*
X023384Y005799D01*
X023428Y005823D01*
X023474Y005844D01*
X023521Y005860D01*
X023569Y005873D01*
X023619Y005882D01*
X023668Y005887D01*
X023719Y005888D01*
X023769Y005885D01*
X023818Y005878D01*
X023867Y005867D01*
X023915Y005852D01*
X023961Y005834D01*
X024006Y005812D01*
X024049Y005786D01*
X024090Y005757D01*
X024129Y005725D01*
X024165Y005690D01*
X024197Y005652D01*
X024227Y005612D01*
X024254Y005569D01*
X024277Y005525D01*
X024296Y005479D01*
X024312Y005431D01*
X024324Y005382D01*
X024332Y005333D01*
X024336Y005283D01*
X024336Y005233D01*
X024332Y005183D01*
X024324Y005134D01*
X024312Y005085D01*
X024296Y005037D01*
X024277Y004991D01*
X024254Y004947D01*
X024227Y004904D01*
X024197Y004864D01*
X024165Y004826D01*
X024129Y004791D01*
X024090Y004759D01*
X024049Y004730D01*
X024006Y004704D01*
X023961Y004682D01*
X023915Y004664D01*
X023867Y004649D01*
X023818Y004638D01*
X023769Y004631D01*
X023719Y004628D01*
X023668Y004629D01*
X023619Y004634D01*
X023569Y004643D01*
X023521Y004656D01*
X023474Y004672D01*
X023428Y004693D01*
X023384Y004717D01*
X023342Y004744D01*
X023302Y004774D01*
X023265Y004808D01*
X023231Y004845D01*
X023199Y004884D01*
X023171Y004925D01*
X023146Y004969D01*
X023125Y005014D01*
X023108Y005061D01*
X023094Y005109D01*
X023084Y005158D01*
X023078Y005208D01*
X023076Y005258D01*
X023877Y013481D02*
X020334Y013481D01*
X020334Y019091D01*
X020924Y019091D01*
X020924Y020824D01*
X020334Y020824D01*
X020334Y026434D01*
X023838Y026434D01*
X023877Y026434D02*
X023877Y013481D01*
X020334Y019091D02*
X020334Y020824D01*
X021013Y024208D02*
X021013Y024708D01*
X018706Y025651D02*
X018706Y026864D01*
X018206Y027258D02*
X017217Y027258D01*
X016706Y026864D02*
X016706Y025651D01*
X017217Y025258D02*
X018194Y025258D01*
X017206Y026258D02*
X017208Y026302D01*
X017214Y026346D01*
X017224Y026389D01*
X017237Y026431D01*
X017254Y026472D01*
X017275Y026511D01*
X017299Y026548D01*
X017326Y026583D01*
X017356Y026615D01*
X017389Y026645D01*
X017425Y026671D01*
X017462Y026695D01*
X017502Y026714D01*
X017543Y026731D01*
X017586Y026743D01*
X017629Y026752D01*
X017673Y026757D01*
X017717Y026758D01*
X017761Y026755D01*
X017805Y026748D01*
X017848Y026737D01*
X017890Y026723D01*
X017930Y026705D01*
X017969Y026683D01*
X018005Y026659D01*
X018039Y026631D01*
X018071Y026600D01*
X018100Y026566D01*
X018126Y026530D01*
X018148Y026492D01*
X018167Y026452D01*
X018182Y026410D01*
X018194Y026368D01*
X018202Y026324D01*
X018206Y026280D01*
X018206Y026236D01*
X018202Y026192D01*
X018194Y026148D01*
X018182Y026106D01*
X018167Y026064D01*
X018148Y026024D01*
X018126Y025986D01*
X018100Y025950D01*
X018071Y025916D01*
X018039Y025885D01*
X018005Y025857D01*
X017969Y025833D01*
X017930Y025811D01*
X017890Y025793D01*
X017848Y025779D01*
X017805Y025768D01*
X017761Y025761D01*
X017717Y025758D01*
X017673Y025759D01*
X017629Y025764D01*
X017586Y025773D01*
X017543Y025785D01*
X017502Y025802D01*
X017462Y025821D01*
X017425Y025845D01*
X017389Y025871D01*
X017356Y025901D01*
X017326Y025933D01*
X017299Y025968D01*
X017275Y026005D01*
X017254Y026044D01*
X017237Y026085D01*
X017224Y026127D01*
X017214Y026170D01*
X017208Y026214D01*
X017206Y026258D01*
X020804Y027718D02*
X020804Y028033D01*
X021041Y028033D01*
X021670Y028033D02*
X021907Y028033D01*
X021907Y027718D01*
X023076Y028358D02*
X023078Y028408D01*
X023084Y028458D01*
X023094Y028507D01*
X023108Y028555D01*
X023125Y028602D01*
X023146Y028647D01*
X023171Y028691D01*
X023199Y028732D01*
X023231Y028771D01*
X023265Y028808D01*
X023302Y028842D01*
X023342Y028872D01*
X023384Y028899D01*
X023428Y028923D01*
X023474Y028944D01*
X023521Y028960D01*
X023569Y028973D01*
X023619Y028982D01*
X023668Y028987D01*
X023719Y028988D01*
X023769Y028985D01*
X023818Y028978D01*
X023867Y028967D01*
X023915Y028952D01*
X023961Y028934D01*
X024006Y028912D01*
X024049Y028886D01*
X024090Y028857D01*
X024129Y028825D01*
X024165Y028790D01*
X024197Y028752D01*
X024227Y028712D01*
X024254Y028669D01*
X024277Y028625D01*
X024296Y028579D01*
X024312Y028531D01*
X024324Y028482D01*
X024332Y028433D01*
X024336Y028383D01*
X024336Y028333D01*
X024332Y028283D01*
X024324Y028234D01*
X024312Y028185D01*
X024296Y028137D01*
X024277Y028091D01*
X024254Y028047D01*
X024227Y028004D01*
X024197Y027964D01*
X024165Y027926D01*
X024129Y027891D01*
X024090Y027859D01*
X024049Y027830D01*
X024006Y027804D01*
X023961Y027782D01*
X023915Y027764D01*
X023867Y027749D01*
X023818Y027738D01*
X023769Y027731D01*
X023719Y027728D01*
X023668Y027729D01*
X023619Y027734D01*
X023569Y027743D01*
X023521Y027756D01*
X023474Y027772D01*
X023428Y027793D01*
X023384Y027817D01*
X023342Y027844D01*
X023302Y027874D01*
X023265Y027908D01*
X023231Y027945D01*
X023199Y027984D01*
X023171Y028025D01*
X023146Y028069D01*
X023125Y028114D01*
X023108Y028161D01*
X023094Y028209D01*
X023084Y028258D01*
X023078Y028308D01*
X023076Y028358D01*
X022576Y032358D02*
X022578Y032408D01*
X022584Y032458D01*
X022594Y032507D01*
X022608Y032555D01*
X022625Y032602D01*
X022646Y032647D01*
X022671Y032691D01*
X022699Y032732D01*
X022731Y032771D01*
X022765Y032808D01*
X022802Y032842D01*
X022842Y032872D01*
X022884Y032899D01*
X022928Y032923D01*
X022974Y032944D01*
X023021Y032960D01*
X023069Y032973D01*
X023119Y032982D01*
X023168Y032987D01*
X023219Y032988D01*
X023269Y032985D01*
X023318Y032978D01*
X023367Y032967D01*
X023415Y032952D01*
X023461Y032934D01*
X023506Y032912D01*
X023549Y032886D01*
X023590Y032857D01*
X023629Y032825D01*
X023665Y032790D01*
X023697Y032752D01*
X023727Y032712D01*
X023754Y032669D01*
X023777Y032625D01*
X023796Y032579D01*
X023812Y032531D01*
X023824Y032482D01*
X023832Y032433D01*
X023836Y032383D01*
X023836Y032333D01*
X023832Y032283D01*
X023824Y032234D01*
X023812Y032185D01*
X023796Y032137D01*
X023777Y032091D01*
X023754Y032047D01*
X023727Y032004D01*
X023697Y031964D01*
X023665Y031926D01*
X023629Y031891D01*
X023590Y031859D01*
X023549Y031830D01*
X023506Y031804D01*
X023461Y031782D01*
X023415Y031764D01*
X023367Y031749D01*
X023318Y031738D01*
X023269Y031731D01*
X023219Y031728D01*
X023168Y031729D01*
X023119Y031734D01*
X023069Y031743D01*
X023021Y031756D01*
X022974Y031772D01*
X022928Y031793D01*
X022884Y031817D01*
X022842Y031844D01*
X022802Y031874D01*
X022765Y031908D01*
X022731Y031945D01*
X022699Y031984D01*
X022671Y032025D01*
X022646Y032069D01*
X022625Y032114D01*
X022608Y032161D01*
X022594Y032209D01*
X022584Y032258D01*
X022578Y032308D01*
X022576Y032358D01*
X016476Y032358D02*
X016478Y032408D01*
X016484Y032458D01*
X016494Y032507D01*
X016508Y032555D01*
X016525Y032602D01*
X016546Y032647D01*
X016571Y032691D01*
X016599Y032732D01*
X016631Y032771D01*
X016665Y032808D01*
X016702Y032842D01*
X016742Y032872D01*
X016784Y032899D01*
X016828Y032923D01*
X016874Y032944D01*
X016921Y032960D01*
X016969Y032973D01*
X017019Y032982D01*
X017068Y032987D01*
X017119Y032988D01*
X017169Y032985D01*
X017218Y032978D01*
X017267Y032967D01*
X017315Y032952D01*
X017361Y032934D01*
X017406Y032912D01*
X017449Y032886D01*
X017490Y032857D01*
X017529Y032825D01*
X017565Y032790D01*
X017597Y032752D01*
X017627Y032712D01*
X017654Y032669D01*
X017677Y032625D01*
X017696Y032579D01*
X017712Y032531D01*
X017724Y032482D01*
X017732Y032433D01*
X017736Y032383D01*
X017736Y032333D01*
X017732Y032283D01*
X017724Y032234D01*
X017712Y032185D01*
X017696Y032137D01*
X017677Y032091D01*
X017654Y032047D01*
X017627Y032004D01*
X017597Y031964D01*
X017565Y031926D01*
X017529Y031891D01*
X017490Y031859D01*
X017449Y031830D01*
X017406Y031804D01*
X017361Y031782D01*
X017315Y031764D01*
X017267Y031749D01*
X017218Y031738D01*
X017169Y031731D01*
X017119Y031728D01*
X017068Y031729D01*
X017019Y031734D01*
X016969Y031743D01*
X016921Y031756D01*
X016874Y031772D01*
X016828Y031793D01*
X016784Y031817D01*
X016742Y031844D01*
X016702Y031874D01*
X016665Y031908D01*
X016631Y031945D01*
X016599Y031984D01*
X016571Y032025D01*
X016546Y032069D01*
X016525Y032114D01*
X016508Y032161D01*
X016494Y032209D01*
X016484Y032258D01*
X016478Y032308D01*
X016476Y032358D01*
D13*
X006465Y024908D02*
X006446Y024908D01*
X006447Y024908D02*
X006446Y024945D01*
X006441Y024982D01*
X006435Y025018D01*
X006425Y025053D01*
X006413Y025088D01*
X006398Y025122D01*
X006415Y025129D01*
X006415Y025130D01*
X006431Y025095D01*
X006443Y025059D01*
X006453Y025022D01*
X006460Y024985D01*
X006465Y024947D01*
X006466Y024908D01*
X006465Y024908D01*
X006464Y024947D01*
X006459Y024984D01*
X006452Y025022D01*
X006442Y025059D01*
X006430Y025095D01*
X006414Y025129D01*
X006413Y025129D01*
X006429Y025094D01*
X006441Y025058D01*
X006451Y025022D01*
X006458Y024984D01*
X006463Y024946D01*
X006464Y024908D01*
X006463Y024908D01*
X006462Y024946D01*
X006457Y024984D01*
X006450Y025021D01*
X006440Y025058D01*
X006428Y025094D01*
X006413Y025129D01*
X006412Y025128D01*
X006427Y025093D01*
X006439Y025058D01*
X006449Y025021D01*
X006456Y024984D01*
X006461Y024946D01*
X006462Y024908D01*
X006461Y024908D01*
X006460Y024946D01*
X006455Y024984D01*
X006448Y025021D01*
X006438Y025057D01*
X006426Y025093D01*
X006411Y025128D01*
X006410Y025127D01*
X006425Y025093D01*
X006437Y025057D01*
X006447Y025021D01*
X006454Y024984D01*
X006459Y024946D01*
X006460Y024908D01*
X006459Y024908D01*
X006458Y024946D01*
X006453Y024984D01*
X006446Y025020D01*
X006436Y025057D01*
X006424Y025092D01*
X006409Y025127D01*
X006408Y025126D01*
X006423Y025092D01*
X006436Y025057D01*
X006445Y025020D01*
X006452Y024983D01*
X006457Y024946D01*
X006458Y024908D01*
X006457Y024908D01*
X006456Y024946D01*
X006451Y024983D01*
X006444Y025020D01*
X006435Y025056D01*
X006422Y025092D01*
X006407Y025126D01*
X006406Y025126D01*
X006421Y025091D01*
X006434Y025056D01*
X006443Y025020D01*
X006450Y024983D01*
X006455Y024946D01*
X006456Y024908D01*
X006455Y024908D01*
X006454Y024946D01*
X006449Y024983D01*
X006442Y025020D01*
X006433Y025056D01*
X006420Y025091D01*
X006405Y025125D01*
X006404Y025125D01*
X006419Y025090D01*
X006432Y025055D01*
X006441Y025019D01*
X006448Y024983D01*
X006453Y024946D01*
X006454Y024908D01*
X006453Y024908D01*
X006452Y024946D01*
X006447Y024983D01*
X006440Y025019D01*
X006431Y025055D01*
X006418Y025090D01*
X006404Y025124D01*
X006403Y025124D01*
X006417Y025090D01*
X006430Y025055D01*
X006439Y025019D01*
X006446Y024982D01*
X006451Y024946D01*
X006452Y024908D01*
X006451Y024908D01*
X006450Y024946D01*
X006445Y024982D01*
X006438Y025019D01*
X006429Y025054D01*
X006417Y025089D01*
X006402Y025123D01*
X006401Y025123D01*
X006416Y025089D01*
X006428Y025054D01*
X006437Y025018D01*
X006444Y024982D01*
X006449Y024945D01*
X006450Y024908D01*
X006449Y024908D01*
X006448Y024945D01*
X006443Y024982D01*
X006437Y025018D01*
X006427Y025054D01*
X006415Y025089D01*
X006400Y025122D01*
X006399Y025122D01*
X006414Y025088D01*
X006426Y025054D01*
X006436Y025018D01*
X006442Y024982D01*
X006447Y024945D01*
X006448Y024908D01*
X005497Y025129D02*
X005514Y025121D01*
X005514Y025122D02*
X005499Y025088D01*
X005487Y025053D01*
X005477Y025018D01*
X005471Y024982D01*
X005466Y024945D01*
X005465Y024908D01*
X005447Y024908D01*
X005446Y024908D01*
X005447Y024947D01*
X005452Y024985D01*
X005459Y025022D01*
X005469Y025059D01*
X005481Y025095D01*
X005497Y025130D01*
X005498Y025129D01*
X005482Y025095D01*
X005470Y025059D01*
X005460Y025022D01*
X005453Y024984D01*
X005448Y024947D01*
X005447Y024908D01*
X005448Y024908D01*
X005449Y024946D01*
X005454Y024984D01*
X005461Y025022D01*
X005471Y025058D01*
X005483Y025094D01*
X005499Y025129D01*
X005484Y025094D01*
X005472Y025058D01*
X005462Y025021D01*
X005455Y024984D01*
X005450Y024946D01*
X005449Y024908D01*
X005450Y024908D01*
X005451Y024946D01*
X005456Y024984D01*
X005463Y025021D01*
X005473Y025058D01*
X005485Y025093D01*
X005500Y025128D01*
X005501Y025128D01*
X005486Y025093D01*
X005474Y025057D01*
X005464Y025021D01*
X005457Y024984D01*
X005452Y024946D01*
X005451Y024908D01*
X005452Y024908D01*
X005453Y024946D01*
X005458Y024984D01*
X005465Y025021D01*
X005475Y025057D01*
X005487Y025093D01*
X005502Y025127D01*
X005503Y025127D01*
X005488Y025092D01*
X005476Y025057D01*
X005466Y025020D01*
X005459Y024984D01*
X005454Y024946D01*
X005453Y024908D01*
X005454Y024908D01*
X005455Y024946D01*
X005460Y024983D01*
X005467Y025020D01*
X005476Y025057D01*
X005489Y025092D01*
X005504Y025126D01*
X005505Y025126D01*
X005490Y025092D01*
X005477Y025056D01*
X005468Y025020D01*
X005461Y024983D01*
X005456Y024946D01*
X005455Y024908D01*
X005456Y024908D01*
X005457Y024946D01*
X005462Y024983D01*
X005469Y025020D01*
X005478Y025056D01*
X005491Y025091D01*
X005506Y025126D01*
X005507Y025125D01*
X005492Y025091D01*
X005479Y025056D01*
X005470Y025020D01*
X005463Y024983D01*
X005458Y024946D01*
X005457Y024908D01*
X005458Y024908D01*
X005459Y024946D01*
X005464Y024983D01*
X005471Y025019D01*
X005480Y025055D01*
X005493Y025090D01*
X005508Y025125D01*
X005508Y025124D01*
X005494Y025090D01*
X005481Y025055D01*
X005472Y025019D01*
X005465Y024983D01*
X005460Y024946D01*
X005459Y024908D01*
X005460Y024908D01*
X005461Y024946D01*
X005466Y024982D01*
X005473Y025019D01*
X005482Y025055D01*
X005495Y025090D01*
X005509Y025124D01*
X005510Y025123D01*
X005495Y025089D01*
X005483Y025054D01*
X005474Y025019D01*
X005467Y024982D01*
X005462Y024946D01*
X005461Y024908D01*
X005462Y024908D01*
X005463Y024945D01*
X005468Y024982D01*
X005475Y025018D01*
X005484Y025054D01*
X005496Y025089D01*
X005511Y025123D01*
X005512Y025122D01*
X005497Y025089D01*
X005485Y025054D01*
X005475Y025018D01*
X005469Y024982D01*
X005464Y024945D01*
X005463Y024908D01*
X005464Y024908D01*
X005465Y024945D01*
X005470Y024982D01*
X005476Y025018D01*
X005486Y025054D01*
X005498Y025088D01*
X005513Y025122D01*
X005500Y025577D02*
X005511Y025561D01*
X005511Y025562D02*
X005466Y025529D01*
X005424Y025494D01*
X005385Y025455D01*
X005348Y025415D01*
X005315Y025371D01*
X005284Y025326D01*
X005257Y025278D01*
X005233Y025229D01*
X005212Y025178D01*
X005195Y025125D01*
X005182Y025072D01*
X005173Y025018D01*
X005167Y024963D01*
X005165Y024908D01*
X005147Y024908D01*
X005146Y024908D01*
X005148Y024965D01*
X005154Y025021D01*
X005164Y025076D01*
X005177Y025131D01*
X005195Y025184D01*
X005215Y025236D01*
X005240Y025287D01*
X005268Y025336D01*
X005299Y025382D01*
X005334Y025427D01*
X005371Y025469D01*
X005412Y025508D01*
X005455Y025544D01*
X005500Y025577D01*
X005501Y025577D01*
X005455Y025543D01*
X005412Y025507D01*
X005372Y025468D01*
X005335Y025426D01*
X005300Y025382D01*
X005269Y025335D01*
X005241Y025286D01*
X005216Y025236D01*
X005195Y025184D01*
X005178Y025130D01*
X005165Y025076D01*
X005155Y025020D01*
X005149Y024965D01*
X005147Y024908D01*
X005148Y024908D01*
X005150Y024965D01*
X005156Y025020D01*
X005166Y025076D01*
X005179Y025130D01*
X005196Y025183D01*
X005217Y025235D01*
X005242Y025286D01*
X005270Y025335D01*
X005301Y025381D01*
X005335Y025425D01*
X005373Y025467D01*
X005413Y025506D01*
X005456Y025543D01*
X005501Y025576D01*
X005502Y025575D01*
X005456Y025542D01*
X005414Y025506D01*
X005374Y025467D01*
X005336Y025425D01*
X005302Y025381D01*
X005271Y025334D01*
X005243Y025285D01*
X005218Y025235D01*
X005197Y025183D01*
X005180Y025130D01*
X005167Y025075D01*
X005157Y025020D01*
X005151Y024964D01*
X005149Y024908D01*
X005150Y024908D01*
X005152Y024964D01*
X005158Y025020D01*
X005168Y025075D01*
X005181Y025129D01*
X005198Y025183D01*
X005219Y025235D01*
X005244Y025285D01*
X005271Y025333D01*
X005303Y025380D01*
X005337Y025424D01*
X005374Y025466D01*
X005414Y025505D01*
X005457Y025541D01*
X005502Y025574D01*
X005503Y025573D01*
X005458Y025540D01*
X005415Y025504D01*
X005375Y025465D01*
X005338Y025424D01*
X005303Y025379D01*
X005272Y025333D01*
X005244Y025285D01*
X005220Y025234D01*
X005199Y025182D01*
X005182Y025129D01*
X005169Y025075D01*
X005159Y025020D01*
X005153Y024964D01*
X005151Y024908D01*
X005152Y024908D01*
X005154Y024964D01*
X005160Y025020D01*
X005169Y025075D01*
X005183Y025129D01*
X005200Y025182D01*
X005221Y025234D01*
X005245Y025284D01*
X005273Y025332D01*
X005304Y025379D01*
X005338Y025423D01*
X005376Y025464D01*
X005416Y025503D01*
X005458Y025539D01*
X005503Y025572D01*
X005504Y025572D01*
X005459Y025539D01*
X005416Y025503D01*
X005376Y025464D01*
X005339Y025422D01*
X005305Y025378D01*
X005274Y025332D01*
X005246Y025284D01*
X005222Y025233D01*
X005201Y025182D01*
X005184Y025129D01*
X005170Y025075D01*
X005161Y025020D01*
X005155Y024964D01*
X005153Y024908D01*
X005154Y024908D01*
X005156Y024964D01*
X005162Y025020D01*
X005171Y025074D01*
X005185Y025128D01*
X005202Y025181D01*
X005223Y025233D01*
X005247Y025283D01*
X005275Y025331D01*
X005306Y025378D01*
X005340Y025422D01*
X005377Y025463D01*
X005417Y025502D01*
X005460Y025538D01*
X005504Y025571D01*
X005505Y025570D01*
X005460Y025537D01*
X005418Y025501D01*
X005378Y025462D01*
X005341Y025421D01*
X005307Y025377D01*
X005276Y025331D01*
X005248Y025283D01*
X005224Y025233D01*
X005203Y025181D01*
X005186Y025128D01*
X005172Y025074D01*
X005163Y025019D01*
X005157Y024964D01*
X005155Y024908D01*
X005156Y024908D01*
X005158Y024964D01*
X005164Y025019D01*
X005173Y025074D01*
X005187Y025128D01*
X005204Y025181D01*
X005225Y025232D01*
X005249Y025282D01*
X005277Y025330D01*
X005308Y025376D01*
X005342Y025420D01*
X005379Y025462D01*
X005418Y025500D01*
X005461Y025536D01*
X005506Y025569D01*
X005506Y025568D01*
X005461Y025536D01*
X005419Y025500D01*
X005379Y025461D01*
X005342Y025420D01*
X005308Y025376D01*
X005277Y025330D01*
X005250Y025282D01*
X005226Y025232D01*
X005205Y025180D01*
X005188Y025128D01*
X005174Y025074D01*
X005165Y025019D01*
X005159Y024964D01*
X005157Y024908D01*
X005158Y024908D01*
X005160Y024964D01*
X005166Y025019D01*
X005175Y025074D01*
X005189Y025127D01*
X005206Y025180D01*
X005226Y025231D01*
X005251Y025281D01*
X005278Y025329D01*
X005309Y025375D01*
X005343Y025419D01*
X005380Y025460D01*
X005420Y025499D01*
X005462Y025535D01*
X005507Y025568D01*
X005507Y025567D01*
X005463Y025534D01*
X005420Y025498D01*
X005381Y025460D01*
X005344Y025418D01*
X005310Y025375D01*
X005279Y025329D01*
X005252Y025281D01*
X005227Y025231D01*
X005207Y025180D01*
X005190Y025127D01*
X005176Y025073D01*
X005167Y025019D01*
X005161Y024964D01*
X005159Y024908D01*
X005160Y024908D01*
X005162Y024964D01*
X005168Y025019D01*
X005177Y025073D01*
X005191Y025127D01*
X005208Y025179D01*
X005228Y025231D01*
X005252Y025280D01*
X005280Y025328D01*
X005311Y025374D01*
X005345Y025418D01*
X005381Y025459D01*
X005421Y025497D01*
X005463Y025533D01*
X005508Y025566D01*
X005508Y025565D01*
X005464Y025532D01*
X005422Y025497D01*
X005382Y025458D01*
X005345Y025417D01*
X005312Y025374D01*
X005281Y025328D01*
X005253Y025280D01*
X005229Y025230D01*
X005209Y025179D01*
X005192Y025126D01*
X005178Y025073D01*
X005169Y025019D01*
X005163Y024964D01*
X005161Y024908D01*
X005162Y024908D01*
X005164Y024964D01*
X005170Y025018D01*
X005179Y025073D01*
X005193Y025126D01*
X005210Y025179D01*
X005230Y025230D01*
X005254Y025279D01*
X005282Y025327D01*
X005312Y025373D01*
X005346Y025416D01*
X005383Y025458D01*
X005422Y025496D01*
X005465Y025532D01*
X005509Y025564D01*
X005510Y025563D01*
X005465Y025531D01*
X005423Y025495D01*
X005384Y025457D01*
X005347Y025416D01*
X005313Y025372D01*
X005283Y025327D01*
X005255Y025279D01*
X005231Y025229D01*
X005210Y025178D01*
X005194Y025126D01*
X005180Y025072D01*
X005171Y025018D01*
X005165Y024964D01*
X005163Y024908D01*
X005164Y024908D01*
X005166Y024963D01*
X005172Y025018D01*
X005181Y025072D01*
X005194Y025126D01*
X005211Y025178D01*
X005232Y025229D01*
X005256Y025278D01*
X005283Y025326D01*
X005314Y025372D01*
X005348Y025415D01*
X005384Y025456D01*
X005424Y025495D01*
X005466Y025530D01*
X005510Y025563D01*
X006765Y024908D02*
X006746Y024908D01*
X006747Y024909D02*
X006745Y024963D01*
X006739Y025018D01*
X006730Y025072D01*
X006717Y025125D01*
X006700Y025178D01*
X006679Y025229D01*
X006655Y025278D01*
X006628Y025326D01*
X006597Y025371D01*
X006564Y025415D01*
X006527Y025456D01*
X006488Y025494D01*
X006446Y025529D01*
X006401Y025562D01*
X006412Y025577D01*
X006457Y025544D01*
X006500Y025508D01*
X006541Y025469D01*
X006578Y025427D01*
X006613Y025382D01*
X006644Y025336D01*
X006672Y025287D01*
X006696Y025236D01*
X006717Y025184D01*
X006735Y025131D01*
X006748Y025076D01*
X006758Y025021D01*
X006764Y024965D01*
X006766Y024909D01*
X006765Y024909D01*
X006763Y024965D01*
X006757Y025021D01*
X006747Y025076D01*
X006734Y025130D01*
X006717Y025184D01*
X006696Y025236D01*
X006671Y025286D01*
X006643Y025335D01*
X006612Y025382D01*
X006577Y025426D01*
X006540Y025468D01*
X006500Y025507D01*
X006457Y025543D01*
X006411Y025577D01*
X006411Y025576D01*
X006456Y025543D01*
X006499Y025506D01*
X006539Y025467D01*
X006577Y025425D01*
X006611Y025381D01*
X006642Y025335D01*
X006670Y025286D01*
X006695Y025235D01*
X006716Y025183D01*
X006733Y025130D01*
X006746Y025076D01*
X006756Y025020D01*
X006762Y024965D01*
X006764Y024909D01*
X006763Y024909D01*
X006761Y024965D01*
X006755Y025020D01*
X006745Y025075D01*
X006732Y025130D01*
X006715Y025183D01*
X006694Y025235D01*
X006669Y025285D01*
X006641Y025334D01*
X006610Y025381D01*
X006576Y025425D01*
X006538Y025467D01*
X006498Y025506D01*
X006456Y025542D01*
X006410Y025575D01*
X006410Y025574D01*
X006455Y025541D01*
X006498Y025505D01*
X006538Y025466D01*
X006575Y025424D01*
X006609Y025380D01*
X006641Y025334D01*
X006668Y025285D01*
X006693Y025235D01*
X006714Y025183D01*
X006731Y025130D01*
X006744Y025075D01*
X006754Y025020D01*
X006760Y024964D01*
X006762Y024909D01*
X006761Y024909D01*
X006759Y024964D01*
X006753Y025020D01*
X006743Y025075D01*
X006730Y025129D01*
X006713Y025182D01*
X006692Y025234D01*
X006668Y025285D01*
X006640Y025333D01*
X006609Y025379D01*
X006574Y025424D01*
X006537Y025465D01*
X006497Y025504D01*
X006454Y025540D01*
X006409Y025573D01*
X006409Y025572D01*
X006454Y025539D01*
X006496Y025503D01*
X006536Y025465D01*
X006573Y025423D01*
X006608Y025379D01*
X006639Y025332D01*
X006667Y025284D01*
X006691Y025234D01*
X006712Y025182D01*
X006729Y025129D01*
X006743Y025075D01*
X006752Y025020D01*
X006758Y024964D01*
X006760Y024909D01*
X006759Y024909D01*
X006757Y024964D01*
X006751Y025020D01*
X006742Y025075D01*
X006728Y025129D01*
X006711Y025182D01*
X006690Y025233D01*
X006666Y025284D01*
X006638Y025332D01*
X006607Y025378D01*
X006573Y025422D01*
X006536Y025464D01*
X006496Y025503D01*
X006453Y025539D01*
X006408Y025572D01*
X006408Y025571D01*
X006452Y025538D01*
X006495Y025502D01*
X006535Y025463D01*
X006572Y025422D01*
X006606Y025378D01*
X006637Y025331D01*
X006665Y025283D01*
X006689Y025233D01*
X006710Y025181D01*
X006727Y025128D01*
X006741Y025074D01*
X006750Y025020D01*
X006756Y024964D01*
X006758Y024909D01*
X006757Y024909D01*
X006755Y024964D01*
X006749Y025019D01*
X006740Y025074D01*
X006726Y025128D01*
X006709Y025181D01*
X006688Y025233D01*
X006664Y025283D01*
X006636Y025331D01*
X006605Y025377D01*
X006571Y025421D01*
X006534Y025462D01*
X006494Y025501D01*
X006452Y025537D01*
X006407Y025570D01*
X006406Y025569D01*
X006451Y025536D01*
X006494Y025500D01*
X006533Y025462D01*
X006570Y025420D01*
X006604Y025376D01*
X006635Y025330D01*
X006663Y025282D01*
X006687Y025232D01*
X006708Y025181D01*
X006725Y025128D01*
X006739Y025074D01*
X006748Y025019D01*
X006754Y024964D01*
X006756Y024909D01*
X006755Y024909D01*
X006753Y024964D01*
X006747Y025019D01*
X006738Y025074D01*
X006724Y025128D01*
X006707Y025180D01*
X006686Y025232D01*
X006662Y025282D01*
X006635Y025330D01*
X006604Y025376D01*
X006570Y025420D01*
X006533Y025461D01*
X006493Y025500D01*
X006451Y025536D01*
X006406Y025568D01*
X006405Y025568D01*
X006450Y025535D01*
X006492Y025499D01*
X006532Y025460D01*
X006569Y025419D01*
X006603Y025375D01*
X006634Y025329D01*
X006661Y025281D01*
X006686Y025231D01*
X006706Y025180D01*
X006723Y025127D01*
X006737Y025074D01*
X006746Y025019D01*
X006752Y024964D01*
X006754Y024909D01*
X006753Y024909D01*
X006751Y024964D01*
X006745Y025019D01*
X006736Y025073D01*
X006722Y025127D01*
X006705Y025180D01*
X006685Y025231D01*
X006660Y025281D01*
X006633Y025329D01*
X006602Y025375D01*
X006568Y025418D01*
X006531Y025460D01*
X006492Y025498D01*
X006449Y025534D01*
X006405Y025567D01*
X006404Y025566D01*
X006449Y025533D01*
X006491Y025497D01*
X006531Y025459D01*
X006567Y025418D01*
X006601Y025374D01*
X006632Y025328D01*
X006660Y025280D01*
X006684Y025231D01*
X006704Y025179D01*
X006721Y025127D01*
X006735Y025073D01*
X006744Y025019D01*
X006750Y024964D01*
X006752Y024909D01*
X006751Y024909D01*
X006749Y024964D01*
X006743Y025019D01*
X006734Y025073D01*
X006720Y025127D01*
X006703Y025179D01*
X006683Y025230D01*
X006659Y025280D01*
X006631Y025328D01*
X006600Y025374D01*
X006567Y025417D01*
X006530Y025458D01*
X006490Y025497D01*
X006448Y025532D01*
X006404Y025565D01*
X006403Y025564D01*
X006447Y025532D01*
X006490Y025496D01*
X006529Y025458D01*
X006566Y025416D01*
X006600Y025373D01*
X006630Y025327D01*
X006658Y025279D01*
X006682Y025230D01*
X006702Y025179D01*
X006719Y025126D01*
X006733Y025073D01*
X006742Y025018D01*
X006748Y024964D01*
X006750Y024909D01*
X006749Y024909D01*
X006747Y024964D01*
X006741Y025018D01*
X006732Y025073D01*
X006718Y025126D01*
X006702Y025178D01*
X006681Y025229D01*
X006657Y025279D01*
X006629Y025327D01*
X006599Y025372D01*
X006565Y025416D01*
X006528Y025457D01*
X006489Y025495D01*
X006447Y025531D01*
X006402Y025563D01*
X006446Y025530D01*
X006488Y025495D01*
X006528Y025456D01*
X006564Y025415D01*
X006598Y025372D01*
X006629Y025326D01*
X006656Y025278D01*
X006680Y025229D01*
X006701Y025178D01*
X006717Y025126D01*
X006731Y025072D01*
X006740Y025018D01*
X006746Y024963D01*
X006748Y024909D01*
X005147Y022208D02*
X005166Y022208D01*
X005165Y022207D02*
X005167Y022153D01*
X005173Y022098D01*
X005182Y022044D01*
X005195Y021991D01*
X005212Y021938D01*
X005233Y021887D01*
X005257Y021838D01*
X005284Y021790D01*
X005315Y021745D01*
X005349Y021701D01*
X005385Y021660D01*
X005424Y021622D01*
X005466Y021587D01*
X005511Y021554D01*
X005500Y021539D01*
X005455Y021572D01*
X005412Y021608D01*
X005371Y021647D01*
X005334Y021689D01*
X005299Y021734D01*
X005268Y021780D01*
X005240Y021829D01*
X005216Y021880D01*
X005195Y021932D01*
X005177Y021985D01*
X005164Y022040D01*
X005154Y022095D01*
X005148Y022151D01*
X005146Y022207D01*
X005147Y022207D01*
X005149Y022151D01*
X005155Y022095D01*
X005165Y022040D01*
X005178Y021986D01*
X005195Y021932D01*
X005216Y021880D01*
X005241Y021830D01*
X005269Y021781D01*
X005300Y021734D01*
X005335Y021690D01*
X005372Y021648D01*
X005412Y021609D01*
X005455Y021573D01*
X005501Y021539D01*
X005501Y021540D01*
X005456Y021573D01*
X005413Y021610D01*
X005373Y021649D01*
X005335Y021691D01*
X005301Y021735D01*
X005270Y021781D01*
X005242Y021830D01*
X005217Y021881D01*
X005196Y021933D01*
X005179Y021986D01*
X005166Y022040D01*
X005156Y022096D01*
X005150Y022151D01*
X005148Y022207D01*
X005149Y022207D01*
X005151Y022151D01*
X005157Y022096D01*
X005167Y022041D01*
X005180Y021986D01*
X005197Y021933D01*
X005218Y021881D01*
X005243Y021831D01*
X005271Y021782D01*
X005302Y021735D01*
X005336Y021691D01*
X005374Y021649D01*
X005414Y021610D01*
X005457Y021574D01*
X005502Y021541D01*
X005502Y021542D01*
X005457Y021575D01*
X005414Y021611D01*
X005374Y021650D01*
X005337Y021692D01*
X005303Y021736D01*
X005271Y021782D01*
X005244Y021831D01*
X005219Y021881D01*
X005198Y021933D01*
X005181Y021986D01*
X005168Y022041D01*
X005158Y022096D01*
X005152Y022152D01*
X005150Y022207D01*
X005151Y022207D01*
X005153Y022152D01*
X005159Y022096D01*
X005169Y022041D01*
X005182Y021987D01*
X005199Y021934D01*
X005220Y021882D01*
X005244Y021831D01*
X005272Y021783D01*
X005303Y021737D01*
X005338Y021692D01*
X005375Y021651D01*
X005415Y021612D01*
X005458Y021576D01*
X005503Y021543D01*
X005503Y021544D01*
X005458Y021577D01*
X005416Y021613D01*
X005376Y021651D01*
X005339Y021693D01*
X005304Y021737D01*
X005273Y021784D01*
X005245Y021832D01*
X005221Y021882D01*
X005200Y021934D01*
X005183Y021987D01*
X005169Y022041D01*
X005160Y022096D01*
X005154Y022152D01*
X005152Y022207D01*
X005153Y022207D01*
X005155Y022152D01*
X005161Y022096D01*
X005170Y022041D01*
X005184Y021987D01*
X005201Y021934D01*
X005222Y021883D01*
X005246Y021832D01*
X005274Y021784D01*
X005305Y021738D01*
X005339Y021694D01*
X005376Y021652D01*
X005416Y021613D01*
X005459Y021577D01*
X005504Y021544D01*
X005504Y021545D01*
X005460Y021578D01*
X005417Y021614D01*
X005377Y021653D01*
X005340Y021694D01*
X005306Y021738D01*
X005275Y021785D01*
X005247Y021833D01*
X005223Y021883D01*
X005202Y021935D01*
X005185Y021988D01*
X005171Y022042D01*
X005162Y022096D01*
X005156Y022152D01*
X005154Y022207D01*
X005155Y022207D01*
X005157Y022152D01*
X005163Y022097D01*
X005172Y022042D01*
X005186Y021988D01*
X005203Y021935D01*
X005224Y021883D01*
X005248Y021833D01*
X005276Y021785D01*
X005307Y021739D01*
X005341Y021695D01*
X005378Y021654D01*
X005418Y021615D01*
X005460Y021579D01*
X005505Y021546D01*
X005506Y021547D01*
X005461Y021580D01*
X005418Y021616D01*
X005379Y021654D01*
X005342Y021696D01*
X005308Y021740D01*
X005277Y021786D01*
X005249Y021834D01*
X005225Y021884D01*
X005204Y021935D01*
X005187Y021988D01*
X005173Y022042D01*
X005164Y022097D01*
X005158Y022152D01*
X005156Y022207D01*
X005157Y022207D01*
X005159Y022152D01*
X005165Y022097D01*
X005174Y022042D01*
X005188Y021988D01*
X005205Y021936D01*
X005226Y021884D01*
X005250Y021834D01*
X005277Y021786D01*
X005308Y021740D01*
X005342Y021696D01*
X005379Y021655D01*
X005419Y021616D01*
X005461Y021580D01*
X005506Y021548D01*
X005507Y021548D01*
X005462Y021581D01*
X005420Y021617D01*
X005380Y021656D01*
X005343Y021697D01*
X005309Y021741D01*
X005278Y021787D01*
X005251Y021835D01*
X005226Y021885D01*
X005206Y021936D01*
X005189Y021989D01*
X005175Y022042D01*
X005166Y022097D01*
X005160Y022152D01*
X005158Y022207D01*
X005159Y022207D01*
X005161Y022152D01*
X005167Y022097D01*
X005176Y022043D01*
X005190Y021989D01*
X005207Y021936D01*
X005227Y021885D01*
X005252Y021835D01*
X005279Y021787D01*
X005310Y021741D01*
X005344Y021698D01*
X005381Y021656D01*
X005420Y021618D01*
X005463Y021582D01*
X005507Y021549D01*
X005508Y021550D01*
X005463Y021583D01*
X005421Y021618D01*
X005382Y021657D01*
X005345Y021698D01*
X005311Y021742D01*
X005280Y021788D01*
X005252Y021836D01*
X005228Y021885D01*
X005208Y021937D01*
X005191Y021989D01*
X005177Y022043D01*
X005168Y022097D01*
X005162Y022152D01*
X005160Y022207D01*
X005161Y022207D01*
X005163Y022152D01*
X005169Y022097D01*
X005178Y022043D01*
X005192Y021989D01*
X005209Y021937D01*
X005229Y021886D01*
X005253Y021836D01*
X005281Y021788D01*
X005312Y021742D01*
X005345Y021699D01*
X005382Y021658D01*
X005422Y021619D01*
X005464Y021584D01*
X005508Y021551D01*
X005509Y021552D01*
X005465Y021584D01*
X005422Y021620D01*
X005383Y021658D01*
X005346Y021699D01*
X005312Y021743D01*
X005282Y021789D01*
X005254Y021837D01*
X005230Y021886D01*
X005210Y021937D01*
X005193Y021990D01*
X005179Y022043D01*
X005170Y022098D01*
X005164Y022152D01*
X005162Y022207D01*
X005163Y022207D01*
X005165Y022152D01*
X005171Y022098D01*
X005180Y022043D01*
X005194Y021990D01*
X005211Y021938D01*
X005231Y021887D01*
X005255Y021837D01*
X005283Y021789D01*
X005313Y021744D01*
X005347Y021700D01*
X005384Y021659D01*
X005423Y021621D01*
X005465Y021585D01*
X005510Y021553D01*
X005466Y021586D01*
X005424Y021621D01*
X005384Y021660D01*
X005348Y021701D01*
X005314Y021744D01*
X005283Y021790D01*
X005256Y021838D01*
X005232Y021887D01*
X005211Y021938D01*
X005195Y021990D01*
X005181Y022044D01*
X005172Y022098D01*
X005166Y022153D01*
X005164Y022207D01*
X006415Y021987D02*
X006398Y021995D01*
X006398Y021994D02*
X006413Y022028D01*
X006425Y022063D01*
X006435Y022098D01*
X006441Y022134D01*
X006446Y022171D01*
X006447Y022208D01*
X006465Y022208D01*
X006466Y022208D01*
X006465Y022169D01*
X006460Y022131D01*
X006453Y022094D01*
X006443Y022057D01*
X006431Y022021D01*
X006415Y021986D01*
X006414Y021987D01*
X006430Y022021D01*
X006442Y022057D01*
X006452Y022094D01*
X006459Y022132D01*
X006464Y022169D01*
X006465Y022208D01*
X006464Y022208D01*
X006463Y022170D01*
X006458Y022132D01*
X006451Y022094D01*
X006441Y022058D01*
X006429Y022022D01*
X006413Y021987D01*
X006428Y022022D01*
X006440Y022058D01*
X006450Y022095D01*
X006457Y022132D01*
X006462Y022170D01*
X006463Y022208D01*
X006462Y022208D01*
X006461Y022170D01*
X006456Y022132D01*
X006449Y022095D01*
X006439Y022058D01*
X006427Y022023D01*
X006412Y021988D01*
X006411Y021988D01*
X006426Y022023D01*
X006438Y022059D01*
X006448Y022095D01*
X006455Y022132D01*
X006460Y022170D01*
X006461Y022208D01*
X006460Y022208D01*
X006459Y022170D01*
X006454Y022132D01*
X006447Y022095D01*
X006437Y022059D01*
X006425Y022023D01*
X006410Y021989D01*
X006409Y021989D01*
X006424Y022024D01*
X006436Y022059D01*
X006446Y022096D01*
X006453Y022132D01*
X006458Y022170D01*
X006459Y022208D01*
X006458Y022208D01*
X006457Y022170D01*
X006452Y022133D01*
X006445Y022096D01*
X006436Y022059D01*
X006423Y022024D01*
X006408Y021990D01*
X006407Y021990D01*
X006422Y022024D01*
X006435Y022060D01*
X006444Y022096D01*
X006451Y022133D01*
X006456Y022170D01*
X006457Y022208D01*
X006456Y022208D01*
X006455Y022170D01*
X006450Y022133D01*
X006443Y022096D01*
X006434Y022060D01*
X006421Y022025D01*
X006406Y021990D01*
X006405Y021991D01*
X006420Y022025D01*
X006433Y022060D01*
X006442Y022096D01*
X006449Y022133D01*
X006454Y022170D01*
X006455Y022208D01*
X006454Y022208D01*
X006453Y022170D01*
X006448Y022133D01*
X006441Y022097D01*
X006432Y022061D01*
X006419Y022026D01*
X006404Y021991D01*
X006404Y021992D01*
X006418Y022026D01*
X006431Y022061D01*
X006440Y022097D01*
X006447Y022133D01*
X006452Y022170D01*
X006453Y022208D01*
X006452Y022208D01*
X006451Y022170D01*
X006446Y022134D01*
X006439Y022097D01*
X006430Y022061D01*
X006417Y022026D01*
X006403Y021992D01*
X006402Y021993D01*
X006417Y022027D01*
X006429Y022062D01*
X006438Y022097D01*
X006445Y022134D01*
X006450Y022170D01*
X006451Y022208D01*
X006450Y022208D01*
X006449Y022171D01*
X006444Y022134D01*
X006437Y022098D01*
X006428Y022062D01*
X006416Y022027D01*
X006401Y021993D01*
X006400Y021994D01*
X006415Y022027D01*
X006427Y022062D01*
X006437Y022098D01*
X006443Y022134D01*
X006448Y022171D01*
X006449Y022208D01*
X006448Y022208D01*
X006447Y022171D01*
X006442Y022134D01*
X006436Y022098D01*
X006426Y022062D01*
X006414Y022028D01*
X006399Y021994D01*
X005447Y022208D02*
X005466Y022208D01*
X005465Y022208D02*
X005466Y022171D01*
X005471Y022134D01*
X005477Y022098D01*
X005487Y022063D01*
X005499Y022028D01*
X005514Y021994D01*
X005497Y021987D01*
X005497Y021986D01*
X005481Y022021D01*
X005469Y022057D01*
X005459Y022094D01*
X005452Y022131D01*
X005447Y022169D01*
X005446Y022208D01*
X005447Y022208D01*
X005448Y022169D01*
X005453Y022132D01*
X005460Y022094D01*
X005470Y022057D01*
X005482Y022021D01*
X005498Y021987D01*
X005499Y021987D01*
X005483Y022022D01*
X005471Y022058D01*
X005461Y022094D01*
X005454Y022132D01*
X005449Y022170D01*
X005448Y022208D01*
X005449Y022208D01*
X005450Y022170D01*
X005455Y022132D01*
X005462Y022095D01*
X005472Y022058D01*
X005484Y022022D01*
X005499Y021987D01*
X005500Y021988D01*
X005485Y022023D01*
X005473Y022058D01*
X005463Y022095D01*
X005456Y022132D01*
X005451Y022170D01*
X005450Y022208D01*
X005451Y022208D01*
X005452Y022170D01*
X005457Y022132D01*
X005464Y022095D01*
X005474Y022059D01*
X005486Y022023D01*
X005501Y021988D01*
X005502Y021989D01*
X005487Y022023D01*
X005475Y022059D01*
X005465Y022095D01*
X005458Y022132D01*
X005453Y022170D01*
X005452Y022208D01*
X005453Y022208D01*
X005454Y022170D01*
X005459Y022132D01*
X005466Y022096D01*
X005476Y022059D01*
X005488Y022024D01*
X005503Y021989D01*
X005504Y021990D01*
X005489Y022024D01*
X005476Y022059D01*
X005467Y022096D01*
X005460Y022133D01*
X005455Y022170D01*
X005454Y022208D01*
X005455Y022208D01*
X005456Y022170D01*
X005461Y022133D01*
X005468Y022096D01*
X005477Y022060D01*
X005490Y022024D01*
X005505Y021990D01*
X005506Y021990D01*
X005491Y022025D01*
X005478Y022060D01*
X005469Y022096D01*
X005462Y022133D01*
X005457Y022170D01*
X005456Y022208D01*
X005457Y022208D01*
X005458Y022170D01*
X005463Y022133D01*
X005470Y022096D01*
X005479Y022060D01*
X005492Y022025D01*
X005507Y021991D01*
X005508Y021991D01*
X005493Y022026D01*
X005480Y022061D01*
X005471Y022097D01*
X005464Y022133D01*
X005459Y022170D01*
X005458Y022208D01*
X005459Y022208D01*
X005460Y022170D01*
X005465Y022133D01*
X005472Y022097D01*
X005481Y022061D01*
X005494Y022026D01*
X005508Y021992D01*
X005509Y021992D01*
X005495Y022026D01*
X005482Y022061D01*
X005473Y022097D01*
X005466Y022134D01*
X005461Y022170D01*
X005460Y022208D01*
X005461Y022208D01*
X005462Y022170D01*
X005467Y022134D01*
X005474Y022097D01*
X005483Y022062D01*
X005495Y022027D01*
X005510Y021993D01*
X005511Y021993D01*
X005496Y022027D01*
X005484Y022062D01*
X005475Y022098D01*
X005468Y022134D01*
X005463Y022171D01*
X005462Y022208D01*
X005463Y022208D01*
X005464Y022171D01*
X005469Y022134D01*
X005475Y022098D01*
X005485Y022062D01*
X005497Y022027D01*
X005512Y021994D01*
X005513Y021994D01*
X005498Y022028D01*
X005486Y022062D01*
X005476Y022098D01*
X005470Y022134D01*
X005465Y022171D01*
X005464Y022208D01*
X006412Y021539D02*
X006401Y021555D01*
X006401Y021554D02*
X006446Y021587D01*
X006488Y021622D01*
X006527Y021661D01*
X006564Y021701D01*
X006597Y021745D01*
X006628Y021790D01*
X006655Y021838D01*
X006679Y021887D01*
X006700Y021938D01*
X006717Y021991D01*
X006730Y022044D01*
X006739Y022098D01*
X006745Y022153D01*
X006747Y022208D01*
X006765Y022208D01*
X006766Y022208D01*
X006764Y022151D01*
X006758Y022095D01*
X006748Y022040D01*
X006735Y021985D01*
X006717Y021932D01*
X006697Y021880D01*
X006672Y021829D01*
X006644Y021780D01*
X006613Y021734D01*
X006578Y021689D01*
X006541Y021647D01*
X006500Y021608D01*
X006457Y021572D01*
X006412Y021539D01*
X006411Y021539D01*
X006457Y021573D01*
X006500Y021609D01*
X006540Y021648D01*
X006577Y021690D01*
X006612Y021734D01*
X006643Y021781D01*
X006671Y021830D01*
X006696Y021880D01*
X006717Y021932D01*
X006734Y021986D01*
X006747Y022040D01*
X006757Y022096D01*
X006763Y022151D01*
X006765Y022208D01*
X006764Y022208D01*
X006762Y022151D01*
X006756Y022096D01*
X006746Y022040D01*
X006733Y021986D01*
X006716Y021933D01*
X006695Y021881D01*
X006670Y021830D01*
X006642Y021781D01*
X006611Y021735D01*
X006577Y021691D01*
X006539Y021649D01*
X006499Y021610D01*
X006456Y021573D01*
X006411Y021540D01*
X006410Y021541D01*
X006456Y021574D01*
X006498Y021610D01*
X006538Y021649D01*
X006576Y021691D01*
X006610Y021735D01*
X006641Y021782D01*
X006669Y021831D01*
X006694Y021881D01*
X006715Y021933D01*
X006732Y021986D01*
X006745Y022041D01*
X006755Y022096D01*
X006761Y022152D01*
X006763Y022208D01*
X006762Y022208D01*
X006760Y022152D01*
X006754Y022096D01*
X006744Y022041D01*
X006731Y021987D01*
X006714Y021933D01*
X006693Y021881D01*
X006668Y021831D01*
X006641Y021783D01*
X006609Y021736D01*
X006575Y021692D01*
X006538Y021650D01*
X006498Y021611D01*
X006455Y021575D01*
X006410Y021542D01*
X006409Y021543D01*
X006454Y021576D01*
X006497Y021612D01*
X006537Y021651D01*
X006574Y021692D01*
X006609Y021737D01*
X006640Y021783D01*
X006668Y021831D01*
X006692Y021882D01*
X006713Y021934D01*
X006730Y021987D01*
X006743Y022041D01*
X006753Y022096D01*
X006759Y022152D01*
X006761Y022208D01*
X006760Y022208D01*
X006758Y022152D01*
X006752Y022096D01*
X006743Y022041D01*
X006729Y021987D01*
X006712Y021934D01*
X006691Y021882D01*
X006667Y021832D01*
X006639Y021784D01*
X006608Y021737D01*
X006574Y021693D01*
X006536Y021652D01*
X006496Y021613D01*
X006454Y021577D01*
X006409Y021544D01*
X006408Y021544D01*
X006453Y021577D01*
X006496Y021613D01*
X006536Y021652D01*
X006573Y021694D01*
X006607Y021738D01*
X006638Y021784D01*
X006666Y021832D01*
X006690Y021883D01*
X006711Y021934D01*
X006728Y021987D01*
X006742Y022041D01*
X006751Y022096D01*
X006757Y022152D01*
X006759Y022208D01*
X006758Y022208D01*
X006756Y022152D01*
X006750Y022096D01*
X006741Y022042D01*
X006727Y021988D01*
X006710Y021935D01*
X006689Y021883D01*
X006665Y021833D01*
X006637Y021785D01*
X006606Y021738D01*
X006572Y021694D01*
X006535Y021653D01*
X006495Y021614D01*
X006452Y021578D01*
X006408Y021545D01*
X006407Y021546D01*
X006452Y021579D01*
X006494Y021615D01*
X006534Y021654D01*
X006571Y021695D01*
X006605Y021739D01*
X006636Y021785D01*
X006664Y021833D01*
X006688Y021883D01*
X006709Y021935D01*
X006726Y021988D01*
X006740Y022042D01*
X006749Y022097D01*
X006755Y022152D01*
X006757Y022208D01*
X006756Y022208D01*
X006754Y022152D01*
X006748Y022097D01*
X006739Y022042D01*
X006725Y021988D01*
X006708Y021935D01*
X006687Y021884D01*
X006663Y021834D01*
X006635Y021786D01*
X006604Y021740D01*
X006570Y021696D01*
X006533Y021654D01*
X006494Y021616D01*
X006451Y021580D01*
X006406Y021547D01*
X006406Y021548D01*
X006451Y021580D01*
X006493Y021616D01*
X006533Y021655D01*
X006570Y021696D01*
X006604Y021740D01*
X006635Y021786D01*
X006662Y021834D01*
X006686Y021884D01*
X006707Y021936D01*
X006724Y021988D01*
X006738Y022042D01*
X006747Y022097D01*
X006753Y022152D01*
X006755Y022208D01*
X006754Y022208D01*
X006752Y022152D01*
X006746Y022097D01*
X006737Y022042D01*
X006723Y021989D01*
X006706Y021936D01*
X006686Y021885D01*
X006661Y021835D01*
X006634Y021787D01*
X006603Y021741D01*
X006569Y021697D01*
X006532Y021656D01*
X006492Y021617D01*
X006450Y021581D01*
X006405Y021548D01*
X006405Y021549D01*
X006449Y021582D01*
X006492Y021618D01*
X006531Y021656D01*
X006568Y021698D01*
X006602Y021741D01*
X006633Y021787D01*
X006660Y021835D01*
X006685Y021885D01*
X006705Y021936D01*
X006722Y021989D01*
X006736Y022043D01*
X006745Y022097D01*
X006751Y022152D01*
X006753Y022208D01*
X006752Y022208D01*
X006750Y022152D01*
X006744Y022097D01*
X006735Y022043D01*
X006721Y021989D01*
X006704Y021937D01*
X006684Y021885D01*
X006660Y021836D01*
X006632Y021788D01*
X006601Y021742D01*
X006567Y021698D01*
X006531Y021657D01*
X006491Y021619D01*
X006449Y021583D01*
X006404Y021550D01*
X006404Y021551D01*
X006448Y021584D01*
X006490Y021619D01*
X006530Y021658D01*
X006567Y021699D01*
X006600Y021742D01*
X006631Y021788D01*
X006659Y021836D01*
X006683Y021886D01*
X006703Y021937D01*
X006720Y021990D01*
X006734Y022043D01*
X006743Y022097D01*
X006749Y022152D01*
X006751Y022208D01*
X006750Y022208D01*
X006748Y022152D01*
X006742Y022098D01*
X006733Y022043D01*
X006719Y021990D01*
X006702Y021937D01*
X006682Y021886D01*
X006658Y021837D01*
X006630Y021789D01*
X006600Y021743D01*
X006566Y021700D01*
X006529Y021658D01*
X006490Y021620D01*
X006447Y021584D01*
X006403Y021552D01*
X006402Y021553D01*
X006447Y021585D01*
X006489Y021621D01*
X006528Y021659D01*
X006565Y021700D01*
X006599Y021744D01*
X006629Y021789D01*
X006657Y021837D01*
X006681Y021887D01*
X006702Y021938D01*
X006718Y021990D01*
X006732Y022044D01*
X006741Y022098D01*
X006747Y022152D01*
X006749Y022208D01*
X006748Y022208D01*
X006746Y022153D01*
X006740Y022098D01*
X006731Y022044D01*
X006718Y021990D01*
X006701Y021938D01*
X006680Y021887D01*
X006656Y021838D01*
X006629Y021790D01*
X006598Y021744D01*
X006564Y021701D01*
X006528Y021660D01*
X006488Y021621D01*
X006446Y021586D01*
X006402Y021553D01*
D14*
X006456Y022208D02*
X006456Y024908D01*
X006756Y024908D02*
X006756Y022208D01*
X005956Y023158D02*
X005956Y023308D01*
X005956Y023808D02*
X005956Y023958D01*
X005456Y024908D02*
X005456Y022208D01*
X005156Y022208D02*
X005156Y024908D01*
M02*
