G75*
G70*
%OFA0B0*%
%FSLAX24Y24*%
%IPPOS*%
%LPD*%
%AMOC8*
5,1,8,0,0,1.08239X$1,22.5*
%
%ADD10R,0.0630X0.0138*%
%ADD11R,0.0138X0.0630*%
%ADD12R,0.1064X0.0277*%
%ADD13R,0.1064X0.0867*%
%ADD14C,0.0434*%
%ADD15R,0.0552X0.0395*%
%ADD16R,0.0380X0.0680*%
%ADD17R,0.0395X0.0434*%
%ADD18R,0.0395X0.0552*%
%ADD19R,0.0631X0.0474*%
%ADD20R,0.0236X0.0118*%
%ADD21R,0.0965X0.0669*%
%ADD22R,0.0138X0.0299*%
%ADD23C,0.0138*%
%ADD24R,0.1655X0.0671*%
%ADD25R,0.0580X0.0659*%
%ADD26OC8,0.1080*%
%ADD27R,0.1143X0.1084*%
%ADD28R,0.0316X0.0946*%
%ADD29R,0.1084X0.1143*%
%ADD30R,0.1064X0.1340*%
%ADD31R,0.0840X0.2180*%
%ADD32OC8,0.0820*%
%ADD33C,0.0820*%
%ADD34R,0.0474X0.0631*%
%ADD35R,0.0671X0.0611*%
%ADD36R,0.0474X0.0592*%
%ADD37R,0.0375X0.0671*%
%ADD38C,0.1261*%
%ADD39OC8,0.0710*%
%ADD40C,0.0390*%
%ADD41C,0.0476*%
D10*
X010105Y019895D03*
X010105Y020092D03*
X010105Y020289D03*
X010105Y020486D03*
X010105Y020683D03*
X010105Y020880D03*
X010105Y021077D03*
X010105Y021273D03*
X010105Y021470D03*
X010105Y021667D03*
X010105Y021864D03*
X010105Y022061D03*
X010105Y022258D03*
X010105Y022454D03*
X010105Y022651D03*
X010105Y022848D03*
X010105Y023045D03*
X010105Y023242D03*
X010105Y023439D03*
X010105Y023636D03*
X010105Y023832D03*
X010105Y024029D03*
X010105Y024226D03*
X010105Y024423D03*
X010105Y024620D03*
X016306Y024620D03*
X016306Y024423D03*
X016306Y024226D03*
X016306Y024029D03*
X016306Y023832D03*
X016306Y023636D03*
X016306Y023439D03*
X016306Y023242D03*
X016306Y023045D03*
X016306Y022848D03*
X016306Y022651D03*
X016306Y022454D03*
X016306Y022258D03*
X016306Y022061D03*
X016306Y021864D03*
X016306Y021667D03*
X016306Y021470D03*
X016306Y021273D03*
X016306Y021077D03*
X016306Y020880D03*
X016306Y020683D03*
X016306Y020486D03*
X016306Y020289D03*
X016306Y020092D03*
X016306Y019895D03*
D11*
X015568Y019157D03*
X015371Y019157D03*
X015174Y019157D03*
X014977Y019157D03*
X014780Y019157D03*
X014583Y019157D03*
X014387Y019157D03*
X014190Y019157D03*
X013993Y019157D03*
X013796Y019157D03*
X013599Y019157D03*
X013402Y019157D03*
X013206Y019157D03*
X013009Y019157D03*
X012812Y019157D03*
X012615Y019157D03*
X012418Y019157D03*
X012221Y019157D03*
X012024Y019157D03*
X011828Y019157D03*
X011631Y019157D03*
X011434Y019157D03*
X011237Y019157D03*
X011040Y019157D03*
X010843Y019157D03*
X010843Y025358D03*
X011040Y025358D03*
X011237Y025358D03*
X011434Y025358D03*
X011631Y025358D03*
X011828Y025358D03*
X012024Y025358D03*
X012221Y025358D03*
X012418Y025358D03*
X012615Y025358D03*
X012812Y025358D03*
X013009Y025358D03*
X013206Y025358D03*
X013402Y025358D03*
X013599Y025358D03*
X013796Y025358D03*
X013993Y025358D03*
X014190Y025358D03*
X014387Y025358D03*
X014583Y025358D03*
X014780Y025358D03*
X014977Y025358D03*
X015174Y025358D03*
X015371Y025358D03*
X015568Y025358D03*
D12*
X004390Y013588D03*
X004390Y013273D03*
X004390Y012958D03*
X004390Y012643D03*
X004390Y012328D03*
D13*
X004390Y011186D03*
X002224Y011186D03*
X002224Y014729D03*
X004390Y014729D03*
D14*
X003406Y013824D03*
X003406Y012091D03*
D15*
X005606Y012653D03*
X005606Y013362D03*
X005606Y014353D03*
X005606Y015062D03*
X001946Y018833D03*
X001946Y019542D03*
X008286Y027403D03*
X008286Y028112D03*
X009626Y028102D03*
X009626Y027393D03*
X010806Y027393D03*
X010806Y028102D03*
X011876Y028102D03*
X011876Y027393D03*
X012856Y027403D03*
X012856Y028112D03*
X013956Y028112D03*
X013956Y027403D03*
X015056Y027403D03*
X015056Y028112D03*
X016206Y028112D03*
X016206Y027403D03*
X019456Y031903D03*
X019456Y032612D03*
X020256Y028012D03*
X020256Y027303D03*
X016426Y019212D03*
X016426Y018503D03*
X013906Y016612D03*
X013906Y015903D03*
X012806Y015903D03*
X012806Y016612D03*
X011706Y016612D03*
X011706Y015903D03*
X020906Y009512D03*
X020906Y008803D03*
X021706Y008803D03*
X021706Y009512D03*
D16*
X018456Y025258D03*
X016956Y025258D03*
X016956Y027258D03*
X018456Y027258D03*
D17*
X020981Y027364D03*
X021356Y028191D03*
X021730Y027364D03*
X020941Y031805D03*
X020390Y031805D03*
X020390Y032710D03*
X020941Y032710D03*
X003780Y017651D03*
X003406Y016825D03*
X003031Y017651D03*
X002110Y023314D03*
X001736Y024141D03*
X001361Y023314D03*
D18*
X001361Y022198D03*
X002070Y022198D03*
X003441Y022228D03*
X004150Y022228D03*
X006001Y019858D03*
X006710Y019858D03*
X007861Y021618D03*
X008570Y021618D03*
X008560Y022658D03*
X007851Y022658D03*
X007851Y024408D03*
X008560Y024408D03*
X008557Y025368D03*
X008550Y026188D03*
X009161Y026198D03*
X009870Y026198D03*
X009880Y025388D03*
X009171Y025388D03*
X007848Y025368D03*
X007841Y026188D03*
X006710Y027208D03*
X006001Y027208D03*
X002130Y025138D03*
X001421Y025138D03*
X002251Y015908D03*
X002960Y015908D03*
X002991Y010028D03*
X002320Y010008D03*
X001611Y010008D03*
X003700Y010028D03*
X009401Y013508D03*
X010110Y013508D03*
X010601Y013508D03*
X011310Y013508D03*
X012301Y013508D03*
X013010Y013508D03*
X013701Y013508D03*
X014410Y013508D03*
X015151Y013508D03*
X015860Y013508D03*
X018851Y017608D03*
X019560Y017608D03*
X019560Y018708D03*
X018851Y018708D03*
X018851Y019808D03*
X019560Y019808D03*
X019560Y020858D03*
X018851Y020858D03*
X018851Y022008D03*
X019560Y022008D03*
X019560Y023258D03*
X018851Y023258D03*
X018851Y024508D03*
X019560Y024508D03*
X019460Y028258D03*
X018751Y028258D03*
X020351Y012608D03*
X021060Y012608D03*
X021831Y012588D03*
X022540Y012588D03*
X022560Y011458D03*
X023251Y011458D03*
X023960Y011458D03*
X021851Y011458D03*
X021110Y011458D03*
X020401Y011458D03*
X017910Y007778D03*
X017201Y007778D03*
X022851Y007258D03*
X023560Y007258D03*
X010810Y007308D03*
X010101Y007308D03*
X010101Y008418D03*
X010810Y008418D03*
X010860Y004448D03*
X010151Y004448D03*
D19*
X003976Y004029D03*
X005322Y017584D03*
X005322Y018332D03*
X006189Y017958D03*
D20*
X009966Y006066D03*
X009966Y005849D03*
X011245Y005849D03*
X011245Y006066D03*
D21*
X010606Y005958D03*
D22*
X010606Y006566D03*
X010802Y006566D03*
X010999Y006566D03*
X010409Y006566D03*
X010212Y006566D03*
X010212Y005349D03*
X010409Y005349D03*
X010606Y005349D03*
X010802Y005349D03*
X010999Y005349D03*
D23*
X010999Y005499D03*
X010802Y005499D03*
X010606Y005499D03*
X010409Y005499D03*
X010212Y005499D03*
X010212Y006416D03*
X010409Y006416D03*
X010606Y006416D03*
X010802Y006416D03*
X010999Y006416D03*
D24*
X015006Y007466D03*
X015006Y008883D03*
D25*
X013352Y005058D03*
X011659Y005058D03*
X018859Y007758D03*
X020552Y007758D03*
D26*
X012306Y003458D03*
X010506Y003458D03*
D27*
X012526Y006530D03*
X012526Y009026D03*
D28*
X022456Y008134D03*
X022956Y008134D03*
X023456Y008134D03*
X023956Y008134D03*
X023956Y010181D03*
X023456Y010181D03*
X022956Y010181D03*
X022456Y010181D03*
D29*
X017054Y005608D03*
X017064Y003498D03*
X014567Y003498D03*
X014557Y005608D03*
D30*
X018461Y004278D03*
X021650Y004278D03*
D31*
X005956Y021658D03*
X005956Y025458D03*
D32*
X021606Y024458D03*
X022606Y024458D03*
X022606Y023458D03*
X022606Y022458D03*
X022606Y021458D03*
X022606Y020458D03*
X022606Y019458D03*
X022606Y018458D03*
X022606Y017458D03*
X022606Y016458D03*
X022606Y015458D03*
X021606Y015458D03*
X021606Y016458D03*
X021606Y017458D03*
X021606Y018458D03*
X021606Y019458D03*
X021606Y020458D03*
X021606Y021458D03*
X021606Y022458D03*
X021606Y023458D03*
D33*
X017786Y012148D03*
X017786Y010368D03*
X015226Y010368D03*
X013986Y010368D03*
X013986Y012148D03*
X015226Y012148D03*
X011426Y012148D03*
X010186Y012148D03*
X010186Y010368D03*
X011426Y010368D03*
X007626Y010368D03*
X007626Y012148D03*
D34*
X004140Y023605D03*
X003766Y024471D03*
X003391Y023605D03*
X003471Y026195D03*
X004220Y026195D03*
X003846Y027061D03*
X016611Y014511D03*
X016986Y013645D03*
X017360Y014511D03*
X018881Y013391D03*
X019630Y013391D03*
X019256Y012525D03*
X019331Y010191D03*
X020080Y010191D03*
X019706Y009325D03*
D35*
X004035Y002838D03*
X009409Y002445D03*
D36*
X004202Y008852D03*
D37*
X004734Y008872D03*
X005167Y008872D03*
X005600Y008872D03*
X006033Y008872D03*
X006466Y008872D03*
X006899Y008872D03*
X007332Y008872D03*
X007765Y008872D03*
D38*
X001706Y005258D03*
X001706Y028358D03*
X017106Y032358D03*
X023206Y032358D03*
X023706Y028358D03*
X023706Y005258D03*
D39*
X021356Y029158D03*
X021356Y030934D03*
X020536Y030934D03*
X019706Y030934D03*
X019706Y029158D03*
X011916Y028958D03*
D40*
X011406Y029755D03*
X012364Y028095D03*
X013400Y028488D03*
X013404Y027253D03*
X013550Y026555D03*
X012613Y025996D03*
X012326Y026353D03*
X011403Y026326D03*
X010246Y026788D03*
X010416Y024988D03*
X011322Y024605D03*
X011316Y024118D03*
X009506Y021808D03*
X009026Y021796D03*
X008526Y020138D03*
X008216Y019298D03*
X007586Y019338D03*
X007016Y018128D03*
X006606Y019358D03*
X005409Y018976D03*
X004506Y020158D03*
X004096Y021738D03*
X002306Y023778D03*
X002566Y024568D03*
X004296Y027118D03*
X007126Y025458D03*
X007416Y024248D03*
X008231Y023569D03*
X008966Y024248D03*
X009276Y023838D03*
X007476Y022108D03*
X009586Y019298D03*
X009786Y018678D03*
X009786Y017498D03*
X010636Y017838D03*
X011346Y017278D03*
X012216Y017248D03*
X012856Y017888D03*
X014026Y017768D03*
X014722Y018546D03*
X014316Y019698D03*
X015026Y020018D03*
X015676Y021863D03*
X017006Y021188D03*
X017666Y022408D03*
X017896Y021668D03*
X018336Y023698D03*
X019586Y024018D03*
X019266Y026258D03*
X019736Y027658D03*
X021206Y026858D03*
X017836Y026798D03*
X017296Y028178D03*
X016206Y026858D03*
X015189Y026744D03*
X014826Y026028D03*
X014986Y024718D03*
X014508Y027778D03*
X014506Y028458D03*
X014506Y029058D03*
X018906Y031498D03*
X018906Y033148D03*
X021346Y033158D03*
X021336Y031518D03*
X019586Y021478D03*
X020096Y020558D03*
X018316Y015498D03*
X018026Y014598D03*
X017436Y013688D03*
X017566Y012798D03*
X018546Y012008D03*
X018886Y010878D03*
X020386Y012078D03*
X018871Y013981D03*
X015906Y015208D03*
X015216Y015378D03*
X014896Y015088D03*
X014616Y014458D03*
X012226Y015778D03*
X011206Y014058D03*
X010166Y014598D03*
X009756Y014658D03*
X008906Y013618D03*
X007926Y016428D03*
X007526Y016418D03*
X007806Y017098D03*
X008978Y016706D03*
X011246Y018588D03*
X012626Y019698D03*
X012916Y020298D03*
X011186Y021058D03*
X010946Y020618D03*
X005696Y017138D03*
X005116Y017138D03*
X005041Y013964D03*
X004106Y010458D03*
X003386Y009038D03*
X005405Y009554D03*
X006146Y009938D03*
X008386Y008898D03*
X008706Y009138D03*
X011266Y008428D03*
X011266Y006958D03*
X010566Y004928D03*
X010086Y004958D03*
X012366Y005058D03*
X013296Y007508D03*
X015506Y005658D03*
X015656Y002478D03*
X018839Y008458D03*
X017906Y008758D03*
X017226Y009528D03*
X020416Y008728D03*
X021299Y008394D03*
X021566Y006718D03*
X022906Y010898D03*
X007806Y028788D03*
X002266Y021708D03*
D41*
X010606Y005958D03*
X017406Y020058D03*
X018118Y020702D03*
M02*
