%
M48
M72
T01C0.0150
T02C0.0236
T03C0.0354
T04C0.0360
T05C0.0400
T06C0.1181
%
T01
X3386Y9038
X4106Y10458
X5405Y9554
X6146Y9938
X8386Y8898
X8706Y9138
X11266Y8428
X11266Y6958
X10566Y4928
X10086Y4958
X12366Y5058
X13296Y7508
X15506Y5658
X15656Y2478
X18839Y8458
X17906Y8758
X17226Y9528
X18886Y10878
X18546Y12008
X17566Y12798
X17436Y13688
X18026Y14598
X18316Y15498
X18871Y13981
X20386Y12078
X22906Y10898
X21299Y8394
X20416Y8728
X21566Y6718
X15906Y15208
X15216Y15378
X14896Y15088
X14616Y14458
X12226Y15778
X12216Y17248
X12856Y17888
X14026Y17768
X14722Y18546
X14316Y19698
X15026Y20018
X15676Y21863
X17006Y21188
X17666Y22408
X17896Y21668
X18336Y23698
X19586Y24018
X19266Y26258
X19736Y27658
X21206Y26858
X17836Y26798
X17296Y28178
X16206Y26858
X15189Y26744
X14826Y26028
X14986Y24718
X13550Y26555
X13404Y27253
X13400Y28488
X12364Y28095
X12326Y26353
X12613Y25996
X11403Y26326
X10246Y26788
X10416Y24988
X11322Y24605
X11316Y24118
X9506Y21808
X9026Y21796
X8526Y20138
X8216Y19298
X7586Y19338
X7016Y18128
X6606Y19358
X5409Y18976
X4506Y20158
X4096Y21738
X2306Y23778
X2566Y24568
X4296Y27118
X7126Y25458
X7416Y24248
X8231Y23569
X8966Y24248
X9276Y23838
X7476Y22108
X9586Y19298
X9786Y18678
X9786Y17498
X10636Y17838
X11346Y17278
X11246Y18588
X12626Y19698
X12916Y20298
X11186Y21058
X10946Y20618
X8978Y16706
X7926Y16428
X7526Y16418
X7806Y17098
X5696Y17138
X5116Y17138
X5041Y13964
X8906Y13618
X9756Y14658
X10166Y14598
X11206Y14058
X19586Y21478
X20096Y20558
X14508Y27778
X14506Y28458
X14506Y29058
X11406Y29755
X7806Y28788
X2266Y21708
X18906Y31498
X18906Y33148
X21346Y33158
X21336Y31518
T02
X18118Y20702
X17406Y20058
X10606Y5958
T03
X3406Y12091
X3406Y13824
T04
X11916Y28958
X19706Y29158
X19706Y30934
X20536Y30934
X21356Y30934
X21356Y29158
T05
X21606Y24458
X22606Y24458
X22606Y23458
X22606Y22458
X22606Y21458
X22606Y20458
X22606Y19458
X22606Y18458
X22606Y17458
X22606Y16458
X22606Y15458
X21606Y15458
X21606Y16458
X21606Y17458
X21606Y18458
X21606Y19458
X21606Y20458
X21606Y21458
X21606Y22458
X21606Y23458
X17786Y12148
X17786Y10368
X15226Y10368
X13986Y10368
X13986Y12148
X15226Y12148
X11426Y12148
X10186Y12148
X10186Y10368
X11426Y10368
X7626Y10368
X7626Y12148
X10506Y3458
X12306Y3458
T06
X1706Y5258
X1706Y28358
X17106Y32358
X23206Y32358
X23706Y28358
X23706Y5258
M30
