G75*
G70*
%OFA0B0*%
%FSLAX24Y24*%
%IPPOS*%
%LPD*%
%AMOC8*
5,1,8,0,0,1.08239X$1,22.5*
%
%ADD10C,0.0000*%
%ADD11C,0.0320*%
D10*
X000706Y001758D02*
X000706Y030058D01*
X003746Y030058D01*
X003756Y030068D01*
X005766Y032018D01*
X015356Y032018D01*
X015356Y033758D01*
X024706Y033758D01*
X024706Y030428D01*
X024706Y001758D01*
X000706Y001758D01*
X001115Y005258D02*
X001117Y005306D01*
X001123Y005354D01*
X001133Y005401D01*
X001146Y005447D01*
X001164Y005492D01*
X001184Y005536D01*
X001209Y005578D01*
X001237Y005617D01*
X001267Y005654D01*
X001301Y005688D01*
X001338Y005720D01*
X001376Y005749D01*
X001417Y005774D01*
X001460Y005796D01*
X001505Y005814D01*
X001551Y005828D01*
X001598Y005839D01*
X001646Y005846D01*
X001694Y005849D01*
X001742Y005848D01*
X001790Y005843D01*
X001838Y005834D01*
X001884Y005822D01*
X001929Y005805D01*
X001973Y005785D01*
X002015Y005762D01*
X002055Y005735D01*
X002093Y005705D01*
X002128Y005672D01*
X002160Y005636D01*
X002190Y005598D01*
X002216Y005557D01*
X002238Y005514D01*
X002258Y005470D01*
X002273Y005425D01*
X002285Y005378D01*
X002293Y005330D01*
X002297Y005282D01*
X002297Y005234D01*
X002293Y005186D01*
X002285Y005138D01*
X002273Y005091D01*
X002258Y005046D01*
X002238Y005002D01*
X002216Y004959D01*
X002190Y004918D01*
X002160Y004880D01*
X002128Y004844D01*
X002093Y004811D01*
X002055Y004781D01*
X002015Y004754D01*
X001973Y004731D01*
X001929Y004711D01*
X001884Y004694D01*
X001838Y004682D01*
X001790Y004673D01*
X001742Y004668D01*
X001694Y004667D01*
X001646Y004670D01*
X001598Y004677D01*
X001551Y004688D01*
X001505Y004702D01*
X001460Y004720D01*
X001417Y004742D01*
X001376Y004767D01*
X001338Y004796D01*
X001301Y004828D01*
X001267Y004862D01*
X001237Y004899D01*
X001209Y004938D01*
X001184Y004980D01*
X001164Y005024D01*
X001146Y005069D01*
X001133Y005115D01*
X001123Y005162D01*
X001117Y005210D01*
X001115Y005258D01*
X003229Y012091D02*
X003231Y012117D01*
X003237Y012143D01*
X003247Y012168D01*
X003260Y012191D01*
X003276Y012211D01*
X003296Y012229D01*
X003318Y012244D01*
X003341Y012256D01*
X003367Y012264D01*
X003393Y012268D01*
X003419Y012268D01*
X003445Y012264D01*
X003471Y012256D01*
X003495Y012244D01*
X003516Y012229D01*
X003536Y012211D01*
X003552Y012191D01*
X003565Y012168D01*
X003575Y012143D01*
X003581Y012117D01*
X003583Y012091D01*
X003581Y012065D01*
X003575Y012039D01*
X003565Y012014D01*
X003552Y011991D01*
X003536Y011971D01*
X003516Y011953D01*
X003494Y011938D01*
X003471Y011926D01*
X003445Y011918D01*
X003419Y011914D01*
X003393Y011914D01*
X003367Y011918D01*
X003341Y011926D01*
X003317Y011938D01*
X003296Y011953D01*
X003276Y011971D01*
X003260Y011991D01*
X003247Y012014D01*
X003237Y012039D01*
X003231Y012065D01*
X003229Y012091D01*
X003229Y013824D02*
X003231Y013850D01*
X003237Y013876D01*
X003247Y013901D01*
X003260Y013924D01*
X003276Y013944D01*
X003296Y013962D01*
X003318Y013977D01*
X003341Y013989D01*
X003367Y013997D01*
X003393Y014001D01*
X003419Y014001D01*
X003445Y013997D01*
X003471Y013989D01*
X003495Y013977D01*
X003516Y013962D01*
X003536Y013944D01*
X003552Y013924D01*
X003565Y013901D01*
X003575Y013876D01*
X003581Y013850D01*
X003583Y013824D01*
X003581Y013798D01*
X003575Y013772D01*
X003565Y013747D01*
X003552Y013724D01*
X003536Y013704D01*
X003516Y013686D01*
X003494Y013671D01*
X003471Y013659D01*
X003445Y013651D01*
X003419Y013647D01*
X003393Y013647D01*
X003367Y013651D01*
X003341Y013659D01*
X003317Y013671D01*
X003296Y013686D01*
X003276Y013704D01*
X003260Y013724D01*
X003247Y013747D01*
X003237Y013772D01*
X003231Y013798D01*
X003229Y013824D01*
X001115Y028358D02*
X001117Y028406D01*
X001123Y028454D01*
X001133Y028501D01*
X001146Y028547D01*
X001164Y028592D01*
X001184Y028636D01*
X001209Y028678D01*
X001237Y028717D01*
X001267Y028754D01*
X001301Y028788D01*
X001338Y028820D01*
X001376Y028849D01*
X001417Y028874D01*
X001460Y028896D01*
X001505Y028914D01*
X001551Y028928D01*
X001598Y028939D01*
X001646Y028946D01*
X001694Y028949D01*
X001742Y028948D01*
X001790Y028943D01*
X001838Y028934D01*
X001884Y028922D01*
X001929Y028905D01*
X001973Y028885D01*
X002015Y028862D01*
X002055Y028835D01*
X002093Y028805D01*
X002128Y028772D01*
X002160Y028736D01*
X002190Y028698D01*
X002216Y028657D01*
X002238Y028614D01*
X002258Y028570D01*
X002273Y028525D01*
X002285Y028478D01*
X002293Y028430D01*
X002297Y028382D01*
X002297Y028334D01*
X002293Y028286D01*
X002285Y028238D01*
X002273Y028191D01*
X002258Y028146D01*
X002238Y028102D01*
X002216Y028059D01*
X002190Y028018D01*
X002160Y027980D01*
X002128Y027944D01*
X002093Y027911D01*
X002055Y027881D01*
X002015Y027854D01*
X001973Y027831D01*
X001929Y027811D01*
X001884Y027794D01*
X001838Y027782D01*
X001790Y027773D01*
X001742Y027768D01*
X001694Y027767D01*
X001646Y027770D01*
X001598Y027777D01*
X001551Y027788D01*
X001505Y027802D01*
X001460Y027820D01*
X001417Y027842D01*
X001376Y027867D01*
X001338Y027896D01*
X001301Y027928D01*
X001267Y027962D01*
X001237Y027999D01*
X001209Y028038D01*
X001184Y028080D01*
X001164Y028124D01*
X001146Y028169D01*
X001133Y028215D01*
X001123Y028262D01*
X001117Y028310D01*
X001115Y028358D01*
X016515Y032358D02*
X016517Y032406D01*
X016523Y032454D01*
X016533Y032501D01*
X016546Y032547D01*
X016564Y032592D01*
X016584Y032636D01*
X016609Y032678D01*
X016637Y032717D01*
X016667Y032754D01*
X016701Y032788D01*
X016738Y032820D01*
X016776Y032849D01*
X016817Y032874D01*
X016860Y032896D01*
X016905Y032914D01*
X016951Y032928D01*
X016998Y032939D01*
X017046Y032946D01*
X017094Y032949D01*
X017142Y032948D01*
X017190Y032943D01*
X017238Y032934D01*
X017284Y032922D01*
X017329Y032905D01*
X017373Y032885D01*
X017415Y032862D01*
X017455Y032835D01*
X017493Y032805D01*
X017528Y032772D01*
X017560Y032736D01*
X017590Y032698D01*
X017616Y032657D01*
X017638Y032614D01*
X017658Y032570D01*
X017673Y032525D01*
X017685Y032478D01*
X017693Y032430D01*
X017697Y032382D01*
X017697Y032334D01*
X017693Y032286D01*
X017685Y032238D01*
X017673Y032191D01*
X017658Y032146D01*
X017638Y032102D01*
X017616Y032059D01*
X017590Y032018D01*
X017560Y031980D01*
X017528Y031944D01*
X017493Y031911D01*
X017455Y031881D01*
X017415Y031854D01*
X017373Y031831D01*
X017329Y031811D01*
X017284Y031794D01*
X017238Y031782D01*
X017190Y031773D01*
X017142Y031768D01*
X017094Y031767D01*
X017046Y031770D01*
X016998Y031777D01*
X016951Y031788D01*
X016905Y031802D01*
X016860Y031820D01*
X016817Y031842D01*
X016776Y031867D01*
X016738Y031896D01*
X016701Y031928D01*
X016667Y031962D01*
X016637Y031999D01*
X016609Y032038D01*
X016584Y032080D01*
X016564Y032124D01*
X016546Y032169D01*
X016533Y032215D01*
X016523Y032262D01*
X016517Y032310D01*
X016515Y032358D01*
X022615Y032358D02*
X022617Y032406D01*
X022623Y032454D01*
X022633Y032501D01*
X022646Y032547D01*
X022664Y032592D01*
X022684Y032636D01*
X022709Y032678D01*
X022737Y032717D01*
X022767Y032754D01*
X022801Y032788D01*
X022838Y032820D01*
X022876Y032849D01*
X022917Y032874D01*
X022960Y032896D01*
X023005Y032914D01*
X023051Y032928D01*
X023098Y032939D01*
X023146Y032946D01*
X023194Y032949D01*
X023242Y032948D01*
X023290Y032943D01*
X023338Y032934D01*
X023384Y032922D01*
X023429Y032905D01*
X023473Y032885D01*
X023515Y032862D01*
X023555Y032835D01*
X023593Y032805D01*
X023628Y032772D01*
X023660Y032736D01*
X023690Y032698D01*
X023716Y032657D01*
X023738Y032614D01*
X023758Y032570D01*
X023773Y032525D01*
X023785Y032478D01*
X023793Y032430D01*
X023797Y032382D01*
X023797Y032334D01*
X023793Y032286D01*
X023785Y032238D01*
X023773Y032191D01*
X023758Y032146D01*
X023738Y032102D01*
X023716Y032059D01*
X023690Y032018D01*
X023660Y031980D01*
X023628Y031944D01*
X023593Y031911D01*
X023555Y031881D01*
X023515Y031854D01*
X023473Y031831D01*
X023429Y031811D01*
X023384Y031794D01*
X023338Y031782D01*
X023290Y031773D01*
X023242Y031768D01*
X023194Y031767D01*
X023146Y031770D01*
X023098Y031777D01*
X023051Y031788D01*
X023005Y031802D01*
X022960Y031820D01*
X022917Y031842D01*
X022876Y031867D01*
X022838Y031896D01*
X022801Y031928D01*
X022767Y031962D01*
X022737Y031999D01*
X022709Y032038D01*
X022684Y032080D01*
X022664Y032124D01*
X022646Y032169D01*
X022633Y032215D01*
X022623Y032262D01*
X022617Y032310D01*
X022615Y032358D01*
X023115Y028358D02*
X023117Y028406D01*
X023123Y028454D01*
X023133Y028501D01*
X023146Y028547D01*
X023164Y028592D01*
X023184Y028636D01*
X023209Y028678D01*
X023237Y028717D01*
X023267Y028754D01*
X023301Y028788D01*
X023338Y028820D01*
X023376Y028849D01*
X023417Y028874D01*
X023460Y028896D01*
X023505Y028914D01*
X023551Y028928D01*
X023598Y028939D01*
X023646Y028946D01*
X023694Y028949D01*
X023742Y028948D01*
X023790Y028943D01*
X023838Y028934D01*
X023884Y028922D01*
X023929Y028905D01*
X023973Y028885D01*
X024015Y028862D01*
X024055Y028835D01*
X024093Y028805D01*
X024128Y028772D01*
X024160Y028736D01*
X024190Y028698D01*
X024216Y028657D01*
X024238Y028614D01*
X024258Y028570D01*
X024273Y028525D01*
X024285Y028478D01*
X024293Y028430D01*
X024297Y028382D01*
X024297Y028334D01*
X024293Y028286D01*
X024285Y028238D01*
X024273Y028191D01*
X024258Y028146D01*
X024238Y028102D01*
X024216Y028059D01*
X024190Y028018D01*
X024160Y027980D01*
X024128Y027944D01*
X024093Y027911D01*
X024055Y027881D01*
X024015Y027854D01*
X023973Y027831D01*
X023929Y027811D01*
X023884Y027794D01*
X023838Y027782D01*
X023790Y027773D01*
X023742Y027768D01*
X023694Y027767D01*
X023646Y027770D01*
X023598Y027777D01*
X023551Y027788D01*
X023505Y027802D01*
X023460Y027820D01*
X023417Y027842D01*
X023376Y027867D01*
X023338Y027896D01*
X023301Y027928D01*
X023267Y027962D01*
X023237Y027999D01*
X023209Y028038D01*
X023184Y028080D01*
X023164Y028124D01*
X023146Y028169D01*
X023133Y028215D01*
X023123Y028262D01*
X023117Y028310D01*
X023115Y028358D01*
X023115Y005258D02*
X023117Y005306D01*
X023123Y005354D01*
X023133Y005401D01*
X023146Y005447D01*
X023164Y005492D01*
X023184Y005536D01*
X023209Y005578D01*
X023237Y005617D01*
X023267Y005654D01*
X023301Y005688D01*
X023338Y005720D01*
X023376Y005749D01*
X023417Y005774D01*
X023460Y005796D01*
X023505Y005814D01*
X023551Y005828D01*
X023598Y005839D01*
X023646Y005846D01*
X023694Y005849D01*
X023742Y005848D01*
X023790Y005843D01*
X023838Y005834D01*
X023884Y005822D01*
X023929Y005805D01*
X023973Y005785D01*
X024015Y005762D01*
X024055Y005735D01*
X024093Y005705D01*
X024128Y005672D01*
X024160Y005636D01*
X024190Y005598D01*
X024216Y005557D01*
X024238Y005514D01*
X024258Y005470D01*
X024273Y005425D01*
X024285Y005378D01*
X024293Y005330D01*
X024297Y005282D01*
X024297Y005234D01*
X024293Y005186D01*
X024285Y005138D01*
X024273Y005091D01*
X024258Y005046D01*
X024238Y005002D01*
X024216Y004959D01*
X024190Y004918D01*
X024160Y004880D01*
X024128Y004844D01*
X024093Y004811D01*
X024055Y004781D01*
X024015Y004754D01*
X023973Y004731D01*
X023929Y004711D01*
X023884Y004694D01*
X023838Y004682D01*
X023790Y004673D01*
X023742Y004668D01*
X023694Y004667D01*
X023646Y004670D01*
X023598Y004677D01*
X023551Y004688D01*
X023505Y004702D01*
X023460Y004720D01*
X023417Y004742D01*
X023376Y004767D01*
X023338Y004796D01*
X023301Y004828D01*
X023267Y004862D01*
X023237Y004899D01*
X023209Y004938D01*
X023184Y004980D01*
X023164Y005024D01*
X023146Y005069D01*
X023133Y005115D01*
X023123Y005162D01*
X023117Y005210D01*
X023115Y005258D01*
D11*
X022276Y030428D02*
X024706Y030428D01*
X018826Y030378D02*
X015186Y030388D01*
X015186Y031978D01*
M02*
