G75*
G70*
%OFA0B0*%
%FSLAX24Y24*%
%IPPOS*%
%LPD*%
%AMOC8*
5,1,8,0,0,1.08239X$1,22.5*
%
%ADD10C,0.0434*%
%ADD11OC8,0.1080*%
%ADD12OC8,0.0820*%
%ADD13C,0.0820*%
%ADD14C,0.1261*%
%ADD15OC8,0.0710*%
%ADD16R,0.0710X0.0182*%
%ADD17C,0.0390*%
%ADD18C,0.0476*%
D10*
X003406Y012091D03*
X003406Y013824D03*
D11*
X010506Y003458D03*
X012306Y003458D03*
D12*
X021606Y015458D03*
X022606Y015458D03*
X022606Y016458D03*
X022606Y017458D03*
X022606Y018458D03*
X022606Y019458D03*
X022606Y020458D03*
X022606Y021458D03*
X022606Y022458D03*
X022606Y023458D03*
X022606Y024458D03*
X021606Y024458D03*
X021606Y023458D03*
X021606Y022458D03*
X021606Y021458D03*
X021606Y020458D03*
X021606Y019458D03*
X021606Y018458D03*
X021606Y017458D03*
X021606Y016458D03*
D13*
X017786Y012148D03*
X017786Y010368D03*
X015226Y010368D03*
X013986Y010368D03*
X013986Y012148D03*
X015226Y012148D03*
X011426Y012148D03*
X010186Y012148D03*
X010186Y010368D03*
X011426Y010368D03*
X007626Y010368D03*
X007626Y012148D03*
D14*
X001706Y005258D03*
X001706Y028358D03*
X017106Y032358D03*
X023206Y032358D03*
X023706Y028358D03*
X023706Y005258D03*
D15*
X021356Y029158D03*
X021356Y030934D03*
X020536Y030934D03*
X019706Y030934D03*
X019706Y029158D03*
X011916Y028958D03*
D16*
X010656Y029416D03*
X010656Y029612D03*
X010656Y029809D03*
X010656Y030006D03*
X010656Y030203D03*
X008635Y030200D03*
X008635Y030003D03*
X008635Y029806D03*
X008635Y029609D03*
X008635Y029412D03*
D17*
X007806Y028788D03*
X010246Y026788D03*
X011403Y026326D03*
X012326Y026353D03*
X012613Y025996D03*
X013550Y026555D03*
X013404Y027253D03*
X013400Y028488D03*
X012364Y028095D03*
X011406Y029755D03*
X014506Y029058D03*
X014506Y028458D03*
X014508Y027778D03*
X015189Y026744D03*
X014826Y026028D03*
X014986Y024718D03*
X016206Y026858D03*
X017296Y028178D03*
X017836Y026798D03*
X019266Y026258D03*
X019736Y027658D03*
X021206Y026858D03*
X019586Y024018D03*
X018336Y023698D03*
X017666Y022408D03*
X017896Y021668D03*
X017006Y021188D03*
X015676Y021863D03*
X015026Y020018D03*
X014316Y019698D03*
X014722Y018546D03*
X014026Y017768D03*
X012856Y017888D03*
X012216Y017248D03*
X011346Y017278D03*
X010636Y017838D03*
X009786Y017498D03*
X008978Y016706D03*
X007926Y016428D03*
X007526Y016418D03*
X007806Y017098D03*
X007016Y018128D03*
X006606Y019358D03*
X007586Y019338D03*
X008216Y019298D03*
X008526Y020138D03*
X009586Y019298D03*
X009786Y018678D03*
X011246Y018588D03*
X012626Y019698D03*
X012916Y020298D03*
X011186Y021058D03*
X010946Y020618D03*
X009506Y021808D03*
X009026Y021796D03*
X007476Y022108D03*
X008231Y023569D03*
X008966Y024248D03*
X009276Y023838D03*
X010416Y024988D03*
X011322Y024605D03*
X011316Y024118D03*
X007416Y024248D03*
X007126Y025458D03*
X004296Y027118D03*
X002566Y024568D03*
X002306Y023778D03*
X002266Y021708D03*
X004096Y021738D03*
X004506Y020158D03*
X005409Y018976D03*
X005696Y017138D03*
X005116Y017138D03*
X005041Y013964D03*
X004106Y010458D03*
X003386Y009038D03*
X005405Y009554D03*
X006146Y009938D03*
X008386Y008898D03*
X008706Y009138D03*
X011266Y008428D03*
X011266Y006958D03*
X010566Y004928D03*
X010086Y004958D03*
X012366Y005058D03*
X013296Y007508D03*
X015506Y005658D03*
X015656Y002478D03*
X018839Y008458D03*
X017906Y008758D03*
X017226Y009528D03*
X018886Y010878D03*
X018546Y012008D03*
X017566Y012798D03*
X017436Y013688D03*
X018026Y014598D03*
X018316Y015498D03*
X018871Y013981D03*
X020386Y012078D03*
X022906Y010898D03*
X021299Y008394D03*
X020416Y008728D03*
X021566Y006718D03*
X015906Y015208D03*
X015216Y015378D03*
X014896Y015088D03*
X014616Y014458D03*
X012226Y015778D03*
X011206Y014058D03*
X010166Y014598D03*
X009756Y014658D03*
X008906Y013618D03*
X019586Y021478D03*
X020096Y020558D03*
X018906Y031498D03*
X018906Y033148D03*
X021346Y033158D03*
X021336Y031518D03*
D18*
X018118Y020702D03*
X017406Y020058D03*
X010606Y005958D03*
M02*
