G75*
G70*
%OFA0B0*%
%FSLAX24Y24*%
%IPPOS*%
%LPD*%
%AMOC8*
5,1,8,0,0,1.08239X$1,22.5*
%
%ADD10R,0.2640X0.1900*%
%ADD11C,0.0150*%
%ADD12OC8,0.1000*%
%ADD13OC8,0.0740*%
%ADD14C,0.0740*%
%ADD15OC8,0.0630*%
%ADD16R,0.0630X0.0102*%
%ADD17C,0.0310*%
%ADD18C,0.0160*%
%ADD19C,0.0240*%
%ADD20C,0.0080*%
%ADD21C,0.0100*%
%ADD22C,0.0140*%
%ADD23C,0.0320*%
%ADD24C,0.0120*%
%ADD25C,0.0396*%
%ADD26C,0.0500*%
%ADD27C,0.0300*%
D10*
X020126Y032308D03*
D11*
X002621Y026183D02*
X002621Y025833D01*
X002445Y025833D01*
X002387Y025891D01*
X002387Y025949D01*
X002445Y026008D01*
X002621Y026008D01*
X002621Y026183D02*
X002445Y026183D01*
X002387Y026125D01*
X002387Y026066D01*
X002445Y026008D01*
X002160Y026125D02*
X002160Y025891D01*
X002102Y025833D01*
X001985Y025833D01*
X001927Y025891D01*
X001927Y026125D01*
X001985Y026183D01*
X002102Y026183D01*
X002160Y026125D01*
X001700Y026183D02*
X001466Y026183D01*
X001583Y026183D02*
X001583Y025833D01*
D12*
X010506Y003458D03*
X012306Y003458D03*
D13*
X021606Y015458D03*
X022606Y015458D03*
X022606Y016458D03*
X022606Y017458D03*
X022606Y018458D03*
X022606Y019458D03*
X022606Y020458D03*
X022606Y021458D03*
X022606Y022458D03*
X022606Y023458D03*
X022606Y024458D03*
X021606Y024458D03*
X021606Y023458D03*
X021606Y022458D03*
X021606Y021458D03*
X021606Y020458D03*
X021606Y019458D03*
X021606Y018458D03*
X021606Y017458D03*
X021606Y016458D03*
D14*
X017786Y012148D03*
X017786Y010368D03*
X015226Y010368D03*
X013986Y010368D03*
X013986Y012148D03*
X015226Y012148D03*
X011426Y012148D03*
X010186Y012148D03*
X010186Y010368D03*
X011426Y010368D03*
X007626Y010368D03*
X007626Y012148D03*
D15*
X011916Y028958D03*
X019706Y029158D03*
X019706Y030934D03*
X020536Y030934D03*
X021356Y030934D03*
X021356Y029158D03*
D16*
X010656Y029416D03*
X010656Y029612D03*
X010656Y029809D03*
X010656Y030006D03*
X010656Y030203D03*
X008635Y030200D03*
X008635Y030003D03*
X008635Y029806D03*
X008635Y029609D03*
X008635Y029412D03*
D17*
X007806Y028788D03*
X010246Y026788D03*
X011403Y026326D03*
X012326Y026353D03*
X012613Y025996D03*
X013550Y026555D03*
X013404Y027253D03*
X013400Y028488D03*
X012364Y028095D03*
X011406Y029755D03*
X014506Y029058D03*
X014506Y028458D03*
X014508Y027778D03*
X015189Y026744D03*
X014826Y026028D03*
X014986Y024718D03*
X016206Y026858D03*
X017296Y028178D03*
X017836Y026798D03*
X019266Y026258D03*
X019736Y027658D03*
X021206Y026858D03*
X019586Y024018D03*
X018336Y023698D03*
X017666Y022408D03*
X017896Y021668D03*
X017006Y021188D03*
X015676Y021863D03*
X015026Y020018D03*
X014316Y019698D03*
X014722Y018546D03*
X014026Y017768D03*
X012856Y017888D03*
X012216Y017248D03*
X011346Y017278D03*
X010636Y017838D03*
X009786Y017498D03*
X008978Y016706D03*
X007926Y016428D03*
X007526Y016418D03*
X007806Y017098D03*
X007016Y018128D03*
X006606Y019358D03*
X007586Y019338D03*
X008216Y019298D03*
X008526Y020138D03*
X009586Y019298D03*
X009786Y018678D03*
X011246Y018588D03*
X012626Y019698D03*
X012916Y020298D03*
X011186Y021058D03*
X010946Y020618D03*
X009506Y021808D03*
X009026Y021796D03*
X007476Y022108D03*
X008231Y023569D03*
X008966Y024248D03*
X009276Y023838D03*
X010416Y024988D03*
X011322Y024605D03*
X011316Y024118D03*
X007416Y024248D03*
X007126Y025458D03*
X004296Y027118D03*
X002566Y024568D03*
X002306Y023778D03*
X002266Y021708D03*
X004096Y021738D03*
X004506Y020158D03*
X005409Y018976D03*
X005696Y017138D03*
X005116Y017138D03*
X005041Y013964D03*
X004106Y010458D03*
X003386Y009038D03*
X005405Y009554D03*
X006146Y009938D03*
X008386Y008898D03*
X008706Y009138D03*
X011266Y008428D03*
X011266Y006958D03*
X010566Y004928D03*
X010086Y004958D03*
X012366Y005058D03*
X013296Y007508D03*
X015506Y005658D03*
X015656Y002478D03*
X018839Y008458D03*
X017906Y008758D03*
X017226Y009528D03*
X018886Y010878D03*
X018546Y012008D03*
X017566Y012798D03*
X017436Y013688D03*
X018026Y014598D03*
X018316Y015498D03*
X018871Y013981D03*
X020386Y012078D03*
X022906Y010898D03*
X021299Y008394D03*
X020416Y008728D03*
X021566Y006718D03*
X015906Y015208D03*
X015216Y015378D03*
X014896Y015088D03*
X014616Y014458D03*
X012226Y015778D03*
X011206Y014058D03*
X010166Y014598D03*
X009756Y014658D03*
X008906Y013618D03*
X019586Y021478D03*
X020096Y020558D03*
X018906Y031498D03*
X018906Y033148D03*
X021346Y033158D03*
X021336Y031518D03*
D18*
X019736Y027658D02*
X018206Y027658D01*
X017206Y026858D01*
X016206Y026858D01*
X017836Y026798D02*
X017946Y026858D01*
X021206Y026858D01*
X022606Y020458D02*
X022606Y018458D01*
X022606Y019458D01*
X022606Y015458D01*
X022606Y016458D01*
X022606Y017458D01*
X022606Y015458D01*
X018906Y010878D02*
X018886Y010878D01*
X018546Y011428D02*
X018046Y010928D01*
X017576Y010928D01*
X017226Y010578D01*
X017226Y009528D01*
X017906Y008758D02*
X017976Y008788D01*
X018976Y008788D01*
X019036Y008728D01*
X020416Y008728D01*
X018546Y011428D02*
X018546Y012008D01*
X017066Y013318D02*
X017436Y013688D01*
X017066Y013318D02*
X010986Y013318D01*
X009756Y014548D01*
X009756Y014658D01*
X007926Y016358D02*
X007656Y016088D01*
X006746Y016088D01*
X005696Y017138D01*
X005116Y017138D02*
X005116Y018808D01*
X005076Y018848D01*
X005076Y019698D01*
X004616Y020158D01*
X004506Y020158D01*
X001186Y023188D02*
X002566Y024568D01*
X001186Y023188D02*
X001186Y010778D01*
X003636Y008328D01*
X008716Y008328D01*
X009146Y008758D01*
X011396Y008758D01*
X011476Y008678D01*
X017826Y008678D01*
X017906Y008758D01*
X012226Y015778D02*
X012856Y017888D01*
X015026Y020018D02*
X015676Y021863D01*
X011946Y024858D02*
X011106Y025538D01*
X010416Y024988D01*
X011106Y025538D02*
X011403Y026326D01*
X009276Y023838D02*
X009256Y023817D01*
X009272Y023833D01*
X009276Y023828D01*
X009272Y023833D02*
X009276Y023838D01*
X008226Y023558D01*
X005336Y027118D02*
X004296Y027118D01*
X005336Y027118D02*
X007506Y029288D01*
X007506Y029908D01*
X007856Y030228D01*
X008356Y030228D01*
X007769Y029796D02*
X007768Y029217D01*
X007776Y028758D01*
X007806Y028788D01*
X011406Y029755D02*
X011406Y030160D01*
X007926Y016428D02*
X007926Y016358D01*
D19*
X011346Y017278D02*
X012216Y017248D01*
X011606Y014458D02*
X014616Y014458D01*
X011606Y014458D02*
X011206Y014058D01*
X010086Y005058D02*
X010206Y004578D01*
X021606Y024458D02*
X022606Y024458D01*
D20*
X022106Y023958D02*
X022106Y021858D01*
X021666Y021458D01*
X021606Y021458D01*
X021394Y020959D02*
X022105Y020955D01*
X022105Y015212D01*
X019906Y013104D01*
X009666Y013104D01*
X009666Y009778D01*
X009026Y009058D01*
X008626Y008548D01*
X003746Y008548D01*
X003386Y009038D01*
X004106Y010458D02*
X005146Y011458D01*
X005143Y013814D01*
X005041Y013964D01*
X007306Y011158D02*
X008216Y011858D01*
X008216Y019298D01*
X007906Y019018D02*
X007906Y021058D01*
X008866Y022098D01*
X009826Y022098D01*
X009826Y019618D01*
X009586Y019298D01*
X009466Y019178D01*
X009466Y009938D01*
X008706Y009138D01*
X008386Y008898D02*
X008266Y009178D01*
X008266Y011626D01*
X008527Y011827D01*
X008526Y020138D01*
X007586Y019338D02*
X006586Y020338D01*
X006586Y025538D01*
X010174Y029178D01*
X010174Y029618D01*
X010656Y029618D01*
X010656Y029612D01*
X010656Y029416D02*
X010656Y029138D01*
X010666Y029138D01*
X009906Y028458D01*
X009906Y024658D01*
X010626Y024658D01*
X010706Y024738D01*
X010706Y024898D01*
X011426Y024898D01*
X011736Y024698D01*
X011736Y021978D01*
X010806Y021098D01*
X010946Y020618D01*
X012226Y021218D02*
X012231Y025902D01*
X012216Y026017D01*
X012326Y026353D01*
X012946Y026498D02*
X013326Y026838D01*
X014776Y027498D01*
X015626Y028178D01*
X017296Y028178D01*
X017606Y027958D02*
X017486Y027838D01*
X016766Y027838D01*
X015189Y026744D01*
X014508Y027778D02*
X014506Y028458D01*
X014006Y028758D02*
X019206Y028758D01*
X019326Y028638D01*
X020536Y028638D01*
X020536Y030934D01*
X021506Y027938D02*
X021506Y025088D01*
X021076Y024678D01*
X021076Y024268D01*
X021396Y023958D01*
X022106Y023958D01*
X021606Y023458D02*
X021586Y023458D01*
X021106Y022978D01*
X021106Y021938D01*
X020096Y020928D01*
X020096Y020558D01*
X019426Y020178D02*
X021086Y020168D01*
X021076Y020668D01*
X021394Y020959D01*
X021606Y020458D02*
X021586Y020418D01*
X021586Y019458D01*
X021606Y019458D01*
X021586Y019458D02*
X021106Y018978D01*
X021106Y015108D01*
X018121Y015105D01*
X018041Y015211D01*
X017857Y015472D01*
X014686Y019038D01*
X014686Y024478D01*
X014986Y024718D01*
X012946Y026498D02*
X012946Y020738D01*
X009786Y017498D01*
X010636Y017838D02*
X011136Y016018D01*
X011136Y015378D01*
X015216Y015378D01*
X014896Y015088D02*
X014776Y015208D01*
X010776Y015208D01*
X010166Y014598D01*
X009266Y013978D02*
X009266Y021538D01*
X009506Y021808D01*
X009026Y021796D02*
X009026Y016826D01*
X008978Y016706D01*
X009786Y018678D02*
X012226Y021218D01*
X012816Y020298D02*
X011246Y018728D01*
X011246Y018588D01*
X012626Y018578D02*
X013986Y017218D01*
X013986Y017198D01*
X013186Y017198D01*
X013986Y017198D02*
X015616Y015598D01*
X015609Y013961D01*
X018871Y013981D01*
X018026Y014598D02*
X014746Y018577D01*
X014722Y018546D01*
X014436Y018948D02*
X014436Y017018D01*
X015906Y015548D01*
X015906Y015208D01*
X017566Y012798D02*
X018166Y012798D01*
X019191Y011773D01*
X019496Y012078D01*
X020386Y012078D01*
X019191Y011773D02*
X017786Y010368D01*
X018316Y015498D02*
X018306Y020018D01*
X017006Y021188D01*
X019266Y023458D01*
X019266Y026258D01*
X017606Y027958D02*
X021506Y027938D01*
X019586Y024018D02*
X019586Y021478D01*
X019426Y020178D02*
X017896Y021668D01*
X014516Y019498D02*
X014516Y019028D01*
X014436Y018948D01*
X014516Y019498D02*
X014316Y019698D01*
X014016Y017778D02*
X014026Y017768D01*
X012626Y018578D02*
X012626Y019698D01*
X012816Y020298D02*
X012916Y020298D01*
X011316Y022288D02*
X011316Y024118D01*
X010986Y024258D02*
X011322Y024605D01*
X010986Y024258D02*
X010986Y023158D01*
X007126Y023158D01*
X007126Y025458D01*
X006386Y025618D02*
X006386Y020098D01*
X007426Y019018D01*
X007906Y019018D01*
X007016Y018298D02*
X004216Y021098D01*
X004216Y021618D01*
X004096Y021738D01*
X003146Y021928D02*
X002486Y021928D01*
X002266Y021708D01*
X003146Y021928D02*
X006726Y018348D01*
X006726Y018008D01*
X007346Y017388D01*
X007346Y016908D01*
X007526Y016728D01*
X007526Y016418D01*
X007016Y018128D02*
X007016Y018298D01*
X005409Y018976D02*
X005404Y009628D01*
X005405Y009554D01*
X006146Y009938D02*
X006786Y009938D01*
X006806Y009958D01*
X007306Y011158D01*
X008906Y013618D02*
X009266Y013978D01*
X011256Y008458D02*
X011266Y008428D01*
X011266Y006958D01*
X008616Y022118D02*
X007476Y022108D01*
X008616Y022118D02*
X008776Y022278D01*
X011316Y022288D01*
X008966Y024248D02*
X007416Y024248D01*
X006386Y025618D02*
X009966Y029298D01*
X009966Y029808D01*
X010626Y029808D01*
X010626Y029809D01*
X010656Y029809D01*
X010656Y030006D02*
X011106Y030006D01*
X011106Y029458D01*
X014506Y029458D01*
X014506Y029058D01*
X014006Y028758D02*
X013806Y028958D01*
X011916Y028958D01*
X010306Y027148D01*
X010296Y027148D01*
X010256Y027108D01*
X010256Y027098D01*
X010246Y026788D01*
X009556Y029408D02*
X008635Y029408D01*
X008635Y029412D01*
X008626Y029412D01*
X008626Y029378D01*
X008606Y029806D02*
X008635Y029806D01*
X008635Y030003D01*
X008636Y030198D02*
X008636Y030208D01*
X008635Y030200D02*
X008636Y030198D01*
X008635Y030200D02*
X008557Y030278D01*
X008356Y030278D01*
X008356Y030228D01*
X008589Y029806D02*
X008606Y029806D01*
X009556Y030203D02*
X009556Y029408D01*
X009556Y030203D02*
X010656Y030203D01*
X011386Y030203D01*
X011406Y030160D01*
X013400Y028488D02*
X013404Y027253D01*
D21*
X013550Y026555D02*
X014014Y026429D01*
X014016Y017778D01*
X015676Y021863D02*
X015746Y021858D01*
X017276Y022918D01*
X014826Y026028D01*
X015293Y026429D02*
X014014Y026429D01*
X015293Y026429D02*
X018996Y023668D01*
X017666Y022408D01*
X017276Y022918D02*
X018336Y023698D01*
X008589Y029806D02*
X008585Y029976D01*
X008589Y029806D02*
X007769Y029796D01*
X007746Y029218D02*
X007768Y029217D01*
X007746Y029218D02*
X002306Y023778D01*
X008226Y023563D02*
X008231Y023569D01*
X008226Y023563D02*
X008226Y023558D01*
X011296Y008458D02*
X011266Y008428D01*
X011296Y008458D02*
X018839Y008458D01*
D22*
X011186Y021058D02*
X011946Y021738D01*
X011946Y024858D01*
X012613Y025996D02*
X012712Y026645D01*
X012713Y027028D01*
X012344Y027028D01*
X012364Y028095D01*
D23*
X006606Y019358D02*
X007806Y018158D01*
X007806Y017098D01*
X012166Y005658D02*
X011356Y004928D01*
X010566Y004928D01*
X010206Y004578D02*
X010506Y004398D01*
X011946Y004398D01*
X012366Y005058D01*
X010506Y003458D02*
X011486Y002478D01*
X015656Y002478D01*
X010086Y004958D02*
X010086Y005058D01*
X018906Y010878D02*
X021299Y008394D01*
D24*
X001165Y003706D02*
X001165Y002218D01*
X011309Y002218D01*
X010718Y002809D01*
X010237Y002809D01*
X009856Y003189D01*
X009856Y003726D01*
X010237Y004107D01*
X010390Y004107D01*
X010366Y004121D01*
X010330Y004136D01*
X010314Y004152D01*
X009994Y004344D01*
X009921Y004443D01*
X009891Y004562D01*
X009906Y004666D01*
X009895Y004711D01*
X009824Y004783D01*
X009776Y004896D01*
X009776Y005119D01*
X009786Y005143D01*
X009786Y005437D01*
X009832Y005547D01*
X009916Y005631D01*
X010026Y005677D01*
X010145Y005677D01*
X010396Y005677D01*
X010311Y005761D01*
X010258Y005889D01*
X010258Y006027D01*
X010311Y006154D01*
X010409Y006252D01*
X010536Y006305D01*
X010675Y006305D01*
X010802Y006252D01*
X010900Y006154D01*
X010953Y006027D01*
X010953Y005889D01*
X010900Y005761D01*
X010815Y005677D01*
X011058Y005677D01*
X012107Y006773D01*
X012109Y006847D01*
X012173Y006992D01*
X013078Y007852D01*
X013226Y007909D01*
X013385Y007904D01*
X013530Y007840D01*
X013639Y007725D01*
X013696Y007577D01*
X013692Y007418D01*
X013628Y007273D01*
X012723Y006414D01*
X012574Y006357D01*
X012537Y006358D01*
X012249Y006057D01*
X015585Y006057D01*
X015731Y005996D01*
X015844Y005884D01*
X015904Y005737D01*
X015904Y005578D01*
X015844Y005432D01*
X015731Y005319D01*
X015585Y005259D01*
X012602Y005259D01*
X012619Y005234D01*
X012623Y005230D01*
X012625Y005226D01*
X012654Y005185D01*
X012668Y005123D01*
X012669Y005118D01*
X012669Y005114D01*
X012680Y005065D01*
X012669Y005002D01*
X012669Y004997D01*
X012668Y004993D01*
X012659Y004944D01*
X012625Y004890D01*
X012623Y004885D01*
X012620Y004882D01*
X012221Y004255D01*
X012207Y004223D01*
X012188Y004203D01*
X012173Y004180D01*
X012145Y004160D01*
X012121Y004136D01*
X012095Y004125D01*
X012073Y004109D01*
X012060Y004107D01*
X012574Y004107D01*
X012954Y003726D01*
X012954Y003189D01*
X012574Y002809D01*
X012037Y002809D01*
X011656Y003189D01*
X011656Y003726D01*
X012027Y004097D01*
X012007Y004089D01*
X011979Y004089D01*
X011953Y004083D01*
X011919Y004089D01*
X010792Y004089D01*
X011154Y003726D01*
X011154Y003246D01*
X011614Y002787D01*
X015717Y002787D01*
X015831Y002740D01*
X015917Y002653D01*
X015964Y002539D01*
X015964Y002416D01*
X015917Y002303D01*
X015832Y002218D01*
X024246Y002218D01*
X024246Y003697D01*
X023830Y003602D01*
X023830Y003602D01*
X023336Y003639D01*
X023336Y003639D01*
X022876Y003820D01*
X022875Y003820D01*
X022489Y004129D01*
X022489Y004129D01*
X022210Y004537D01*
X022210Y004537D01*
X022064Y005010D01*
X022064Y005505D01*
X022210Y005978D01*
X022210Y005978D01*
X022489Y006387D01*
X022489Y006387D01*
X022875Y006695D01*
X022876Y006695D01*
X023336Y006876D01*
X023336Y006876D01*
X023830Y006913D01*
X023830Y006913D01*
X024246Y006818D01*
X024246Y026797D01*
X023830Y026702D01*
X023830Y026702D01*
X023336Y026739D01*
X023336Y026739D01*
X022876Y026920D01*
X022875Y026920D01*
X022489Y027229D01*
X022489Y027229D01*
X022210Y027637D01*
X022210Y027637D01*
X022064Y028110D01*
X022064Y028110D01*
X022064Y028605D01*
X022064Y028605D01*
X022210Y029078D01*
X022210Y029078D01*
X022489Y029487D01*
X022489Y029487D01*
X022489Y029487D01*
X022875Y029795D01*
X022876Y029795D01*
X022907Y029808D01*
X022152Y029808D01*
X021924Y029902D01*
X021750Y030076D01*
X021656Y030304D01*
X021656Y030551D01*
X021675Y030597D01*
X021548Y030470D01*
X021163Y030470D01*
X020945Y030688D01*
X020728Y030470D01*
X020724Y030470D01*
X020724Y028716D01*
X020724Y028559D01*
X020614Y028449D01*
X019247Y028449D01*
X019136Y028559D01*
X019127Y028569D01*
X014789Y028569D01*
X014809Y028518D01*
X014809Y028397D01*
X014763Y028285D01*
X014695Y028218D01*
X014696Y028020D01*
X014766Y027950D01*
X014812Y027839D01*
X014812Y027769D01*
X015499Y028319D01*
X015547Y028367D01*
X015559Y028367D01*
X015569Y028374D01*
X015636Y028367D01*
X017055Y028367D01*
X017123Y028435D01*
X017235Y028482D01*
X017356Y028482D01*
X017468Y028435D01*
X017553Y028350D01*
X017599Y028238D01*
X017599Y028147D01*
X017605Y028147D01*
X017684Y028147D01*
X017684Y028146D01*
X021508Y028127D01*
X021584Y028127D01*
X021584Y028126D01*
X021585Y028126D01*
X021642Y028069D01*
X021694Y028016D01*
X021694Y028015D01*
X021695Y028015D01*
X021694Y027937D01*
X021694Y025163D01*
X021696Y025161D01*
X021694Y025086D01*
X021694Y025009D01*
X021693Y025007D01*
X021693Y025005D01*
X021674Y024988D01*
X021825Y024988D01*
X022105Y024707D01*
X022386Y024988D01*
X022565Y024988D01*
X022565Y024498D01*
X022565Y024418D01*
X022076Y024418D01*
X021646Y024418D01*
X021646Y024498D01*
X022076Y024498D01*
X022565Y024498D01*
X022646Y024498D01*
X023135Y024498D01*
X023135Y024677D01*
X022825Y024988D01*
X022646Y024988D01*
X022646Y024498D01*
X022646Y024418D01*
X023135Y024418D01*
X023135Y024238D01*
X022847Y023950D01*
X023124Y023673D01*
X023124Y023243D01*
X022839Y022958D01*
X023124Y022673D01*
X023124Y022243D01*
X022839Y021958D01*
X023124Y021673D01*
X023124Y021243D01*
X022839Y020958D01*
X023124Y020673D01*
X023124Y020243D01*
X022839Y019958D01*
X023124Y019673D01*
X023124Y019243D01*
X022839Y018958D01*
X023124Y018673D01*
X023124Y018243D01*
X022839Y017958D01*
X023124Y017673D01*
X023124Y017243D01*
X022839Y016958D01*
X023124Y016673D01*
X023124Y016243D01*
X022839Y015958D01*
X023124Y015673D01*
X023124Y015243D01*
X022820Y014939D01*
X022391Y014939D01*
X022245Y015085D01*
X022237Y015077D01*
X022183Y015023D01*
X022181Y015023D01*
X020037Y012968D01*
X019984Y012915D01*
X019981Y012915D01*
X019980Y012913D01*
X019903Y012915D01*
X018316Y012915D01*
X019191Y012040D01*
X019417Y012267D01*
X019574Y012267D01*
X020145Y012267D01*
X020213Y012335D01*
X020325Y012382D01*
X020446Y012382D01*
X020558Y012335D01*
X020643Y012250D01*
X020689Y012138D01*
X020689Y012017D01*
X020643Y011905D01*
X020558Y011820D01*
X020446Y011774D01*
X020325Y011774D01*
X020213Y011820D01*
X020145Y011889D01*
X019574Y011889D01*
X019379Y011694D01*
X019269Y011584D01*
X018872Y011187D01*
X018973Y011185D01*
X019085Y011136D01*
X021564Y008564D01*
X021609Y008449D01*
X021607Y008326D01*
X021558Y008214D01*
X021469Y008128D01*
X021355Y008084D01*
X021232Y008086D01*
X021119Y008135D01*
X020686Y008585D01*
X020673Y008555D01*
X020588Y008470D01*
X020476Y008424D01*
X020355Y008424D01*
X020243Y008470D01*
X020215Y008499D01*
X019143Y008499D01*
X019143Y008397D01*
X019096Y008285D01*
X019011Y008200D01*
X018899Y008154D01*
X018778Y008154D01*
X018666Y008200D01*
X018608Y008259D01*
X011525Y008259D01*
X011523Y008255D01*
X011454Y008187D01*
X011454Y007199D01*
X011523Y007130D01*
X011569Y007018D01*
X011569Y006897D01*
X011523Y006785D01*
X011438Y006700D01*
X011326Y006654D01*
X011205Y006654D01*
X011093Y006700D01*
X011008Y006785D01*
X010961Y006897D01*
X010961Y007018D01*
X011008Y007130D01*
X011076Y007199D01*
X011076Y008187D01*
X011008Y008255D01*
X010961Y008367D01*
X010961Y008488D01*
X010978Y008529D01*
X009240Y008529D01*
X008944Y008233D01*
X008944Y008233D01*
X008810Y008099D01*
X003730Y008099D01*
X003541Y008099D01*
X001165Y010474D01*
X001165Y006809D01*
X001336Y006876D01*
X001336Y006876D01*
X001830Y006913D01*
X001830Y006913D01*
X002312Y006803D01*
X002312Y006803D01*
X002740Y006555D01*
X002740Y006555D01*
X003077Y006193D01*
X003077Y006193D01*
X003292Y005747D01*
X003292Y005747D01*
X003365Y005258D01*
X003292Y004768D01*
X003292Y004768D01*
X003077Y004323D01*
X003077Y004323D01*
X002740Y003960D01*
X002740Y003960D01*
X002312Y003712D01*
X002312Y003712D01*
X001830Y003602D01*
X001830Y003602D01*
X001336Y003639D01*
X001336Y003639D01*
X001165Y003706D01*
X001165Y003680D02*
X001232Y003680D01*
X001165Y003562D02*
X009856Y003562D01*
X009856Y003680D02*
X002171Y003680D01*
X002461Y003799D02*
X009929Y003799D01*
X010047Y003917D02*
X002667Y003917D01*
X002811Y004036D02*
X010166Y004036D01*
X010310Y004154D02*
X002921Y004154D01*
X003031Y004273D02*
X010113Y004273D01*
X009959Y004391D02*
X003110Y004391D01*
X003167Y004510D02*
X009904Y004510D01*
X009901Y004629D02*
X003224Y004629D01*
X003281Y004747D02*
X009859Y004747D01*
X009789Y004866D02*
X003306Y004866D01*
X003324Y004984D02*
X009776Y004984D01*
X009776Y005103D02*
X003342Y005103D01*
X003360Y005221D02*
X009786Y005221D01*
X009786Y005340D02*
X003353Y005340D01*
X003335Y005458D02*
X009795Y005458D01*
X009862Y005577D02*
X003317Y005577D01*
X003300Y005695D02*
X010377Y005695D01*
X010289Y005814D02*
X003259Y005814D01*
X003202Y005932D02*
X010258Y005932D01*
X010268Y006051D02*
X003145Y006051D01*
X003088Y006170D02*
X010327Y006170D01*
X010496Y006288D02*
X002989Y006288D01*
X002879Y006407D02*
X011756Y006407D01*
X011869Y006525D02*
X002769Y006525D01*
X002588Y006644D02*
X011983Y006644D01*
X012096Y006762D02*
X011500Y006762D01*
X011563Y006881D02*
X012124Y006881D01*
X012181Y006999D02*
X011569Y006999D01*
X011528Y007118D02*
X012306Y007118D01*
X012430Y007236D02*
X011454Y007236D01*
X011454Y007355D02*
X012555Y007355D01*
X012680Y007474D02*
X011454Y007474D01*
X011454Y007592D02*
X012805Y007592D01*
X012930Y007711D02*
X011454Y007711D01*
X011454Y007829D02*
X013055Y007829D01*
X013540Y007829D02*
X022113Y007829D01*
X022231Y007948D02*
X011454Y007948D01*
X011454Y008066D02*
X022350Y008066D01*
X022468Y008185D02*
X021528Y008185D01*
X021597Y008303D02*
X022506Y008303D01*
X022506Y008223D02*
X021227Y006944D01*
X021166Y006797D01*
X021166Y006638D01*
X021227Y006492D01*
X021339Y006379D01*
X021486Y006319D01*
X021645Y006319D01*
X021791Y006379D01*
X023131Y007719D01*
X023244Y007832D01*
X023304Y007978D01*
X023304Y010977D01*
X023244Y011124D01*
X023131Y011236D01*
X022985Y011297D01*
X022826Y011297D01*
X022679Y011236D01*
X022567Y011124D01*
X022506Y010977D01*
X022506Y008223D01*
X022506Y008422D02*
X021609Y008422D01*
X021574Y008540D02*
X022506Y008540D01*
X022506Y008659D02*
X021473Y008659D01*
X021359Y008778D02*
X022506Y008778D01*
X022506Y008896D02*
X021244Y008896D01*
X021130Y009015D02*
X022506Y009015D01*
X022506Y009133D02*
X021016Y009133D01*
X020902Y009252D02*
X022506Y009252D01*
X022506Y009370D02*
X020787Y009370D01*
X020673Y009489D02*
X022506Y009489D01*
X022506Y009607D02*
X020559Y009607D01*
X020445Y009726D02*
X022506Y009726D01*
X022506Y009844D02*
X020330Y009844D01*
X020216Y009963D02*
X022506Y009963D01*
X022506Y010081D02*
X020102Y010081D01*
X019988Y010200D02*
X022506Y010200D01*
X022506Y010319D02*
X019873Y010319D01*
X019759Y010437D02*
X022506Y010437D01*
X022506Y010556D02*
X019645Y010556D01*
X019531Y010674D02*
X022506Y010674D01*
X022506Y010793D02*
X019416Y010793D01*
X019302Y010911D02*
X022506Y010911D01*
X022528Y011030D02*
X019188Y011030D01*
X019058Y011148D02*
X022592Y011148D01*
X022754Y011267D02*
X018952Y011267D01*
X019071Y011385D02*
X024246Y011385D01*
X024246Y011267D02*
X023057Y011267D01*
X023219Y011148D02*
X024246Y011148D01*
X024246Y011030D02*
X023283Y011030D01*
X023304Y010911D02*
X024246Y010911D01*
X024246Y010793D02*
X023304Y010793D01*
X023304Y010674D02*
X024246Y010674D01*
X024246Y010556D02*
X023304Y010556D01*
X023304Y010437D02*
X024246Y010437D01*
X024246Y010319D02*
X023304Y010319D01*
X023304Y010200D02*
X024246Y010200D01*
X024246Y010081D02*
X023304Y010081D01*
X023304Y009963D02*
X024246Y009963D01*
X024246Y009844D02*
X023304Y009844D01*
X023304Y009726D02*
X024246Y009726D01*
X024246Y009607D02*
X023304Y009607D01*
X023304Y009489D02*
X024246Y009489D01*
X024246Y009370D02*
X023304Y009370D01*
X023304Y009252D02*
X024246Y009252D01*
X024246Y009133D02*
X023304Y009133D01*
X023304Y009015D02*
X024246Y009015D01*
X024246Y008896D02*
X023304Y008896D01*
X023304Y008778D02*
X024246Y008778D01*
X024246Y008659D02*
X023304Y008659D01*
X023304Y008540D02*
X024246Y008540D01*
X024246Y008422D02*
X023304Y008422D01*
X023304Y008303D02*
X024246Y008303D01*
X024246Y008185D02*
X023304Y008185D01*
X023304Y008066D02*
X024246Y008066D01*
X024246Y007948D02*
X023292Y007948D01*
X023241Y007829D02*
X024246Y007829D01*
X024246Y007711D02*
X023123Y007711D01*
X023004Y007592D02*
X024246Y007592D01*
X024246Y007474D02*
X022886Y007474D01*
X022767Y007355D02*
X024246Y007355D01*
X024246Y007236D02*
X022649Y007236D01*
X022530Y007118D02*
X024246Y007118D01*
X024246Y006999D02*
X022411Y006999D01*
X022293Y006881D02*
X023401Y006881D01*
X023046Y006762D02*
X022174Y006762D01*
X022056Y006644D02*
X022811Y006644D01*
X022662Y006525D02*
X021937Y006525D01*
X021819Y006407D02*
X022514Y006407D01*
X022421Y006288D02*
X012470Y006288D01*
X012357Y006170D02*
X022341Y006170D01*
X022260Y006051D02*
X015598Y006051D01*
X015795Y005932D02*
X022196Y005932D01*
X022159Y005814D02*
X015873Y005814D01*
X015904Y005695D02*
X022123Y005695D01*
X022086Y005577D02*
X015904Y005577D01*
X015855Y005458D02*
X022064Y005458D01*
X022064Y005340D02*
X015752Y005340D01*
X015838Y002732D02*
X024246Y002732D01*
X024246Y002850D02*
X012616Y002850D01*
X012735Y002969D02*
X024246Y002969D01*
X024246Y003087D02*
X012853Y003087D01*
X012954Y003206D02*
X024246Y003206D01*
X024246Y003325D02*
X012954Y003325D01*
X012954Y003443D02*
X024246Y003443D01*
X024246Y003562D02*
X012954Y003562D01*
X012954Y003680D02*
X023232Y003680D01*
X022930Y003799D02*
X012882Y003799D01*
X012764Y003917D02*
X022754Y003917D01*
X022605Y004036D02*
X012645Y004036D01*
X012232Y004273D02*
X022390Y004273D01*
X022309Y004391D02*
X012308Y004391D01*
X012383Y004510D02*
X022229Y004510D01*
X022182Y004629D02*
X012459Y004629D01*
X012534Y004747D02*
X022145Y004747D01*
X022109Y004866D02*
X012609Y004866D01*
X012666Y004984D02*
X022072Y004984D01*
X022064Y005103D02*
X012672Y005103D01*
X012628Y005221D02*
X022064Y005221D01*
X022471Y004154D02*
X012139Y004154D01*
X011966Y004036D02*
X010845Y004036D01*
X010964Y003917D02*
X011847Y003917D01*
X011729Y003799D02*
X011082Y003799D01*
X011154Y003680D02*
X011656Y003680D01*
X011656Y003562D02*
X011154Y003562D01*
X011154Y003443D02*
X011656Y003443D01*
X011656Y003325D02*
X011154Y003325D01*
X011194Y003206D02*
X011656Y003206D01*
X011758Y003087D02*
X011313Y003087D01*
X011431Y002969D02*
X011876Y002969D01*
X011995Y002850D02*
X011550Y002850D01*
X011150Y002376D02*
X001165Y002376D01*
X001165Y002258D02*
X011269Y002258D01*
X011031Y002495D02*
X001165Y002495D01*
X001165Y002613D02*
X010913Y002613D01*
X010794Y002732D02*
X001165Y002732D01*
X001165Y002850D02*
X010195Y002850D01*
X010076Y002969D02*
X001165Y002969D01*
X001165Y003087D02*
X009958Y003087D01*
X009856Y003206D02*
X001165Y003206D01*
X001165Y003325D02*
X009856Y003325D01*
X009856Y003443D02*
X001165Y003443D01*
X002382Y006762D02*
X011031Y006762D01*
X010968Y006881D02*
X001970Y006881D01*
X001401Y006881D02*
X001165Y006881D01*
X001165Y006999D02*
X010961Y006999D01*
X011003Y007118D02*
X001165Y007118D01*
X001165Y007236D02*
X011076Y007236D01*
X011076Y007355D02*
X001165Y007355D01*
X001165Y007474D02*
X011076Y007474D01*
X011076Y007592D02*
X001165Y007592D01*
X001165Y007711D02*
X011076Y007711D01*
X011076Y007829D02*
X001165Y007829D01*
X001165Y007948D02*
X011076Y007948D01*
X011076Y008066D02*
X001165Y008066D01*
X001165Y008185D02*
X003454Y008185D01*
X003336Y008303D02*
X001165Y008303D01*
X001165Y008422D02*
X003217Y008422D01*
X003099Y008540D02*
X001165Y008540D01*
X001165Y008659D02*
X002980Y008659D01*
X002862Y008778D02*
X001165Y008778D01*
X001165Y008896D02*
X002743Y008896D01*
X002625Y009015D02*
X001165Y009015D01*
X001165Y009133D02*
X002506Y009133D01*
X002388Y009252D02*
X001165Y009252D01*
X001165Y009370D02*
X002269Y009370D01*
X002150Y009489D02*
X001165Y009489D01*
X001165Y009607D02*
X002032Y009607D01*
X001913Y009726D02*
X001165Y009726D01*
X001165Y009844D02*
X001795Y009844D01*
X001676Y009963D02*
X001165Y009963D01*
X001165Y010081D02*
X001558Y010081D01*
X001439Y010200D02*
X001165Y010200D01*
X001165Y010319D02*
X001321Y010319D01*
X001202Y010437D02*
X001165Y010437D01*
X001494Y010793D02*
X004181Y010793D01*
X004149Y010762D02*
X004045Y010762D01*
X003933Y010715D01*
X003848Y010630D01*
X003801Y010518D01*
X003801Y010397D01*
X003848Y010285D01*
X003933Y010200D01*
X002087Y010200D01*
X002205Y010081D02*
X005215Y010081D01*
X005215Y009963D02*
X002324Y009963D01*
X002443Y009844D02*
X005215Y009844D01*
X005215Y009793D02*
X005148Y009726D01*
X002561Y009726D01*
X002680Y009607D02*
X005101Y009607D01*
X005101Y009614D02*
X005101Y009493D01*
X005148Y009381D01*
X005233Y009296D01*
X005345Y009250D01*
X005466Y009250D01*
X005578Y009296D01*
X005663Y009381D01*
X005709Y009493D01*
X005709Y009614D01*
X005663Y009726D01*
X005593Y009796D01*
X005597Y016849D01*
X005635Y016834D01*
X005676Y016834D01*
X006651Y015859D01*
X006840Y015859D01*
X007750Y015859D01*
X007884Y015993D01*
X008026Y016135D01*
X008026Y012481D01*
X007919Y012588D01*
X007729Y012667D01*
X007522Y012667D01*
X007331Y012588D01*
X007186Y012442D01*
X007106Y012251D01*
X007106Y012044D01*
X007186Y011854D01*
X007331Y011708D01*
X007522Y011629D01*
X007608Y011629D01*
X007210Y011323D01*
X007161Y011303D01*
X007150Y011277D01*
X007128Y011260D01*
X007121Y011207D01*
X006671Y010127D01*
X006386Y010127D01*
X006318Y010195D01*
X006206Y010242D01*
X006085Y010242D01*
X005973Y010195D01*
X005888Y010110D01*
X005841Y009998D01*
X005841Y009877D01*
X005888Y009765D01*
X005973Y009680D01*
X006085Y009634D01*
X006206Y009634D01*
X006318Y009680D01*
X006386Y009749D01*
X006707Y009749D01*
X006864Y009749D01*
X006912Y009797D01*
X006950Y009813D01*
X006966Y009850D01*
X006994Y009879D01*
X006994Y009920D01*
X007122Y010226D01*
X007186Y010074D01*
X007331Y009928D01*
X007522Y009849D01*
X007729Y009849D01*
X007919Y009928D01*
X008065Y010074D01*
X008076Y010100D01*
X008076Y009214D01*
X008061Y009175D01*
X008076Y009139D01*
X008076Y009099D01*
X008106Y009070D01*
X008117Y009044D01*
X008081Y008958D01*
X008081Y008837D01*
X008123Y008737D01*
X003841Y008737D01*
X003680Y008955D01*
X003689Y008977D01*
X003689Y009098D01*
X003643Y009210D01*
X003558Y009295D01*
X003446Y009342D01*
X003325Y009342D01*
X003213Y009295D01*
X003128Y009210D01*
X003113Y009174D01*
X001414Y010872D01*
X001414Y023093D01*
X002012Y023691D01*
X002048Y023605D01*
X002133Y023520D01*
X002245Y023474D01*
X002366Y023474D01*
X002478Y023520D01*
X002563Y023605D01*
X002609Y023717D01*
X002609Y023800D01*
X007512Y028702D01*
X007548Y028615D01*
X007633Y028530D01*
X007745Y028484D01*
X007866Y028484D01*
X007978Y028530D01*
X008063Y028615D01*
X008109Y028727D01*
X008109Y028848D01*
X008063Y028960D01*
X008000Y029023D01*
X007997Y029218D01*
X007998Y029600D01*
X008171Y029602D01*
X008171Y029525D01*
X008160Y029485D01*
X008160Y029413D01*
X008255Y029413D01*
X008255Y029412D01*
X008160Y029412D01*
X008160Y029340D01*
X008171Y029299D01*
X008192Y029263D01*
X008222Y029233D01*
X008258Y029212D01*
X008299Y029201D01*
X008635Y029201D01*
X008971Y029201D01*
X009012Y029212D01*
X009048Y029233D01*
X009078Y029263D01*
X009099Y029299D01*
X009110Y029340D01*
X009110Y029412D01*
X009015Y029412D01*
X009015Y029413D01*
X009110Y029413D01*
X009110Y029485D01*
X009099Y029525D01*
X009099Y029525D01*
X009099Y029722D01*
X009099Y029919D01*
X009099Y030116D01*
X009099Y030313D01*
X009012Y030400D01*
X008749Y030400D01*
X008712Y030437D01*
X008702Y030437D01*
X008665Y030437D01*
X008635Y030467D01*
X008479Y030467D01*
X008434Y030467D01*
X008277Y030467D01*
X008267Y030457D01*
X007861Y030457D01*
X007771Y030461D01*
X007767Y030457D01*
X007761Y030457D01*
X007697Y030393D01*
X007417Y030137D01*
X007411Y030137D01*
X007347Y030073D01*
X007281Y030013D01*
X007281Y030007D01*
X007276Y030002D01*
X007276Y029913D01*
X007272Y029823D01*
X007276Y029819D01*
X007276Y029382D01*
X005241Y027347D01*
X004496Y027347D01*
X004468Y027375D01*
X004356Y027422D01*
X004235Y027422D01*
X004123Y027375D01*
X004038Y027290D01*
X003991Y027178D01*
X003991Y027057D01*
X004038Y026945D01*
X004123Y026860D01*
X004235Y026814D01*
X004356Y026814D01*
X004468Y026860D01*
X004496Y026889D01*
X005135Y026889D01*
X002869Y024623D01*
X002869Y024628D01*
X002823Y024740D01*
X002738Y024825D01*
X002626Y024872D01*
X002505Y024872D01*
X002393Y024825D01*
X002308Y024740D01*
X002261Y024628D01*
X002261Y024587D01*
X001165Y023491D01*
X001165Y026806D01*
X001336Y026739D01*
X001336Y026739D01*
X001830Y026702D01*
X002312Y026812D01*
X002740Y027060D01*
X003077Y027423D01*
X003292Y027868D01*
X003365Y028358D01*
X003365Y028358D01*
X003292Y028847D01*
X003077Y029293D01*
X002794Y029598D01*
X003654Y029598D01*
X003837Y029598D01*
X004006Y029668D01*
X004079Y029740D01*
X005952Y031558D01*
X014566Y031558D01*
X014566Y030389D01*
X014565Y030266D01*
X014566Y030265D01*
X014566Y030264D01*
X014612Y030151D01*
X014659Y030038D01*
X014660Y030037D01*
X014660Y030036D01*
X014749Y029947D01*
X014833Y029863D01*
X014834Y029863D01*
X014834Y029862D01*
X014949Y029814D01*
X015060Y029768D01*
X015061Y029768D01*
X015062Y029768D01*
X015189Y029768D01*
X018947Y029757D01*
X019175Y029851D01*
X019350Y030025D01*
X019445Y030253D01*
X019446Y030499D01*
X019430Y030538D01*
X019509Y030459D01*
X019675Y030459D01*
X019675Y030904D01*
X019231Y030904D01*
X019231Y030850D01*
X019178Y030902D01*
X018951Y030997D01*
X018036Y031000D01*
X018140Y031060D01*
X018477Y031423D01*
X018656Y031795D01*
X018656Y031679D01*
X018648Y031670D01*
X018601Y031558D01*
X018601Y031437D01*
X018648Y031325D01*
X018656Y031317D01*
X018656Y031296D01*
X018744Y031209D01*
X018809Y031209D01*
X018845Y031194D01*
X018966Y031194D01*
X019002Y031209D01*
X019308Y031209D01*
X019231Y031131D01*
X019231Y030964D01*
X019675Y030964D01*
X019675Y030904D01*
X019736Y030904D01*
X019736Y030459D01*
X019902Y030459D01*
X020128Y030685D01*
X020343Y030470D01*
X020346Y030470D01*
X020346Y028827D01*
X020046Y028827D01*
X020180Y028961D01*
X020180Y029128D01*
X019736Y029128D01*
X019736Y029188D01*
X020180Y029188D01*
X020180Y029354D01*
X019902Y029633D01*
X019736Y029633D01*
X019736Y029188D01*
X019675Y029188D01*
X019675Y029128D01*
X019231Y029128D01*
X019231Y028961D01*
X019245Y028947D01*
X019127Y028947D01*
X014789Y028947D01*
X014809Y028997D01*
X014809Y029118D01*
X014763Y029230D01*
X014694Y029299D01*
X014694Y029536D01*
X014584Y029647D01*
X014427Y029647D01*
X011294Y029647D01*
X011294Y029928D01*
X011294Y030084D01*
X011184Y030195D01*
X011131Y030195D01*
X011131Y030203D01*
X011131Y030275D01*
X011120Y030316D01*
X011099Y030352D01*
X011069Y030382D01*
X011033Y030403D01*
X010992Y030414D01*
X010656Y030414D01*
X010320Y030414D01*
X010279Y030403D01*
X010243Y030382D01*
X010213Y030352D01*
X010192Y030316D01*
X010181Y030275D01*
X010181Y030203D01*
X010276Y030203D01*
X010181Y030203D01*
X010181Y030131D01*
X010192Y030090D01*
X010192Y030090D01*
X010192Y029997D01*
X009099Y029997D01*
X009099Y030115D02*
X010185Y030115D01*
X010192Y029997D02*
X010044Y029997D01*
X009887Y029997D01*
X009776Y029886D01*
X009776Y029374D01*
X006250Y025750D01*
X006196Y025696D01*
X006196Y025694D01*
X006195Y025693D01*
X006196Y025616D01*
X006196Y020100D01*
X006195Y020023D01*
X006196Y020021D01*
X006196Y020019D01*
X006250Y019966D01*
X007236Y018941D01*
X007236Y018939D01*
X007290Y018885D01*
X007344Y018830D01*
X007346Y018830D01*
X007347Y018829D01*
X007423Y018829D01*
X007500Y018827D01*
X007502Y018829D01*
X007827Y018829D01*
X007984Y018829D01*
X008026Y018871D01*
X008026Y016715D01*
X007986Y016732D01*
X007865Y016732D01*
X007753Y016685D01*
X007720Y016653D01*
X007714Y016659D01*
X007714Y016806D01*
X007534Y016986D01*
X007534Y017309D01*
X007534Y017466D01*
X007147Y017853D01*
X007188Y017870D01*
X007273Y017955D01*
X007319Y018067D01*
X007319Y018188D01*
X007273Y018300D01*
X007204Y018369D01*
X007204Y018376D01*
X004404Y021176D01*
X004404Y021539D01*
X004404Y021696D01*
X004399Y021701D01*
X004399Y021798D01*
X004353Y021910D01*
X004268Y021995D01*
X004156Y022042D01*
X004035Y022042D01*
X003923Y021995D01*
X003838Y021910D01*
X003791Y021798D01*
X003791Y021677D01*
X003838Y021565D01*
X003923Y021480D01*
X004026Y021437D01*
X004026Y021314D01*
X003334Y022006D01*
X003224Y022117D01*
X002564Y022117D01*
X002407Y022117D01*
X002302Y022012D01*
X002205Y022012D01*
X002093Y021965D01*
X002008Y021880D01*
X001961Y021768D01*
X001961Y021647D01*
X002008Y021535D01*
X002093Y021450D01*
X002205Y021404D01*
X002326Y021404D01*
X002438Y021450D01*
X002523Y021535D01*
X002569Y021647D01*
X002569Y021739D01*
X003067Y021739D01*
X004374Y020432D01*
X004333Y020415D01*
X004248Y020330D01*
X004201Y020218D01*
X004201Y020097D01*
X004248Y019985D01*
X004333Y019900D01*
X004445Y019854D01*
X004566Y019854D01*
X004587Y019862D01*
X004846Y019603D01*
X004846Y018753D01*
X004886Y018713D01*
X004886Y017339D01*
X004858Y017310D01*
X004811Y017198D01*
X004811Y017077D01*
X004858Y016965D01*
X004943Y016880D01*
X005055Y016834D01*
X005176Y016834D01*
X005219Y016852D01*
X005218Y014217D01*
X005213Y014222D01*
X005101Y014268D01*
X004980Y014268D01*
X004868Y014222D01*
X004783Y014136D01*
X004737Y014025D01*
X004737Y013904D01*
X004783Y013792D01*
X004868Y013706D01*
X004954Y013671D01*
X004956Y011538D01*
X004149Y010762D01*
X004305Y010911D02*
X001414Y010911D01*
X001414Y011030D02*
X004428Y011030D01*
X004551Y011148D02*
X001414Y011148D01*
X001414Y011267D02*
X004675Y011267D01*
X004798Y011385D02*
X001414Y011385D01*
X001414Y011504D02*
X003159Y011504D01*
X003045Y011551D02*
X003279Y011454D01*
X003532Y011454D01*
X003766Y011551D01*
X003946Y011731D01*
X004043Y011965D01*
X004043Y012218D01*
X003946Y012452D01*
X004955Y012452D01*
X004956Y012334D02*
X003995Y012334D01*
X004043Y012215D02*
X004956Y012215D01*
X004956Y012097D02*
X004043Y012097D01*
X004043Y011978D02*
X004956Y011978D01*
X004956Y011860D02*
X003999Y011860D01*
X003950Y011741D02*
X004956Y011741D01*
X004956Y011623D02*
X003838Y011623D01*
X003652Y011504D02*
X004921Y011504D01*
X005216Y011263D02*
X005215Y009793D01*
X005148Y009726D02*
X005101Y009614D01*
X005103Y009489D02*
X002798Y009489D01*
X002917Y009370D02*
X005159Y009370D01*
X005340Y009252D02*
X003601Y009252D01*
X003675Y009133D02*
X008076Y009133D01*
X008076Y009252D02*
X005471Y009252D01*
X005652Y009370D02*
X008076Y009370D01*
X008076Y009489D02*
X005708Y009489D01*
X005709Y009607D02*
X008076Y009607D01*
X008076Y009726D02*
X006364Y009726D01*
X006306Y010200D02*
X006702Y010200D01*
X006751Y010319D02*
X005593Y010319D01*
X005593Y010437D02*
X006801Y010437D01*
X006850Y010556D02*
X005594Y010556D01*
X005594Y010674D02*
X006899Y010674D01*
X006949Y010793D02*
X005594Y010793D01*
X005594Y010911D02*
X006998Y010911D01*
X007048Y011030D02*
X005594Y011030D01*
X005594Y011148D02*
X007097Y011148D01*
X007138Y011267D02*
X005594Y011267D01*
X005594Y011385D02*
X007292Y011385D01*
X007446Y011504D02*
X005594Y011504D01*
X005594Y011623D02*
X007600Y011623D01*
X007298Y011741D02*
X005594Y011741D01*
X005594Y011860D02*
X007183Y011860D01*
X007134Y011978D02*
X005594Y011978D01*
X005594Y012097D02*
X007106Y012097D01*
X007106Y012215D02*
X005594Y012215D01*
X005595Y012334D02*
X007141Y012334D01*
X007196Y012452D02*
X005595Y012452D01*
X005595Y012571D02*
X007315Y012571D01*
X007936Y012571D02*
X008026Y012571D01*
X008026Y012689D02*
X005595Y012689D01*
X005595Y012808D02*
X008026Y012808D01*
X008026Y012927D02*
X005595Y012927D01*
X005595Y013045D02*
X008026Y013045D01*
X008026Y013164D02*
X005595Y013164D01*
X005595Y013282D02*
X008026Y013282D01*
X008026Y013401D02*
X005595Y013401D01*
X005595Y013519D02*
X008026Y013519D01*
X008026Y013638D02*
X005595Y013638D01*
X005595Y013756D02*
X008026Y013756D01*
X008026Y013875D02*
X005595Y013875D01*
X005596Y013993D02*
X008026Y013993D01*
X008026Y014112D02*
X005596Y014112D01*
X005596Y014231D02*
X008026Y014231D01*
X008026Y014349D02*
X005596Y014349D01*
X005596Y014468D02*
X008026Y014468D01*
X008026Y014586D02*
X005596Y014586D01*
X005596Y014705D02*
X008026Y014705D01*
X008026Y014823D02*
X005596Y014823D01*
X005596Y014942D02*
X008026Y014942D01*
X008026Y015060D02*
X005596Y015060D01*
X005596Y015179D02*
X008026Y015179D01*
X008026Y015297D02*
X005596Y015297D01*
X005596Y015416D02*
X008026Y015416D01*
X008026Y015534D02*
X005596Y015534D01*
X005596Y015653D02*
X008026Y015653D01*
X008026Y015772D02*
X005597Y015772D01*
X005597Y015890D02*
X006619Y015890D01*
X006501Y016009D02*
X005597Y016009D01*
X005597Y016127D02*
X006382Y016127D01*
X006264Y016246D02*
X005597Y016246D01*
X005597Y016364D02*
X006145Y016364D01*
X006026Y016483D02*
X005597Y016483D01*
X005597Y016601D02*
X005908Y016601D01*
X005789Y016720D02*
X005597Y016720D01*
X005597Y016838D02*
X005623Y016838D01*
X005219Y016838D02*
X005188Y016838D01*
X005219Y016720D02*
X001414Y016720D01*
X001414Y016838D02*
X005043Y016838D01*
X004866Y016957D02*
X001414Y016957D01*
X001414Y017076D02*
X004812Y017076D01*
X004811Y017194D02*
X001414Y017194D01*
X001414Y017313D02*
X004861Y017313D01*
X004886Y017431D02*
X001414Y017431D01*
X001414Y017550D02*
X004886Y017550D01*
X004886Y017668D02*
X001414Y017668D01*
X001414Y017787D02*
X004886Y017787D01*
X004886Y017905D02*
X001414Y017905D01*
X001414Y018024D02*
X004886Y018024D01*
X004886Y018142D02*
X001414Y018142D01*
X001414Y018261D02*
X004886Y018261D01*
X004886Y018380D02*
X001414Y018380D01*
X001414Y018498D02*
X004886Y018498D01*
X004886Y018617D02*
X001414Y018617D01*
X001414Y018735D02*
X004864Y018735D01*
X004846Y018854D02*
X001414Y018854D01*
X001414Y018972D02*
X004846Y018972D01*
X004846Y019091D02*
X001414Y019091D01*
X001414Y019209D02*
X004846Y019209D01*
X004846Y019328D02*
X001414Y019328D01*
X001414Y019446D02*
X004846Y019446D01*
X004846Y019565D02*
X001414Y019565D01*
X001414Y019684D02*
X004766Y019684D01*
X004647Y019802D02*
X001414Y019802D01*
X001414Y019921D02*
X004313Y019921D01*
X004225Y020039D02*
X001414Y020039D01*
X001414Y020158D02*
X004201Y020158D01*
X004226Y020276D02*
X001414Y020276D01*
X001414Y020395D02*
X004313Y020395D01*
X004293Y020513D02*
X001414Y020513D01*
X001414Y020632D02*
X004174Y020632D01*
X004055Y020750D02*
X001414Y020750D01*
X001414Y020869D02*
X003937Y020869D01*
X003818Y020987D02*
X001414Y020987D01*
X001414Y021106D02*
X003700Y021106D01*
X003581Y021225D02*
X001414Y021225D01*
X001414Y021343D02*
X003463Y021343D01*
X003344Y021462D02*
X002449Y021462D01*
X002542Y021580D02*
X003226Y021580D01*
X003107Y021699D02*
X002569Y021699D01*
X002345Y022054D02*
X001414Y022054D01*
X001414Y021936D02*
X002064Y021936D01*
X001982Y021817D02*
X001414Y021817D01*
X001414Y021699D02*
X001961Y021699D01*
X001989Y021580D02*
X001414Y021580D01*
X001414Y021462D02*
X002081Y021462D01*
X001414Y022173D02*
X006196Y022173D01*
X006196Y022291D02*
X001414Y022291D01*
X001414Y022410D02*
X006196Y022410D01*
X006196Y022529D02*
X001414Y022529D01*
X001414Y022647D02*
X006196Y022647D01*
X006196Y022766D02*
X001414Y022766D01*
X001414Y022884D02*
X006196Y022884D01*
X006196Y023003D02*
X001414Y023003D01*
X001443Y023121D02*
X006196Y023121D01*
X006196Y023240D02*
X001561Y023240D01*
X001680Y023358D02*
X006196Y023358D01*
X006196Y023477D02*
X002374Y023477D01*
X002237Y023477D02*
X001799Y023477D01*
X001917Y023595D02*
X002058Y023595D01*
X002553Y023595D02*
X006196Y023595D01*
X006196Y023714D02*
X002608Y023714D01*
X002642Y023833D02*
X006196Y023833D01*
X006196Y023951D02*
X002760Y023951D01*
X002879Y024070D02*
X006196Y024070D01*
X006196Y024188D02*
X002997Y024188D01*
X003116Y024307D02*
X006196Y024307D01*
X006196Y024425D02*
X003235Y024425D01*
X003353Y024544D02*
X006196Y024544D01*
X006196Y024662D02*
X003472Y024662D01*
X003590Y024781D02*
X006196Y024781D01*
X006196Y024899D02*
X003709Y024899D01*
X003827Y025018D02*
X006196Y025018D01*
X006196Y025136D02*
X003946Y025136D01*
X004064Y025255D02*
X006196Y025255D01*
X006196Y025374D02*
X004183Y025374D01*
X004301Y025492D02*
X006196Y025492D01*
X006196Y025611D02*
X004420Y025611D01*
X004539Y025729D02*
X006230Y025729D01*
X006346Y025848D02*
X004657Y025848D01*
X004776Y025966D02*
X006461Y025966D01*
X006576Y026085D02*
X004894Y026085D01*
X005013Y026203D02*
X006692Y026203D01*
X006807Y026322D02*
X005131Y026322D01*
X005250Y026440D02*
X006922Y026440D01*
X007038Y026559D02*
X005368Y026559D01*
X005487Y026678D02*
X007153Y026678D01*
X007268Y026796D02*
X005605Y026796D01*
X005724Y026915D02*
X007384Y026915D01*
X007499Y027033D02*
X005842Y027033D01*
X005961Y027152D02*
X007614Y027152D01*
X007730Y027270D02*
X006080Y027270D01*
X006198Y027389D02*
X007845Y027389D01*
X007960Y027507D02*
X006317Y027507D01*
X006435Y027626D02*
X008076Y027626D01*
X008191Y027744D02*
X006554Y027744D01*
X006672Y027863D02*
X008306Y027863D01*
X008422Y027982D02*
X006791Y027982D01*
X006909Y028100D02*
X008537Y028100D01*
X008652Y028219D02*
X007028Y028219D01*
X007146Y028337D02*
X008767Y028337D01*
X008883Y028456D02*
X007265Y028456D01*
X007384Y028574D02*
X007589Y028574D01*
X007516Y028693D02*
X007502Y028693D01*
X007180Y029286D02*
X003081Y029286D01*
X003077Y029293D02*
X003077Y029293D01*
X003138Y029167D02*
X007061Y029167D01*
X006942Y029048D02*
X003195Y029048D01*
X003252Y028930D02*
X006824Y028930D01*
X006705Y028811D02*
X003297Y028811D01*
X003292Y028847D02*
X003292Y028847D01*
X003315Y028693D02*
X006587Y028693D01*
X006468Y028574D02*
X003333Y028574D01*
X003351Y028456D02*
X006350Y028456D01*
X006231Y028337D02*
X003362Y028337D01*
X003344Y028219D02*
X006113Y028219D01*
X005994Y028100D02*
X003327Y028100D01*
X003309Y027982D02*
X005876Y027982D01*
X005757Y027863D02*
X003289Y027863D01*
X003232Y027744D02*
X005638Y027744D01*
X005520Y027626D02*
X003175Y027626D01*
X003118Y027507D02*
X005401Y027507D01*
X005283Y027389D02*
X004435Y027389D01*
X004156Y027389D02*
X003046Y027389D01*
X002936Y027270D02*
X004030Y027270D01*
X003991Y027152D02*
X002826Y027152D01*
X002740Y027060D02*
X002740Y027060D01*
X002694Y027033D02*
X004001Y027033D01*
X004069Y026915D02*
X002489Y026915D01*
X002312Y026812D02*
X002312Y026812D01*
X002241Y026796D02*
X005043Y026796D01*
X004924Y026678D02*
X001165Y026678D01*
X001165Y026796D02*
X001191Y026796D01*
X001165Y026559D02*
X004806Y026559D01*
X004687Y026440D02*
X001165Y026440D01*
X001165Y026322D02*
X001289Y026322D01*
X001242Y026276D02*
X001374Y026407D01*
X001793Y026407D01*
X001842Y026357D01*
X001892Y026407D01*
X002009Y026407D01*
X002009Y026407D01*
X002103Y026407D01*
X002195Y026407D01*
X002195Y026407D01*
X002274Y026328D01*
X002294Y026349D01*
X002353Y026407D01*
X002538Y026407D01*
X002713Y026407D01*
X002844Y026276D01*
X002844Y026101D01*
X002844Y025915D01*
X002844Y025740D01*
X002713Y025609D01*
X002444Y025609D01*
X002353Y025609D01*
X002353Y025609D01*
X002351Y025610D01*
X002294Y025667D01*
X002294Y025667D01*
X002274Y025688D01*
X002195Y025609D01*
X001986Y025609D01*
X001892Y025609D01*
X001834Y025667D01*
X001834Y025667D01*
X001796Y025705D01*
X001784Y025717D01*
X001676Y025609D01*
X001490Y025609D01*
X001359Y025740D01*
X001359Y025973D01*
X001242Y026090D01*
X001242Y026276D01*
X001242Y026203D02*
X001165Y026203D01*
X001165Y026085D02*
X001248Y026085D01*
X001165Y025966D02*
X001359Y025966D01*
X001359Y025848D02*
X001165Y025848D01*
X001165Y025729D02*
X001370Y025729D01*
X001488Y025611D02*
X001165Y025611D01*
X001165Y025492D02*
X003739Y025492D01*
X003857Y025611D02*
X002715Y025611D01*
X002834Y025729D02*
X003976Y025729D01*
X004094Y025848D02*
X002844Y025848D01*
X002844Y025966D02*
X004213Y025966D01*
X004331Y026085D02*
X002844Y026085D01*
X002844Y026203D02*
X004450Y026203D01*
X004568Y026322D02*
X002798Y026322D01*
X002351Y025611D02*
X002197Y025611D01*
X001890Y025611D02*
X001678Y025611D01*
X001165Y025374D02*
X003620Y025374D01*
X003502Y025255D02*
X001165Y025255D01*
X001165Y025136D02*
X003383Y025136D01*
X003264Y025018D02*
X001165Y025018D01*
X001165Y024899D02*
X003146Y024899D01*
X003027Y024781D02*
X002782Y024781D01*
X002855Y024662D02*
X002909Y024662D01*
X002349Y024781D02*
X001165Y024781D01*
X001165Y024662D02*
X002276Y024662D01*
X002218Y024544D02*
X001165Y024544D01*
X001165Y024425D02*
X002099Y024425D01*
X001981Y024307D02*
X001165Y024307D01*
X001165Y024188D02*
X001862Y024188D01*
X001744Y024070D02*
X001165Y024070D01*
X001165Y023951D02*
X001625Y023951D01*
X001507Y023833D02*
X001165Y023833D01*
X001165Y023714D02*
X001388Y023714D01*
X001269Y023595D02*
X001165Y023595D01*
X003286Y022054D02*
X006196Y022054D01*
X006196Y021936D02*
X004327Y021936D01*
X004392Y021817D02*
X006196Y021817D01*
X006196Y021699D02*
X004402Y021699D01*
X004404Y021580D02*
X006196Y021580D01*
X006196Y021462D02*
X004404Y021462D01*
X004404Y021343D02*
X006196Y021343D01*
X006196Y021225D02*
X004404Y021225D01*
X004474Y021106D02*
X006196Y021106D01*
X006196Y020987D02*
X004593Y020987D01*
X004711Y020869D02*
X006196Y020869D01*
X006196Y020750D02*
X004830Y020750D01*
X004949Y020632D02*
X006196Y020632D01*
X006196Y020513D02*
X005067Y020513D01*
X005186Y020395D02*
X006196Y020395D01*
X006196Y020276D02*
X005304Y020276D01*
X005423Y020158D02*
X006196Y020158D01*
X006195Y020039D02*
X005541Y020039D01*
X005660Y019921D02*
X006294Y019921D01*
X006408Y019802D02*
X005778Y019802D01*
X005897Y019684D02*
X006522Y019684D01*
X006636Y019565D02*
X006015Y019565D01*
X006134Y019446D02*
X006750Y019446D01*
X006864Y019328D02*
X006253Y019328D01*
X006371Y019209D02*
X006979Y019209D01*
X007093Y019091D02*
X006490Y019091D01*
X006608Y018972D02*
X007207Y018972D01*
X007321Y018854D02*
X006727Y018854D01*
X006845Y018735D02*
X008026Y018735D01*
X008026Y018617D02*
X006964Y018617D01*
X007082Y018498D02*
X008026Y018498D01*
X008026Y018380D02*
X007201Y018380D01*
X007289Y018261D02*
X008026Y018261D01*
X008026Y018142D02*
X007319Y018142D01*
X007302Y018024D02*
X008026Y018024D01*
X008026Y017905D02*
X007223Y017905D01*
X007214Y017787D02*
X008026Y017787D01*
X008026Y017668D02*
X007332Y017668D01*
X007451Y017550D02*
X008026Y017550D01*
X008026Y017431D02*
X007534Y017431D01*
X007534Y017313D02*
X008026Y017313D01*
X008026Y017194D02*
X007534Y017194D01*
X007534Y017076D02*
X008026Y017076D01*
X008026Y016957D02*
X007563Y016957D01*
X007682Y016838D02*
X008026Y016838D01*
X008014Y016720D02*
X008026Y016720D01*
X007837Y016720D02*
X007714Y016720D01*
X008019Y016127D02*
X008026Y016127D01*
X008026Y016009D02*
X007900Y016009D01*
X007782Y015890D02*
X008026Y015890D01*
X010302Y014325D02*
X010338Y014340D01*
X010423Y014425D01*
X010469Y014537D01*
X010469Y014634D01*
X010854Y015019D01*
X014595Y015019D01*
X014638Y014915D01*
X014723Y014830D01*
X014835Y014784D01*
X014956Y014784D01*
X015068Y014830D01*
X015153Y014915D01*
X015199Y015027D01*
X015199Y015074D01*
X015276Y015074D01*
X015388Y015120D01*
X015425Y015157D01*
X015421Y014039D01*
X015420Y014038D01*
X015420Y013959D01*
X015420Y013883D01*
X015421Y013883D01*
X015421Y013881D01*
X015478Y013825D01*
X015530Y013772D01*
X015531Y013772D01*
X015532Y013771D01*
X015611Y013772D01*
X015687Y013772D01*
X015688Y013772D01*
X017145Y013781D01*
X017131Y013748D01*
X017131Y013707D01*
X016971Y013547D01*
X011080Y013547D01*
X010302Y014325D01*
X010347Y014349D02*
X015422Y014349D01*
X015421Y014231D02*
X010396Y014231D01*
X010515Y014112D02*
X015421Y014112D01*
X015420Y013993D02*
X010634Y013993D01*
X010752Y013875D02*
X015427Y013875D01*
X015422Y014468D02*
X010441Y014468D01*
X010469Y014586D02*
X015423Y014586D01*
X015423Y014705D02*
X010540Y014705D01*
X010658Y014823D02*
X014739Y014823D01*
X014627Y014942D02*
X010777Y014942D01*
X011324Y015567D02*
X011324Y015968D01*
X011338Y015992D01*
X011324Y016043D01*
X011324Y016096D01*
X011304Y016116D01*
X010882Y017654D01*
X010893Y017665D01*
X010939Y017777D01*
X010939Y017898D01*
X010893Y018010D01*
X010808Y018095D01*
X010696Y018142D01*
X010678Y018142D01*
X012680Y018142D01*
X012683Y018145D02*
X012598Y018060D01*
X012551Y017948D01*
X012551Y017827D01*
X012579Y017761D01*
X012065Y016040D01*
X012053Y016035D01*
X011968Y015950D01*
X011921Y015838D01*
X011921Y015717D01*
X011968Y015605D01*
X012007Y015567D01*
X011324Y015567D01*
X011324Y015653D02*
X011948Y015653D01*
X011921Y015772D02*
X011324Y015772D01*
X011324Y015890D02*
X011943Y015890D01*
X012027Y016009D02*
X011334Y016009D01*
X011301Y016127D02*
X012091Y016127D01*
X012126Y016246D02*
X011269Y016246D01*
X011236Y016364D02*
X012162Y016364D01*
X012197Y016483D02*
X011204Y016483D01*
X011171Y016601D02*
X012233Y016601D01*
X012268Y016720D02*
X011139Y016720D01*
X011106Y016838D02*
X012303Y016838D01*
X012339Y016957D02*
X011073Y016957D01*
X011041Y017076D02*
X012374Y017076D01*
X012409Y017194D02*
X011008Y017194D01*
X010976Y017313D02*
X012445Y017313D01*
X012480Y017431D02*
X010943Y017431D01*
X010911Y017550D02*
X012516Y017550D01*
X012551Y017668D02*
X010894Y017668D01*
X010939Y017787D02*
X012568Y017787D01*
X012551Y017905D02*
X010936Y017905D01*
X010879Y018024D02*
X012583Y018024D01*
X012683Y018145D02*
X012759Y018177D01*
X012436Y018499D01*
X012436Y018656D01*
X012436Y019457D01*
X012368Y019525D01*
X012351Y019566D01*
X011515Y018730D01*
X011549Y018648D01*
X011549Y018527D01*
X011503Y018415D01*
X011418Y018330D01*
X011306Y018284D01*
X011185Y018284D01*
X011073Y018330D01*
X010988Y018415D01*
X010975Y018446D01*
X010678Y018142D01*
X010794Y018261D02*
X012675Y018261D01*
X012556Y018380D02*
X011467Y018380D01*
X011537Y018498D02*
X012438Y018498D01*
X012436Y018617D02*
X011549Y018617D01*
X011520Y018735D02*
X012436Y018735D01*
X012436Y018854D02*
X011639Y018854D01*
X011757Y018972D02*
X012436Y018972D01*
X012436Y019091D02*
X011876Y019091D01*
X011994Y019209D02*
X012436Y019209D01*
X012436Y019328D02*
X012113Y019328D01*
X012232Y019446D02*
X012436Y019446D01*
X012350Y019565D02*
X012351Y019565D01*
X011515Y020750D02*
X011220Y020750D01*
X011203Y020790D02*
X011249Y020678D01*
X011249Y020557D01*
X011203Y020445D01*
X011118Y020360D01*
X011006Y020314D01*
X010885Y020314D01*
X010773Y020360D01*
X010688Y020445D01*
X010641Y020557D01*
X010641Y020678D01*
X010688Y020790D01*
X010696Y020798D01*
X010637Y021001D01*
X010614Y021025D01*
X010616Y021073D01*
X010602Y021120D01*
X010618Y021149D01*
X010619Y021181D01*
X010654Y021214D01*
X010677Y021257D01*
X010709Y021266D01*
X011546Y022059D01*
X011546Y023919D01*
X011504Y023877D01*
X011504Y022288D01*
X011505Y022210D01*
X011504Y022210D01*
X011504Y022209D01*
X011450Y022154D01*
X011395Y022099D01*
X011394Y022099D01*
X011394Y022099D01*
X011315Y022099D01*
X010014Y022094D01*
X010014Y019631D01*
X010024Y019567D01*
X010014Y019555D01*
X010014Y019539D01*
X009969Y019494D01*
X009882Y019377D01*
X009889Y019358D01*
X009889Y019237D01*
X009843Y019125D01*
X009758Y019040D01*
X009654Y018997D01*
X009654Y018952D01*
X009725Y018982D01*
X009815Y018982D01*
X012037Y021294D01*
X012042Y025890D01*
X012033Y025960D01*
X012012Y026001D01*
X012023Y026035D01*
X012018Y026070D01*
X012046Y026106D01*
X012070Y026179D01*
X012068Y026181D01*
X012022Y026293D01*
X012022Y026414D01*
X012068Y026526D01*
X012154Y026611D01*
X012265Y026657D01*
X012386Y026657D01*
X012486Y026616D01*
X012493Y026661D01*
X012493Y026809D01*
X012433Y026809D01*
X012431Y026807D01*
X012342Y026809D01*
X012254Y026809D01*
X012252Y026810D01*
X012249Y026810D01*
X012188Y026874D01*
X012125Y026937D01*
X012125Y026939D01*
X012124Y026941D01*
X012125Y027029D01*
X012125Y027118D01*
X012127Y027120D01*
X012141Y027888D01*
X012107Y027923D01*
X012060Y028035D01*
X012060Y028156D01*
X012107Y028268D01*
X012192Y028353D01*
X012304Y028399D01*
X012425Y028399D01*
X012537Y028353D01*
X012622Y028268D01*
X012668Y028156D01*
X012668Y028035D01*
X012622Y027923D01*
X012579Y027880D01*
X012567Y027247D01*
X012622Y027247D01*
X012622Y027247D01*
X012713Y027247D01*
X012803Y027247D01*
X012804Y027246D01*
X012804Y027246D01*
X012868Y027182D01*
X012932Y027118D01*
X012932Y027118D01*
X012932Y027018D01*
X012932Y026937D01*
X012932Y026937D01*
X012931Y026739D01*
X013165Y026947D01*
X013176Y026977D01*
X013221Y026998D01*
X013225Y027002D01*
X013146Y027081D01*
X013100Y027193D01*
X013100Y027314D01*
X013146Y027426D01*
X013214Y027494D01*
X013212Y028246D01*
X013142Y028316D01*
X013096Y028427D01*
X013096Y028548D01*
X013142Y028660D01*
X013228Y028746D01*
X013284Y028769D01*
X012379Y028769D01*
X012379Y028765D01*
X012108Y028494D01*
X011756Y028494D01*
X010494Y027076D01*
X010494Y027069D01*
X010444Y027019D01*
X010444Y027019D01*
X010503Y026960D01*
X010549Y026848D01*
X010549Y026727D01*
X010503Y026615D01*
X010418Y026530D01*
X010306Y026484D01*
X010185Y026484D01*
X010094Y026521D01*
X010094Y024847D01*
X010516Y024847D01*
X010516Y024976D01*
X010627Y025087D01*
X010784Y025087D01*
X011405Y025087D01*
X011462Y025099D01*
X011481Y025087D01*
X011504Y025087D01*
X011545Y025046D01*
X011791Y024887D01*
X011814Y024887D01*
X011855Y024846D01*
X011904Y024814D01*
X011909Y024792D01*
X011924Y024776D01*
X011924Y024718D01*
X011937Y024661D01*
X011924Y024642D01*
X011924Y022053D01*
X011927Y022051D01*
X011924Y021975D01*
X011924Y021899D01*
X011922Y021897D01*
X011922Y021894D01*
X011867Y021842D01*
X011814Y021789D01*
X011811Y021789D01*
X011019Y021040D01*
X011060Y020899D01*
X011118Y020875D01*
X011203Y020790D01*
X011124Y020869D02*
X011629Y020869D01*
X011742Y020987D02*
X011034Y020987D01*
X011089Y021106D02*
X011856Y021106D01*
X011970Y021225D02*
X011215Y021225D01*
X011340Y021343D02*
X012037Y021343D01*
X012037Y021462D02*
X011465Y021462D01*
X011590Y021580D02*
X012037Y021580D01*
X012037Y021699D02*
X011716Y021699D01*
X011842Y021817D02*
X012037Y021817D01*
X012037Y021936D02*
X011924Y021936D01*
X011924Y022054D02*
X012037Y022054D01*
X012038Y022173D02*
X011924Y022173D01*
X011924Y022291D02*
X012038Y022291D01*
X012038Y022410D02*
X011924Y022410D01*
X011924Y022529D02*
X012038Y022529D01*
X012038Y022647D02*
X011924Y022647D01*
X011924Y022766D02*
X012038Y022766D01*
X012038Y022884D02*
X011924Y022884D01*
X011924Y023003D02*
X012039Y023003D01*
X012039Y023121D02*
X011924Y023121D01*
X011924Y023240D02*
X012039Y023240D01*
X012039Y023358D02*
X011924Y023358D01*
X011924Y023477D02*
X012039Y023477D01*
X012039Y023595D02*
X011924Y023595D01*
X011924Y023714D02*
X012039Y023714D01*
X012039Y023833D02*
X011924Y023833D01*
X011924Y023951D02*
X012040Y023951D01*
X012040Y024070D02*
X011924Y024070D01*
X011924Y024188D02*
X012040Y024188D01*
X012040Y024307D02*
X011924Y024307D01*
X011924Y024425D02*
X012040Y024425D01*
X012040Y024544D02*
X011924Y024544D01*
X011936Y024662D02*
X012040Y024662D01*
X012040Y024781D02*
X011920Y024781D01*
X012041Y024899D02*
X011771Y024899D01*
X011588Y025018D02*
X012041Y025018D01*
X012041Y025136D02*
X010094Y025136D01*
X010094Y025018D02*
X010559Y025018D01*
X010516Y024899D02*
X010094Y024899D01*
X010094Y025255D02*
X012041Y025255D01*
X012041Y025374D02*
X010094Y025374D01*
X010094Y025492D02*
X012041Y025492D01*
X012041Y025611D02*
X010094Y025611D01*
X010094Y025729D02*
X012042Y025729D01*
X012042Y025848D02*
X010094Y025848D01*
X010094Y025966D02*
X012029Y025966D01*
X012030Y026085D02*
X010094Y026085D01*
X010094Y026203D02*
X012059Y026203D01*
X012022Y026322D02*
X010094Y026322D01*
X010094Y026440D02*
X012033Y026440D01*
X012101Y026559D02*
X010447Y026559D01*
X010529Y026678D02*
X012493Y026678D01*
X012493Y026796D02*
X010549Y026796D01*
X010522Y026915D02*
X012148Y026915D01*
X012125Y027033D02*
X010458Y027033D01*
X010562Y027152D02*
X012128Y027152D01*
X012130Y027270D02*
X010668Y027270D01*
X010773Y027389D02*
X012132Y027389D01*
X012134Y027507D02*
X010878Y027507D01*
X010984Y027626D02*
X012136Y027626D01*
X012139Y027744D02*
X011089Y027744D01*
X011195Y027863D02*
X012141Y027863D01*
X012082Y027982D02*
X011300Y027982D01*
X011406Y028100D02*
X012060Y028100D01*
X012086Y028219D02*
X011511Y028219D01*
X011617Y028337D02*
X012176Y028337D01*
X012188Y028574D02*
X013107Y028574D01*
X013096Y028456D02*
X011722Y028456D01*
X012307Y028693D02*
X013175Y028693D01*
X013134Y028337D02*
X012552Y028337D01*
X012642Y028219D02*
X013212Y028219D01*
X013212Y028100D02*
X012668Y028100D01*
X012646Y027982D02*
X013213Y027982D01*
X013213Y027863D02*
X012579Y027863D01*
X012577Y027744D02*
X013213Y027744D01*
X013214Y027626D02*
X012574Y027626D01*
X012572Y027507D02*
X013214Y027507D01*
X013131Y027389D02*
X012570Y027389D01*
X012568Y027270D02*
X013100Y027270D01*
X013117Y027152D02*
X012898Y027152D01*
X012932Y027118D02*
X012932Y027118D01*
X012932Y027033D02*
X013194Y027033D01*
X013128Y026915D02*
X012931Y026915D01*
X012931Y026796D02*
X012996Y026796D01*
X014213Y026230D02*
X014214Y019985D01*
X014255Y020002D01*
X014376Y020002D01*
X014488Y019955D01*
X014496Y019947D01*
X014496Y024411D01*
X014489Y024421D01*
X014496Y024488D01*
X014496Y024556D01*
X014505Y024564D01*
X014506Y024576D01*
X014559Y024619D01*
X014607Y024667D01*
X014619Y024667D01*
X014681Y024716D01*
X014681Y024778D01*
X014728Y024890D01*
X014813Y024975D01*
X014925Y025022D01*
X015046Y025022D01*
X015158Y024975D01*
X015243Y024890D01*
X015289Y024778D01*
X015289Y024657D01*
X015243Y024545D01*
X015158Y024460D01*
X015046Y024414D01*
X014925Y024414D01*
X014914Y024418D01*
X014874Y024387D01*
X014874Y019110D01*
X017954Y015647D01*
X017966Y015645D01*
X018005Y015590D01*
X018019Y015575D01*
X018058Y015670D01*
X018126Y015738D01*
X018117Y019933D01*
X017061Y020884D01*
X016945Y020884D01*
X016833Y020930D01*
X016748Y021015D01*
X016701Y021127D01*
X016701Y021248D01*
X016748Y021360D01*
X016833Y021445D01*
X016945Y021492D01*
X017041Y021492D01*
X017651Y022104D01*
X017605Y022104D01*
X017493Y022150D01*
X017408Y022235D01*
X017361Y022347D01*
X017361Y022468D01*
X017408Y022580D01*
X017493Y022665D01*
X017605Y022712D01*
X017697Y022712D01*
X018687Y023649D01*
X015227Y026230D01*
X014213Y026230D01*
X014213Y026203D02*
X015262Y026203D01*
X015421Y026085D02*
X014213Y026085D01*
X014213Y025966D02*
X015580Y025966D01*
X015739Y025848D02*
X014213Y025848D01*
X014213Y025729D02*
X015898Y025729D01*
X016057Y025611D02*
X014213Y025611D01*
X014213Y025492D02*
X016216Y025492D01*
X016375Y025374D02*
X014213Y025374D01*
X014214Y025255D02*
X016534Y025255D01*
X016693Y025136D02*
X014214Y025136D01*
X014214Y025018D02*
X014916Y025018D01*
X015055Y025018D02*
X016852Y025018D01*
X017011Y024899D02*
X015234Y024899D01*
X015288Y024781D02*
X017170Y024781D01*
X017329Y024662D02*
X015289Y024662D01*
X015242Y024544D02*
X017488Y024544D01*
X017647Y024425D02*
X015074Y024425D01*
X014874Y024307D02*
X017806Y024307D01*
X017965Y024188D02*
X014874Y024188D01*
X014874Y024070D02*
X018124Y024070D01*
X018282Y023951D02*
X014874Y023951D01*
X014874Y023833D02*
X018441Y023833D01*
X018600Y023714D02*
X014874Y023714D01*
X014874Y023595D02*
X018630Y023595D01*
X018505Y023477D02*
X014874Y023477D01*
X014874Y023358D02*
X018380Y023358D01*
X018255Y023240D02*
X014874Y023240D01*
X014874Y023121D02*
X018129Y023121D01*
X018004Y023003D02*
X014874Y023003D01*
X014874Y022884D02*
X017879Y022884D01*
X017754Y022766D02*
X014874Y022766D01*
X014874Y022647D02*
X017475Y022647D01*
X017387Y022529D02*
X014874Y022529D01*
X014874Y022410D02*
X017361Y022410D01*
X017385Y022291D02*
X014874Y022291D01*
X014874Y022173D02*
X017470Y022173D01*
X017602Y022054D02*
X014874Y022054D01*
X014874Y021936D02*
X017484Y021936D01*
X017366Y021817D02*
X014874Y021817D01*
X014874Y021699D02*
X017248Y021699D01*
X017130Y021580D02*
X014874Y021580D01*
X014874Y021462D02*
X016873Y021462D01*
X016741Y021343D02*
X014874Y021343D01*
X014874Y021225D02*
X016701Y021225D01*
X016710Y021106D02*
X014874Y021106D01*
X014874Y020987D02*
X016776Y020987D01*
X017077Y020869D02*
X014874Y020869D01*
X014874Y020750D02*
X017209Y020750D01*
X017340Y020632D02*
X014874Y020632D01*
X014874Y020513D02*
X017472Y020513D01*
X017475Y020405D02*
X017336Y020405D01*
X017209Y020352D01*
X017111Y020254D01*
X017058Y020127D01*
X017058Y019989D01*
X017111Y019861D01*
X017209Y019763D01*
X017336Y019711D01*
X017475Y019711D01*
X017602Y019763D01*
X017700Y019861D01*
X017753Y019989D01*
X017753Y020127D01*
X017700Y020254D01*
X017602Y020352D01*
X017475Y020405D01*
X017499Y020395D02*
X017604Y020395D01*
X017678Y020276D02*
X017736Y020276D01*
X017740Y020158D02*
X017867Y020158D01*
X017753Y020039D02*
X017999Y020039D01*
X018117Y019921D02*
X017724Y019921D01*
X017641Y019802D02*
X018117Y019802D01*
X018117Y019684D02*
X014874Y019684D01*
X014874Y019802D02*
X017170Y019802D01*
X017086Y019921D02*
X014874Y019921D01*
X014874Y020039D02*
X017058Y020039D01*
X017071Y020158D02*
X014874Y020158D01*
X014874Y020276D02*
X017133Y020276D01*
X017312Y020395D02*
X014874Y020395D01*
X014496Y020395D02*
X014214Y020395D01*
X014214Y020513D02*
X014496Y020513D01*
X014496Y020632D02*
X014214Y020632D01*
X014214Y020750D02*
X014496Y020750D01*
X014496Y020869D02*
X014214Y020869D01*
X014214Y020987D02*
X014496Y020987D01*
X014496Y021106D02*
X014214Y021106D01*
X014214Y021225D02*
X014496Y021225D01*
X014496Y021343D02*
X014214Y021343D01*
X014214Y021462D02*
X014496Y021462D01*
X014496Y021580D02*
X014214Y021580D01*
X014214Y021699D02*
X014496Y021699D01*
X014496Y021817D02*
X014214Y021817D01*
X014214Y021936D02*
X014496Y021936D01*
X014496Y022054D02*
X014214Y022054D01*
X014214Y022173D02*
X014496Y022173D01*
X014496Y022291D02*
X014214Y022291D01*
X014214Y022410D02*
X014496Y022410D01*
X014496Y022529D02*
X014214Y022529D01*
X014214Y022647D02*
X014496Y022647D01*
X014496Y022766D02*
X014214Y022766D01*
X014214Y022884D02*
X014496Y022884D01*
X014496Y023003D02*
X014214Y023003D01*
X014214Y023121D02*
X014496Y023121D01*
X014496Y023240D02*
X014214Y023240D01*
X014214Y023358D02*
X014496Y023358D01*
X014496Y023477D02*
X014214Y023477D01*
X014214Y023595D02*
X014496Y023595D01*
X014496Y023714D02*
X014214Y023714D01*
X014214Y023833D02*
X014496Y023833D01*
X014496Y023951D02*
X014214Y023951D01*
X014214Y024070D02*
X014496Y024070D01*
X014496Y024188D02*
X014214Y024188D01*
X014214Y024307D02*
X014496Y024307D01*
X014490Y024425D02*
X014214Y024425D01*
X014214Y024544D02*
X014496Y024544D01*
X014603Y024662D02*
X014214Y024662D01*
X014214Y024781D02*
X014683Y024781D01*
X014737Y024899D02*
X014214Y024899D01*
X015451Y026559D02*
X016132Y026559D01*
X016145Y026554D02*
X016266Y026554D01*
X016378Y026600D01*
X016406Y026629D01*
X017193Y026629D01*
X017274Y026620D01*
X017286Y026629D01*
X017300Y026629D01*
X017359Y026687D01*
X018286Y027429D01*
X019535Y027429D01*
X019563Y027400D01*
X019675Y027354D01*
X019796Y027354D01*
X019908Y027400D01*
X019993Y027485D01*
X020039Y027597D01*
X020039Y027718D01*
X020024Y027756D01*
X021316Y027750D01*
X021316Y025169D01*
X021000Y024867D01*
X020997Y024867D01*
X020943Y024813D01*
X020888Y024760D01*
X020888Y024758D01*
X020886Y024756D01*
X020886Y024680D01*
X020885Y024604D01*
X020886Y024602D01*
X020886Y024344D01*
X020885Y024343D01*
X020886Y024267D01*
X020886Y024189D01*
X020888Y024188D01*
X020888Y024186D01*
X020943Y024133D01*
X020997Y024079D01*
X020999Y024079D01*
X021250Y023836D01*
X021086Y023673D01*
X021086Y023243D01*
X021095Y023234D01*
X020916Y023056D01*
X020916Y022899D01*
X020916Y022016D01*
X019906Y021006D01*
X019906Y020849D01*
X019906Y020799D01*
X019838Y020730D01*
X019791Y020618D01*
X019791Y020497D01*
X019838Y020385D01*
X019859Y020364D01*
X019503Y020366D01*
X018199Y021635D01*
X018199Y021728D01*
X018153Y021840D01*
X018068Y021925D01*
X018024Y021943D01*
X019396Y023321D01*
X019396Y021719D01*
X019328Y021650D01*
X019281Y021538D01*
X019281Y021417D01*
X019328Y021305D01*
X019413Y021220D01*
X019525Y021174D01*
X019646Y021174D01*
X019758Y021220D01*
X019843Y021305D01*
X019889Y021417D01*
X019889Y021538D01*
X019843Y021650D01*
X019774Y021719D01*
X019774Y023777D01*
X019843Y023845D01*
X019889Y023957D01*
X019889Y024078D01*
X019843Y024190D01*
X019758Y024275D01*
X019646Y024322D01*
X019525Y024322D01*
X019454Y024292D01*
X019454Y026017D01*
X019523Y026085D01*
X021316Y026085D01*
X021316Y026203D02*
X019569Y026203D01*
X019569Y026197D02*
X019569Y026318D01*
X019523Y026430D01*
X019438Y026515D01*
X019326Y026562D01*
X019205Y026562D01*
X019093Y026515D01*
X019008Y026430D01*
X018961Y026318D01*
X018961Y026197D01*
X019008Y026085D01*
X016087Y026085D01*
X016246Y025966D02*
X019076Y025966D01*
X019076Y026017D02*
X019076Y023864D01*
X019064Y023865D01*
X015441Y026566D01*
X015447Y026572D01*
X015493Y026684D01*
X015493Y026725D01*
X015982Y027064D01*
X015948Y027030D01*
X015901Y026918D01*
X015901Y026797D01*
X015948Y026685D01*
X016033Y026600D01*
X016145Y026554D01*
X016279Y026559D02*
X019199Y026559D01*
X019332Y026559D02*
X021316Y026559D01*
X021316Y026440D02*
X019513Y026440D01*
X019568Y026322D02*
X021316Y026322D01*
X021316Y026678D02*
X017349Y026678D01*
X017495Y026796D02*
X021316Y026796D01*
X021316Y026915D02*
X017643Y026915D01*
X017791Y027033D02*
X021316Y027033D01*
X021316Y027152D02*
X017940Y027152D01*
X018088Y027270D02*
X021316Y027270D01*
X021316Y027389D02*
X019881Y027389D01*
X020002Y027507D02*
X021316Y027507D01*
X021316Y027626D02*
X020039Y027626D01*
X020029Y027744D02*
X021316Y027744D01*
X021694Y027744D02*
X022177Y027744D01*
X022140Y027863D02*
X021694Y027863D01*
X021695Y027982D02*
X022104Y027982D01*
X022067Y028100D02*
X021611Y028100D01*
X022064Y028219D02*
X017599Y028219D01*
X017559Y028337D02*
X022064Y028337D01*
X022064Y028456D02*
X020621Y028456D01*
X020724Y028574D02*
X022064Y028574D01*
X022091Y028693D02*
X020724Y028693D01*
X020724Y028811D02*
X021046Y028811D01*
X021163Y028694D02*
X020891Y028965D01*
X020891Y029350D01*
X021163Y029622D01*
X021548Y029622D01*
X021819Y029350D01*
X021819Y028965D01*
X021548Y028694D01*
X021163Y028694D01*
X020927Y028930D02*
X020724Y028930D01*
X020724Y029048D02*
X020891Y029048D01*
X020891Y029167D02*
X020724Y029167D01*
X020724Y029286D02*
X020891Y029286D01*
X020946Y029404D02*
X020724Y029404D01*
X020724Y029523D02*
X021064Y029523D01*
X020724Y029641D02*
X022682Y029641D01*
X022534Y029523D02*
X021647Y029523D01*
X021765Y029404D02*
X022432Y029404D01*
X022351Y029286D02*
X021819Y029286D01*
X021819Y029167D02*
X022271Y029167D01*
X022201Y029048D02*
X021819Y029048D01*
X021784Y028930D02*
X022164Y028930D01*
X022128Y028811D02*
X021665Y028811D01*
X021982Y029878D02*
X020724Y029878D01*
X020724Y029760D02*
X022831Y029760D01*
X021830Y029997D02*
X020724Y029997D01*
X020724Y030115D02*
X021734Y030115D01*
X021685Y030234D02*
X020724Y030234D01*
X020724Y030352D02*
X021656Y030352D01*
X021656Y030471D02*
X021549Y030471D01*
X021667Y030589D02*
X021672Y030589D01*
X021162Y030471D02*
X020729Y030471D01*
X020847Y030589D02*
X021044Y030589D01*
X020342Y030471D02*
X019914Y030471D01*
X020033Y030589D02*
X020224Y030589D01*
X020346Y030352D02*
X019445Y030352D01*
X019437Y030234D02*
X020346Y030234D01*
X020346Y030115D02*
X019388Y030115D01*
X019322Y029997D02*
X020346Y029997D01*
X020346Y029878D02*
X019203Y029878D01*
X018953Y029760D02*
X020346Y029760D01*
X020346Y029641D02*
X014589Y029641D01*
X014694Y029523D02*
X019399Y029523D01*
X019509Y029633D02*
X019231Y029354D01*
X019231Y029188D01*
X019675Y029188D01*
X019675Y029633D01*
X019509Y029633D01*
X019675Y029523D02*
X019736Y029523D01*
X019736Y029404D02*
X019675Y029404D01*
X019675Y029286D02*
X019736Y029286D01*
X019736Y029167D02*
X020346Y029167D01*
X020346Y029286D02*
X020180Y029286D01*
X020131Y029404D02*
X020346Y029404D01*
X020346Y029523D02*
X020012Y029523D01*
X019675Y029167D02*
X014789Y029167D01*
X014809Y029048D02*
X019231Y029048D01*
X019231Y029286D02*
X014708Y029286D01*
X014694Y029404D02*
X019280Y029404D01*
X019240Y028456D02*
X017419Y028456D01*
X017172Y028456D02*
X014809Y028456D01*
X014785Y028337D02*
X015518Y028337D01*
X015374Y028219D02*
X014696Y028219D01*
X014696Y028100D02*
X015226Y028100D01*
X015078Y027982D02*
X014735Y027982D01*
X014802Y027863D02*
X014930Y027863D01*
X015596Y026796D02*
X015902Y026796D01*
X015901Y026915D02*
X015767Y026915D01*
X015938Y027033D02*
X015951Y027033D01*
X015956Y026678D02*
X015491Y026678D01*
X015610Y026440D02*
X019018Y026440D01*
X018963Y026322D02*
X015769Y026322D01*
X015928Y026203D02*
X018961Y026203D01*
X019008Y026085D02*
X019076Y026017D01*
X019076Y025848D02*
X016405Y025848D01*
X016564Y025729D02*
X019076Y025729D01*
X019076Y025611D02*
X016723Y025611D01*
X016882Y025492D02*
X019076Y025492D01*
X019076Y025374D02*
X017041Y025374D01*
X017200Y025255D02*
X019076Y025255D01*
X019076Y025136D02*
X017359Y025136D01*
X017518Y025018D02*
X019076Y025018D01*
X019076Y024899D02*
X017677Y024899D01*
X017836Y024781D02*
X019076Y024781D01*
X019076Y024662D02*
X017994Y024662D01*
X018153Y024544D02*
X019076Y024544D01*
X019076Y024425D02*
X018312Y024425D01*
X018471Y024307D02*
X019076Y024307D01*
X019076Y024188D02*
X018630Y024188D01*
X018789Y024070D02*
X019076Y024070D01*
X019076Y023951D02*
X018948Y023951D01*
X019454Y024307D02*
X019489Y024307D01*
X019454Y024425D02*
X020886Y024425D01*
X020886Y024307D02*
X019682Y024307D01*
X019844Y024188D02*
X020888Y024188D01*
X021008Y024070D02*
X019889Y024070D01*
X019887Y023951D02*
X021131Y023951D01*
X021246Y023833D02*
X019830Y023833D01*
X019774Y023714D02*
X021128Y023714D01*
X021086Y023595D02*
X019774Y023595D01*
X019774Y023477D02*
X021086Y023477D01*
X021086Y023358D02*
X019774Y023358D01*
X019774Y023240D02*
X021089Y023240D01*
X020982Y023121D02*
X019774Y023121D01*
X019774Y023003D02*
X020916Y023003D01*
X020916Y022884D02*
X019774Y022884D01*
X019774Y022766D02*
X020916Y022766D01*
X020916Y022647D02*
X019774Y022647D01*
X019774Y022529D02*
X020916Y022529D01*
X020916Y022410D02*
X019774Y022410D01*
X019774Y022291D02*
X020916Y022291D01*
X020916Y022173D02*
X019774Y022173D01*
X019774Y022054D02*
X020916Y022054D01*
X020836Y021936D02*
X019774Y021936D01*
X019774Y021817D02*
X020718Y021817D01*
X020599Y021699D02*
X019794Y021699D01*
X019872Y021580D02*
X020481Y021580D01*
X020362Y021462D02*
X019889Y021462D01*
X019859Y021343D02*
X020244Y021343D01*
X020125Y021225D02*
X019762Y021225D01*
X020007Y021106D02*
X018743Y021106D01*
X018621Y021225D02*
X019409Y021225D01*
X019312Y021343D02*
X018500Y021343D01*
X018378Y021462D02*
X019281Y021462D01*
X019299Y021580D02*
X018256Y021580D01*
X018199Y021699D02*
X019377Y021699D01*
X019396Y021817D02*
X018163Y021817D01*
X018042Y021936D02*
X019396Y021936D01*
X019396Y022054D02*
X018135Y022054D01*
X018253Y022173D02*
X019396Y022173D01*
X019396Y022291D02*
X018371Y022291D01*
X018489Y022410D02*
X019396Y022410D01*
X019396Y022529D02*
X018607Y022529D01*
X018725Y022647D02*
X019396Y022647D01*
X019396Y022766D02*
X018843Y022766D01*
X018961Y022884D02*
X019396Y022884D01*
X019396Y023003D02*
X019079Y023003D01*
X019197Y023121D02*
X019396Y023121D01*
X019396Y023240D02*
X019315Y023240D01*
X019454Y024544D02*
X020886Y024544D01*
X020886Y024662D02*
X019454Y024662D01*
X019454Y024781D02*
X020910Y024781D01*
X021034Y024899D02*
X019454Y024899D01*
X019454Y025018D02*
X021159Y025018D01*
X021283Y025136D02*
X019454Y025136D01*
X019454Y025255D02*
X021316Y025255D01*
X021316Y025374D02*
X019454Y025374D01*
X019454Y025492D02*
X021316Y025492D01*
X021316Y025611D02*
X019454Y025611D01*
X019454Y025729D02*
X021316Y025729D01*
X021316Y025848D02*
X019454Y025848D01*
X019454Y025966D02*
X021316Y025966D01*
X021694Y025966D02*
X024246Y025966D01*
X024246Y025848D02*
X021694Y025848D01*
X021694Y025729D02*
X024246Y025729D01*
X024246Y025611D02*
X021694Y025611D01*
X021694Y025492D02*
X024246Y025492D01*
X024246Y025374D02*
X021694Y025374D01*
X021694Y025255D02*
X024246Y025255D01*
X024246Y025136D02*
X021696Y025136D01*
X021694Y025018D02*
X024246Y025018D01*
X024246Y024899D02*
X022913Y024899D01*
X023032Y024781D02*
X024246Y024781D01*
X024246Y024662D02*
X023135Y024662D01*
X023135Y024544D02*
X024246Y024544D01*
X024246Y024425D02*
X022646Y024425D01*
X022565Y024425D02*
X021646Y024425D01*
X022032Y024781D02*
X022179Y024781D01*
X022298Y024899D02*
X021913Y024899D01*
X022565Y024899D02*
X022646Y024899D01*
X022646Y024781D02*
X022565Y024781D01*
X022565Y024662D02*
X022646Y024662D01*
X022646Y024544D02*
X022565Y024544D01*
X022967Y024070D02*
X024246Y024070D01*
X024246Y024188D02*
X023085Y024188D01*
X023135Y024307D02*
X024246Y024307D01*
X024246Y023951D02*
X022848Y023951D01*
X022965Y023833D02*
X024246Y023833D01*
X024246Y023714D02*
X023083Y023714D01*
X023124Y023595D02*
X024246Y023595D01*
X024246Y023477D02*
X023124Y023477D01*
X023124Y023358D02*
X024246Y023358D01*
X024246Y023240D02*
X023122Y023240D01*
X023003Y023121D02*
X024246Y023121D01*
X024246Y023003D02*
X022885Y023003D01*
X022913Y022884D02*
X024246Y022884D01*
X024246Y022766D02*
X023031Y022766D01*
X023124Y022647D02*
X024246Y022647D01*
X024246Y022529D02*
X023124Y022529D01*
X023124Y022410D02*
X024246Y022410D01*
X024246Y022291D02*
X023124Y022291D01*
X023055Y022173D02*
X024246Y022173D01*
X024246Y022054D02*
X022936Y022054D01*
X022861Y021936D02*
X024246Y021936D01*
X024246Y021817D02*
X022980Y021817D01*
X023098Y021699D02*
X024246Y021699D01*
X024246Y021580D02*
X023124Y021580D01*
X023124Y021462D02*
X024246Y021462D01*
X024246Y021343D02*
X023124Y021343D01*
X023106Y021225D02*
X024246Y021225D01*
X024246Y021106D02*
X022988Y021106D01*
X022869Y020987D02*
X024246Y020987D01*
X024246Y020869D02*
X022928Y020869D01*
X023047Y020750D02*
X024246Y020750D01*
X024246Y020632D02*
X023124Y020632D01*
X023124Y020513D02*
X024246Y020513D01*
X024246Y020395D02*
X023124Y020395D01*
X023124Y020276D02*
X024246Y020276D01*
X024246Y020158D02*
X023039Y020158D01*
X022921Y020039D02*
X024246Y020039D01*
X024246Y019921D02*
X022876Y019921D01*
X022995Y019802D02*
X024246Y019802D01*
X024246Y019684D02*
X023114Y019684D01*
X023124Y019565D02*
X024246Y019565D01*
X024246Y019446D02*
X023124Y019446D01*
X023124Y019328D02*
X024246Y019328D01*
X024246Y019209D02*
X023091Y019209D01*
X022973Y019091D02*
X024246Y019091D01*
X024246Y018972D02*
X022854Y018972D01*
X022943Y018854D02*
X024246Y018854D01*
X024246Y018735D02*
X023062Y018735D01*
X023124Y018617D02*
X024246Y018617D01*
X024246Y018498D02*
X023124Y018498D01*
X023124Y018380D02*
X024246Y018380D01*
X024246Y018261D02*
X023124Y018261D01*
X023024Y018142D02*
X024246Y018142D01*
X024246Y018024D02*
X022906Y018024D01*
X022892Y017905D02*
X024246Y017905D01*
X024246Y017787D02*
X023010Y017787D01*
X023124Y017668D02*
X024246Y017668D01*
X024246Y017550D02*
X023124Y017550D01*
X023124Y017431D02*
X024246Y017431D01*
X024246Y017313D02*
X023124Y017313D01*
X023076Y017194D02*
X024246Y017194D01*
X024246Y017076D02*
X022957Y017076D01*
X022840Y016957D02*
X024246Y016957D01*
X024246Y016838D02*
X022959Y016838D01*
X023077Y016720D02*
X024246Y016720D01*
X024246Y016601D02*
X023124Y016601D01*
X023124Y016483D02*
X024246Y016483D01*
X024246Y016364D02*
X023124Y016364D01*
X023124Y016246D02*
X024246Y016246D01*
X024246Y016127D02*
X023009Y016127D01*
X022891Y016009D02*
X024246Y016009D01*
X024246Y015890D02*
X022907Y015890D01*
X023026Y015772D02*
X024246Y015772D01*
X024246Y015653D02*
X023124Y015653D01*
X023124Y015534D02*
X024246Y015534D01*
X024246Y015416D02*
X023124Y015416D01*
X023124Y015297D02*
X024246Y015297D01*
X024246Y015179D02*
X023061Y015179D01*
X022942Y015060D02*
X024246Y015060D01*
X024246Y014942D02*
X022824Y014942D01*
X022387Y014942D02*
X022096Y014942D01*
X022220Y015060D02*
X022269Y015060D01*
X021972Y014823D02*
X024246Y014823D01*
X024246Y014705D02*
X021848Y014705D01*
X021725Y014586D02*
X024246Y014586D01*
X024246Y014468D02*
X021601Y014468D01*
X021478Y014349D02*
X024246Y014349D01*
X024246Y014231D02*
X021354Y014231D01*
X021230Y014112D02*
X024246Y014112D01*
X024246Y013993D02*
X021107Y013993D01*
X020983Y013875D02*
X024246Y013875D01*
X024246Y013756D02*
X020859Y013756D01*
X020736Y013638D02*
X024246Y013638D01*
X024246Y013519D02*
X020612Y013519D01*
X020488Y013401D02*
X024246Y013401D01*
X024246Y013282D02*
X020365Y013282D01*
X020241Y013164D02*
X024246Y013164D01*
X024246Y013045D02*
X020117Y013045D01*
X019996Y012927D02*
X024246Y012927D01*
X024246Y012808D02*
X018422Y012808D01*
X018541Y012689D02*
X024246Y012689D01*
X024246Y012571D02*
X018659Y012571D01*
X018778Y012452D02*
X024246Y012452D01*
X024246Y012334D02*
X020559Y012334D01*
X020658Y012215D02*
X024246Y012215D01*
X024246Y012097D02*
X020689Y012097D01*
X020673Y011978D02*
X024246Y011978D01*
X024246Y011860D02*
X020597Y011860D01*
X020174Y011860D02*
X019545Y011860D01*
X019426Y011741D02*
X024246Y011741D01*
X024246Y011623D02*
X019308Y011623D01*
X019189Y011504D02*
X024246Y011504D01*
X021994Y007711D02*
X013645Y007711D01*
X013690Y007592D02*
X021876Y007592D01*
X021757Y007474D02*
X013694Y007474D01*
X013664Y007355D02*
X021639Y007355D01*
X021520Y007236D02*
X013589Y007236D01*
X013464Y007118D02*
X021402Y007118D01*
X021283Y006999D02*
X013340Y006999D01*
X013215Y006881D02*
X021201Y006881D01*
X021166Y006762D02*
X013090Y006762D01*
X012965Y006644D02*
X021166Y006644D01*
X021213Y006525D02*
X012840Y006525D01*
X012704Y006407D02*
X021312Y006407D01*
X021071Y008185D02*
X018974Y008185D01*
X019104Y008303D02*
X020957Y008303D01*
X020843Y008422D02*
X019143Y008422D01*
X018703Y008185D02*
X011454Y008185D01*
X011076Y008185D02*
X008897Y008185D01*
X009015Y008303D02*
X010988Y008303D01*
X010961Y008422D02*
X009134Y008422D01*
X008106Y008778D02*
X003811Y008778D01*
X003724Y008896D02*
X008081Y008896D01*
X008105Y009015D02*
X003689Y009015D01*
X003170Y009252D02*
X003035Y009252D01*
X003801Y010437D02*
X001850Y010437D01*
X001968Y010319D02*
X003834Y010319D01*
X003933Y010200D02*
X004045Y010154D01*
X004166Y010154D01*
X004278Y010200D01*
X005215Y010200D01*
X005215Y010319D02*
X004377Y010319D01*
X004363Y010285D02*
X004409Y010397D01*
X004409Y010488D01*
X005216Y011263D01*
X005216Y011148D02*
X005097Y011148D01*
X005216Y011030D02*
X004973Y011030D01*
X004850Y010911D02*
X005216Y010911D01*
X005216Y010793D02*
X004727Y010793D01*
X004603Y010674D02*
X005216Y010674D01*
X005216Y010556D02*
X004480Y010556D01*
X004409Y010437D02*
X005216Y010437D01*
X005593Y010200D02*
X005985Y010200D01*
X005876Y010081D02*
X005593Y010081D01*
X005593Y009963D02*
X005841Y009963D01*
X005855Y009844D02*
X005593Y009844D01*
X005663Y009726D02*
X005927Y009726D01*
X006963Y009844D02*
X008076Y009844D01*
X008076Y009963D02*
X007955Y009963D01*
X008069Y010081D02*
X008076Y010081D01*
X007296Y009963D02*
X007012Y009963D01*
X007062Y010081D02*
X007182Y010081D01*
X007133Y010200D02*
X007111Y010200D01*
X004955Y012571D02*
X003827Y012571D01*
X003766Y012632D02*
X003946Y012452D01*
X003766Y012632D02*
X003532Y012729D01*
X003279Y012729D01*
X003045Y012632D01*
X002865Y012452D01*
X001414Y012452D01*
X001414Y012334D02*
X002816Y012334D01*
X002768Y012218D02*
X002865Y012452D01*
X002984Y012571D02*
X001414Y012571D01*
X001414Y012689D02*
X003184Y012689D01*
X003279Y013187D02*
X003045Y013284D01*
X002865Y013463D01*
X002768Y013697D01*
X002768Y013951D01*
X002865Y014185D01*
X003045Y014364D01*
X003279Y014461D01*
X003532Y014461D01*
X003766Y014364D01*
X003946Y014185D01*
X004043Y013951D01*
X004043Y013697D01*
X003946Y013463D01*
X003766Y013284D01*
X003532Y013187D01*
X003279Y013187D01*
X003048Y013282D02*
X001414Y013282D01*
X001414Y013164D02*
X004955Y013164D01*
X004955Y013282D02*
X003763Y013282D01*
X003884Y013401D02*
X004954Y013401D01*
X004954Y013519D02*
X003969Y013519D01*
X004018Y013638D02*
X004954Y013638D01*
X004819Y013756D02*
X004043Y013756D01*
X004043Y013875D02*
X004749Y013875D01*
X004737Y013993D02*
X004025Y013993D01*
X003976Y014112D02*
X004773Y014112D01*
X004889Y014231D02*
X003900Y014231D01*
X003781Y014349D02*
X005218Y014349D01*
X005218Y014231D02*
X005192Y014231D01*
X005218Y014468D02*
X001414Y014468D01*
X001414Y014586D02*
X005218Y014586D01*
X005218Y014705D02*
X001414Y014705D01*
X001414Y014823D02*
X005218Y014823D01*
X005218Y014942D02*
X001414Y014942D01*
X001414Y015060D02*
X005218Y015060D01*
X005218Y015179D02*
X001414Y015179D01*
X001414Y015297D02*
X005218Y015297D01*
X005218Y015416D02*
X001414Y015416D01*
X001414Y015534D02*
X005218Y015534D01*
X005219Y015653D02*
X001414Y015653D01*
X001414Y015772D02*
X005219Y015772D01*
X005219Y015890D02*
X001414Y015890D01*
X001414Y016009D02*
X005219Y016009D01*
X005219Y016127D02*
X001414Y016127D01*
X001414Y016246D02*
X005219Y016246D01*
X005219Y016364D02*
X001414Y016364D01*
X001414Y016483D02*
X005219Y016483D01*
X005219Y016601D02*
X001414Y016601D01*
X001414Y014349D02*
X003030Y014349D01*
X002911Y014231D02*
X001414Y014231D01*
X001414Y014112D02*
X002835Y014112D01*
X002786Y013993D02*
X001414Y013993D01*
X001414Y013875D02*
X002768Y013875D01*
X002768Y013756D02*
X001414Y013756D01*
X001414Y013638D02*
X002793Y013638D01*
X002842Y013519D02*
X001414Y013519D01*
X001414Y013401D02*
X002927Y013401D01*
X003627Y012689D02*
X004955Y012689D01*
X004955Y012808D02*
X001414Y012808D01*
X001414Y012927D02*
X004955Y012927D01*
X004955Y013045D02*
X001414Y013045D01*
X001414Y012215D02*
X002768Y012215D01*
X002768Y012218D02*
X002768Y011965D01*
X002865Y011731D01*
X003045Y011551D01*
X002973Y011623D02*
X001414Y011623D01*
X001414Y011741D02*
X002861Y011741D01*
X002812Y011860D02*
X001414Y011860D01*
X001414Y011978D02*
X002768Y011978D01*
X002768Y012097D02*
X001414Y012097D01*
X001613Y010674D02*
X003892Y010674D01*
X003817Y010556D02*
X001731Y010556D01*
X004278Y010200D02*
X004363Y010285D01*
X010871Y013756D02*
X017135Y013756D01*
X017062Y013638D02*
X010989Y013638D01*
X010910Y018380D02*
X011024Y018380D01*
X010148Y019328D02*
X009889Y019328D01*
X009878Y019209D02*
X010034Y019209D01*
X009920Y019091D02*
X009809Y019091D01*
X009702Y018972D02*
X009654Y018972D01*
X009933Y019446D02*
X010262Y019446D01*
X010376Y019565D02*
X010022Y019565D01*
X010014Y019684D02*
X010490Y019684D01*
X010604Y019802D02*
X010014Y019802D01*
X010014Y019921D02*
X010718Y019921D01*
X010831Y020039D02*
X010014Y020039D01*
X010014Y020158D02*
X010945Y020158D01*
X011059Y020276D02*
X010014Y020276D01*
X010014Y020395D02*
X010738Y020395D01*
X010660Y020513D02*
X010014Y020513D01*
X010014Y020632D02*
X010641Y020632D01*
X010671Y020750D02*
X010014Y020750D01*
X010014Y020869D02*
X010675Y020869D01*
X010641Y020987D02*
X010014Y020987D01*
X010014Y021106D02*
X010606Y021106D01*
X010660Y021225D02*
X010014Y021225D01*
X010014Y021343D02*
X010790Y021343D01*
X010915Y021462D02*
X010014Y021462D01*
X010014Y021580D02*
X011041Y021580D01*
X011166Y021699D02*
X010014Y021699D01*
X010014Y021817D02*
X011291Y021817D01*
X011416Y021936D02*
X010014Y021936D01*
X010014Y022054D02*
X011542Y022054D01*
X011546Y022173D02*
X011468Y022173D01*
X011504Y022291D02*
X011546Y022291D01*
X011546Y022410D02*
X011504Y022410D01*
X011504Y022529D02*
X011546Y022529D01*
X011546Y022647D02*
X011504Y022647D01*
X011504Y022766D02*
X011546Y022766D01*
X011546Y022884D02*
X011504Y022884D01*
X011504Y023003D02*
X011546Y023003D01*
X011546Y023121D02*
X011504Y023121D01*
X011504Y023240D02*
X011546Y023240D01*
X011546Y023358D02*
X011504Y023358D01*
X011504Y023477D02*
X011546Y023477D01*
X011546Y023595D02*
X011504Y023595D01*
X011504Y023714D02*
X011546Y023714D01*
X011546Y023833D02*
X011504Y023833D01*
X011401Y020632D02*
X011249Y020632D01*
X011231Y020513D02*
X011287Y020513D01*
X011173Y020395D02*
X011153Y020395D01*
X014214Y020276D02*
X014496Y020276D01*
X014496Y020158D02*
X014214Y020158D01*
X014214Y020039D02*
X014496Y020039D01*
X014874Y019565D02*
X018118Y019565D01*
X018118Y019446D02*
X014874Y019446D01*
X014874Y019328D02*
X018118Y019328D01*
X018118Y019209D02*
X014874Y019209D01*
X014891Y019091D02*
X018119Y019091D01*
X018119Y018972D02*
X014997Y018972D01*
X015102Y018854D02*
X018119Y018854D01*
X018119Y018735D02*
X015208Y018735D01*
X015313Y018617D02*
X018120Y018617D01*
X018120Y018498D02*
X015418Y018498D01*
X015524Y018380D02*
X018120Y018380D01*
X018120Y018261D02*
X015629Y018261D01*
X015735Y018142D02*
X018121Y018142D01*
X018121Y018024D02*
X015840Y018024D01*
X015946Y017905D02*
X018121Y017905D01*
X018121Y017787D02*
X016051Y017787D01*
X016157Y017668D02*
X018122Y017668D01*
X018122Y017550D02*
X016262Y017550D01*
X016368Y017431D02*
X018122Y017431D01*
X018122Y017313D02*
X016473Y017313D01*
X016578Y017194D02*
X018123Y017194D01*
X018123Y017076D02*
X016684Y017076D01*
X016789Y016957D02*
X018123Y016957D01*
X018124Y016838D02*
X016895Y016838D01*
X017000Y016720D02*
X018124Y016720D01*
X018124Y016601D02*
X017106Y016601D01*
X017211Y016483D02*
X018124Y016483D01*
X018125Y016364D02*
X017317Y016364D01*
X017422Y016246D02*
X018125Y016246D01*
X018125Y016127D02*
X017528Y016127D01*
X017633Y016009D02*
X018125Y016009D01*
X018126Y015890D02*
X017738Y015890D01*
X017844Y015772D02*
X018126Y015772D01*
X018051Y015653D02*
X017949Y015653D01*
X018897Y012334D02*
X020212Y012334D01*
X019366Y012215D02*
X019015Y012215D01*
X019134Y012097D02*
X019247Y012097D01*
X020658Y008540D02*
X020729Y008540D01*
X023970Y006881D02*
X024246Y006881D01*
X024171Y003680D02*
X024246Y003680D01*
X024246Y002613D02*
X015934Y002613D01*
X015964Y002495D02*
X024246Y002495D01*
X024246Y002376D02*
X015948Y002376D01*
X015872Y002258D02*
X024246Y002258D01*
X015424Y014823D02*
X015052Y014823D01*
X015164Y014942D02*
X015424Y014942D01*
X015424Y015060D02*
X015199Y015060D01*
X019230Y020632D02*
X019797Y020632D01*
X019791Y020513D02*
X019352Y020513D01*
X019473Y020395D02*
X019834Y020395D01*
X019858Y020750D02*
X019108Y020750D01*
X018986Y020869D02*
X019906Y020869D01*
X019906Y020987D02*
X018865Y020987D01*
X019523Y026085D02*
X019569Y026197D01*
X019590Y027389D02*
X018236Y027389D01*
X018075Y029760D02*
X011294Y029760D01*
X011294Y029878D02*
X014818Y029878D01*
X014700Y029997D02*
X011294Y029997D01*
X011264Y030115D02*
X014627Y030115D01*
X014578Y030234D02*
X011131Y030234D01*
X011131Y030203D02*
X011036Y030203D01*
X011036Y030203D01*
X011131Y030203D01*
X011099Y030352D02*
X014565Y030352D01*
X014566Y030471D02*
X004832Y030471D01*
X004954Y030589D02*
X014566Y030589D01*
X014566Y030708D02*
X005076Y030708D01*
X005198Y030827D02*
X014566Y030827D01*
X014566Y030945D02*
X005321Y030945D01*
X005443Y031064D02*
X014566Y031064D01*
X014566Y031182D02*
X005565Y031182D01*
X005687Y031301D02*
X014566Y031301D01*
X014566Y031419D02*
X005809Y031419D01*
X005931Y031538D02*
X014566Y031538D01*
X018140Y031060D02*
X018140Y031060D01*
X018140Y031060D01*
X018144Y031064D02*
X019231Y031064D01*
X019282Y031182D02*
X018254Y031182D01*
X018364Y031301D02*
X018656Y031301D01*
X018609Y031419D02*
X018474Y031419D01*
X018477Y031423D02*
X018477Y031423D01*
X018533Y031538D02*
X018601Y031538D01*
X018590Y031656D02*
X018642Y031656D01*
X018647Y031775D02*
X018656Y031775D01*
X019075Y030945D02*
X019675Y030945D01*
X019675Y030827D02*
X019736Y030827D01*
X019736Y030708D02*
X019675Y030708D01*
X019675Y030589D02*
X019736Y030589D01*
X019736Y030471D02*
X019675Y030471D01*
X019497Y030471D02*
X019446Y030471D01*
X020180Y029048D02*
X020346Y029048D01*
X020346Y028930D02*
X020149Y028930D01*
X021694Y027626D02*
X022218Y027626D01*
X022299Y027507D02*
X021694Y027507D01*
X021694Y027389D02*
X022379Y027389D01*
X022460Y027270D02*
X021694Y027270D01*
X021694Y027152D02*
X022585Y027152D01*
X022489Y027229D02*
X022489Y027229D01*
X022734Y027033D02*
X021694Y027033D01*
X021694Y026915D02*
X022889Y026915D01*
X023191Y026796D02*
X021694Y026796D01*
X021694Y026678D02*
X024246Y026678D01*
X024240Y026796D02*
X024246Y026796D01*
X024246Y026559D02*
X021694Y026559D01*
X021694Y026440D02*
X024246Y026440D01*
X024246Y026322D02*
X021694Y026322D01*
X021694Y026203D02*
X024246Y026203D01*
X024246Y026085D02*
X021694Y026085D01*
X010656Y030206D02*
X010656Y030206D01*
X010656Y030414D01*
X010656Y030206D01*
X010656Y030234D02*
X010656Y030234D01*
X010656Y030352D02*
X010656Y030352D01*
X010276Y030203D02*
X010276Y030203D01*
X010181Y030234D02*
X009099Y030234D01*
X009059Y030352D02*
X010213Y030352D01*
X009776Y029878D02*
X009099Y029878D01*
X009099Y029760D02*
X009776Y029760D01*
X009776Y029641D02*
X009099Y029641D01*
X009100Y029523D02*
X009776Y029523D01*
X009776Y029404D02*
X009110Y029404D01*
X009091Y029286D02*
X009690Y029286D01*
X009575Y029167D02*
X007998Y029167D01*
X007997Y029286D02*
X008179Y029286D01*
X008160Y029404D02*
X007997Y029404D01*
X007998Y029523D02*
X008170Y029523D01*
X008171Y029525D02*
X008171Y029525D01*
X008635Y029409D02*
X008635Y029201D01*
X008635Y029409D01*
X008635Y029409D01*
X008635Y029404D02*
X008635Y029404D01*
X008635Y029286D02*
X008635Y029286D01*
X008076Y028930D02*
X009344Y028930D01*
X009459Y029048D02*
X008000Y029048D01*
X008109Y028811D02*
X009229Y028811D01*
X009113Y028693D02*
X008095Y028693D01*
X008022Y028574D02*
X008998Y028574D01*
X008636Y030208D02*
X008616Y030228D01*
X008626Y030228D02*
X008636Y030218D01*
X008636Y030208D01*
X007653Y030352D02*
X004710Y030352D01*
X004587Y030234D02*
X007523Y030234D01*
X007389Y030115D02*
X004465Y030115D01*
X004343Y029997D02*
X007276Y029997D01*
X007275Y029878D02*
X004221Y029878D01*
X004099Y029760D02*
X007276Y029760D01*
X007276Y029641D02*
X003942Y029641D01*
X002974Y029404D02*
X007276Y029404D01*
X007276Y029523D02*
X002864Y029523D01*
X001830Y026702D02*
X001830Y026702D01*
X002195Y026407D02*
X002195Y026407D01*
X003405Y021936D02*
X003864Y021936D01*
X003799Y021817D02*
X003523Y021817D01*
X003642Y021699D02*
X003791Y021699D01*
X003760Y021580D02*
X003832Y021580D01*
X003879Y021462D02*
X003967Y021462D01*
X003997Y021343D02*
X004026Y021343D01*
X008009Y018854D02*
X008026Y018854D01*
X010715Y006288D02*
X011643Y006288D01*
X011529Y006170D02*
X010884Y006170D01*
X010943Y006051D02*
X011416Y006051D01*
X011302Y005932D02*
X010953Y005932D01*
X010922Y005814D02*
X011189Y005814D01*
X011076Y005695D02*
X010834Y005695D01*
D25*
X010606Y005958D03*
X017406Y020058D03*
X018118Y020702D03*
D26*
X022906Y010898D02*
X022906Y008058D01*
X021566Y006718D01*
X015506Y005658D02*
X012166Y005658D01*
X012506Y006758D02*
X013296Y007508D01*
D27*
X012506Y006758D02*
X011186Y005378D01*
X010086Y005378D01*
X010086Y005058D01*
M02*
